AnekKannada-ExpandedMedium.ufo
<glyph name="plus" format="2">
  <advance width="1337"/>
  <unicode hex="002B"/>
  <outline>
    <contour>
      <point x="761" y="1125" type="line"/>
      <point x="576" y="1125" type="line"/>
      <point x="576" y="87" type="line"/>
      <point x="761" y="87" type="line"/>
    </contour>
    <contour>
      <point x="1196" y="521" type="line"/>
      <point x="1196" y="691" type="line"/>
      <point x="141" y="691" type="line"/>
      <point x="141" y="521" type="line"/>
    </contour>
  </outline>
</glyph>
<glyph name="one" format="2">
  <advance width="868"/>
  <unicode hex="0031"/>
  <outline>
    <contour>
      <point x="684" y="0" type="line"/>
      <point x="684" y="1278" type="line"/>
      <point x="469" y="1278" type="line"/>
      <point x="76" y="1104" type="line"/>
      <point x="66" y="909" type="line"/>
      <point x="447" y="1074" type="line"/>
      <point x="462" y="1074" type="line"/>
      <point x="462" y="0" type="line"/>
    </contour>
  </outline>
</glyph>
<glyph name="equal" format="2">
  <advance width="1355"/>
  <unicode hex="003D"/>
  <outline>
    <contour>
      <point x="1200" y="283" type="line"/>
      <point x="1200" y="455" type="line"/>
      <point x="155" y="455" type="line"/>
      <point x="155" y="283" type="line"/>
    </contour>
    <contour>
      <point x="1200" y="759" type="line"/>
      <point x="1200" y="931" type="line"/>
      <point x="155" y="931" type="line"/>
      <point x="155" y="759" type="line"/>
    </contour>
  </outline>
</glyph>
<glyph name="C" format="2">
  <advance width="1493"/>
  <unicode hex="0043"/>
  <anchor x="811" y="0" name="bottom"/>
  <anchor x="811" y="1278" name="top"/>
  <outline>
    <contour>
      <point x="853" y="-33" type="curve" smooth="yes"/>
      <point x="1082" y="-33"/>
      <point x="1254" y="30"/>
      <point x="1361" y="92" type="curve"/>
      <point x="1380" y="292" type="line"/>
      <point x="1254" y="217"/>
      <point x="1084" y="153"/>
      <point x="872" y="153" type="curve" smooth="yes"/>
      <point x="519" y="153"/>
      <point x="344" y="330"/>
      <point x="344" y="633" type="curve"/>
      <point x="344" y="652" type="line"/>
      <point x="344" y="952"/>
      <point x="520" y="1127"/>
      <point x="854" y="1127" type="curve" smooth="yes"/>
      <point x="1079" y="1127"/>
      <point x="1243" y="1061"/>
      <point x="1367" y="987" type="curve"/>
      <point x="1347" y="1187" type="line"/>
      <point x="1240" y="1249"/>
      <point x="1070" y="1311"/>
      <point x="841" y="1311" type="curve" smooth="yes"/>
      <point x="364" y="1311"/>
      <point x="112" y="1067"/>
      <point x="112" y="651" type="curve"/>
      <point x="112" y="632" type="line"/>
      <point x="112" y="211"/>
      <point x="366" y="-33"/>
    </contour>
  </outline>
</glyph>
<glyph name="H" format="2">
  <advance width="1688"/>
  <unicode hex="0048"/>
  <anchor x="844" y="0" name="bottom"/>
  <anchor x="844" y="639" name="center"/>
  <anchor x="844" y="1278" name="top"/>
  <anchor x="20" y="1278" name="topleft"/>
  <outline>
    <contour>
      <point x="408" y="1278" type="line"/>
      <point x="185" y="1278" type="line"/>
      <point x="185" y="0" type="line"/>
      <point x="408" y="0" type="line"/>
    </contour>
    <contour>
      <point x="1503" y="1278" type="line"/>
      <point x="1280" y="1278" type="line"/>
      <point x="1280" y="0" type="line"/>
      <point x="1503" y="0" type="line"/>
    </contour>
    <contour>
      <point x="300" y="568" type="line"/>
      <point x="1378" y="568" type="line"/>
      <point x="1378" y="749" type="line"/>
      <point x="300" y="749" type="line"/>
    </contour>
  </outline>
</glyph>
<glyph name="Y" format="2">
  <advance width="1521"/>
  <unicode hex="0059"/>
  <anchor x="761" y="0" name="bottom"/>
  <anchor x="761" y="1278" name="top"/>
  <anchor x="20" y="1278" name="topleft"/>
  <outline>
    <contour>
      <point x="858" y="364" type="line"/>
      <point x="1482" y="1278" type="line"/>
      <point x="1230" y="1278" type="line"/>
      <point x="899" y="785" type="line"/>
      <point x="768" y="591" type="line"/>
      <point x="753" y="591" type="line"/>
      <point x="621" y="787" type="line"/>
      <point x="291" y="1278" type="line"/>
      <point x="39" y="1278" type="line"/>
      <point x="664" y="364" type="line"/>
    </contour>
    <contour>
      <point x="872" y="0" type="line"/>
      <point x="872" y="553" type="line"/>
      <point x="650" y="553" type="line"/>
      <point x="650" y="0" type="line"/>
    </contour>
  </outline>
</glyph>
<glyph name="yen" format="2">
  <advance width="1525"/>
  <unicode hex="00A5"/>
  <outline>
    <component base="Y"/>
    <contour>
      <point x="1370" y="543" type="line"/>
      <point x="1384" y="695" type="line"/>
      <point x="920" y="695" type="line"/>
      <point x="877" y="543" type="line"/>
    </contour>
    <contour>
      <point x="144" y="238" type="line"/>
      <point x="1370" y="238" type="line"/>
      <point x="1384" y="390" type="line"/>
      <point x="159" y="390" type="line"/>
    </contour>
    <contour>
      <point x="159" y="695" type="line"/>
      <point x="144" y="543" type="line"/>
      <point x="655" y="543" type="line"/>
      <point x="612" y="695" type="line"/>
    </contour>
  </outline>
</glyph>
<glyph name="Danda.dv" format="2">
  <advance width="966"/>
  <unicode hex="0964"/>
  <outline>
    <contour>
      <point x="585" y="1276" type="line"/>
      <point x="585" y="-9" type="line"/>
      <point x="381" y="-9" type="line"/>
      <point x="381" y="1309" type="line"/>
    </contour>
  </outline>
</glyph>
<glyph name="Anuswara.kn" format="2">
  <advance width="1399"/>
  <unicode hex="0C82"/>
  <outline>
    <contour>
      <point x="118" y="553" type="line" smooth="yes"/>
      <point x="118" y="216"/>
      <point x="321" y="39"/>
      <point x="700" y="39" type="curve" smooth="yes"/>
      <point x="1079" y="39"/>
      <point x="1282" y="216"/>
      <point x="1282" y="553" type="curve" smooth="yes"/>
      <point x="1282" y="562" type="line" smooth="yes"/>
      <point x="1282" y="900"/>
      <point x="1079" y="1077"/>
      <point x="700" y="1077" type="curve" smooth="yes"/>
      <point x="321" y="1077"/>
      <point x="118" y="900"/>
      <point x="118" y="562" type="curve" smooth="yes"/>
    </contour>
    <contour>
      <point x="700" y="216" type="curve" smooth="yes"/>
      <point x="454.276" y="216"/>
      <point x="325" y="333.572"/>
      <point x="325" y="555" type="curve" smooth="yes"/>
      <point x="325" y="560" type="line" smooth="yes"/>
      <point x="325" y="783.064"/>
      <point x="454.276" y="900"/>
      <point x="700" y="900" type="curve" smooth="yes"/>
      <point x="946.711" y="900"/>
      <point x="1075" y="783.064"/>
      <point x="1075" y="560" type="curve" smooth="yes"/>
      <point x="1075" y="555" type="line" smooth="yes"/>
      <point x="1075" y="333.572"/>
      <point x="946.711" y="216"/>
    </contour>
  </outline>
  <guideline angle="90" x="292" y="0"/>
  <guideline angle="0" x="0" y="1114"/>
</glyph>
<glyph name="swastisri" format="2">
  <advance width="1790"/>
  <unicode hex="0C84"/>
  <outline>
    <contour>
      <point x="1696.83" y="526.333" type="line" smooth="yes"/>
      <point x="1696.83" y="144.396"/>
      <point x="1422.94" y="-67.5"/>
      <point x="931.917" y="-67.5" type="curve" smooth="yes"/>
      <point x="398.286" y="-67.5"/>
      <point x="95.1667" y="175.603"/>
      <point x="95.1667" y="604.167" type="curve" smooth="yes"/>
      <point x="95.1667" y="607" type="line" smooth="yes"/>
      <point x="95.1667" y="1075.79"/>
      <point x="425.695" y="1338"/>
      <point x="1003.33" y="1337.83" type="curve"/>
      <point x="1020.83" y="1190.5" type="line"/>
      <point x="551.158" y="1190.5"/>
      <point x="277.333" y="983.468"/>
      <point x="277.333" y="607.583" type="curve" smooth="yes"/>
      <point x="277.333" y="604.75" type="line" smooth="yes"/>
      <point x="277.333" y="270.794"/>
      <point x="519.732" y="79.25"/>
      <point x="929.583" y="79.25" type="curve" smooth="yes"/>
      <point x="1300.52" y="79.25"/>
      <point x="1514.67" y="244.471"/>
      <point x="1514.67" y="529.833" type="curve" smooth="yes"/>
      <point x="1514.67" y="532.667" type="line" smooth="yes"/>
      <point x="1514.67" y="797.549"/>
      <point x="1344.12" y="942.917"/>
      <point x="1040.83" y="942.917" type="curve" smooth="yes"/>
      <point x="768.662" y="942.917"/>
      <point x="615" y="824.616"/>
      <point x="615" y="611.083" type="curve" smooth="yes"/>
      <point x="615" y="608.25" type="line" smooth="yes"/>
      <point x="615" y="436.706"/>
      <point x="736.271" y="337.417"/>
      <point x="936.333" y="337.417" type="curve" smooth="yes"/>
      <point x="1092.04" y="337.417"/>
      <point x="1180.08" y="409.27"/>
      <point x="1180.08" y="539.333" type="curve" smooth="yes"/>
      <point x="1180.08" y="542.167" type="line" smooth="yes"/>
      <point x="1180.08" y="639.991"/>
      <point x="1127.52" y="684.667"/>
      <point x="1041" y="684.667" type="curve" smooth="yes"/>
      <point x="978.33" y="684.667"/>
      <point x="939.25" y="659.221"/>
      <point x="939.25" y="616.333" type="curve"/>
      <point x="939.25" y="614.333" type="line"/>
      <point x="939.25" y="569.544"/>
      <point x="972.309" y="546.954"/>
      <point x="1047.67" y="546.917" type="curve"/>
      <point x="1047.67" y="445.75" type="line"/>
      <point x="1026.33" y="434.682"/>
      <point x="993.083" y="428.083"/>
      <point x="957.667" y="428.083" type="curve" smooth="yes"/>
      <point x="833.759" y="428.083"/>
      <point x="758" y="494.32"/>
      <point x="758" y="610.083" type="curve"/>
      <point x="758" y="612.083" type="line"/>
      <point x="758" y="748.212"/>
      <point x="863.914" y="830.167"/>
      <point x="1041.58" y="830.167" type="curve" smooth="yes"/>
      <point x="1240.92" y="830.167"/>
      <point x="1360.33" y="721.25"/>
      <point x="1360.33" y="537.5" type="curve" smooth="yes"/>
      <point x="1360.33" y="534.667" type="line" smooth="yes"/>
      <point x="1360.33" y="315.179"/>
      <point x="1206.45" y="190.417"/>
      <point x="936.333" y="190.417" type="curve" smooth="yes"/>
      <point x="612.86" y="190.417"/>
      <point x="433.167" y="338.576"/>
      <point x="433.167" y="604.75" type="curve" smooth="yes"/>
      <point x="433.167" y="607.583" type="line" smooth="yes"/>
      <point x="433.167" y="911.813"/>
      <point x="658.18" y="1089.92"/>
      <point x="1042" y="1089.92" type="curve" smooth="yes"/>
      <point x="1459.6" y="1089.92"/>
      <point x="1696.83" y="886.796"/>
      <point x="1696.83" y="529.167" type="curve" smooth="yes"/>
    </contour>
  </outline>
</glyph>
<glyph name="vowelLru.kn" format="2">
  <advance width="1979"/>
  <unicode hex="0C8C"/>
  <outline>
    <contour>
      <point x="463" y="-1" type="line"/>
      <point x="388" y="86.8078"/>
      <point x="324" y="206.64"/>
      <point x="324" y="343" type="curve" smooth="yes"/>
      <point x="324" y="346" type="line" smooth="yes"/>
      <point x="324" y="520.429"/>
      <point x="420.629" y="610"/>
      <point x="606" y="610" type="curve" smooth="yes"/>
      <point x="781.884" y="610"/>
      <point x="883.499" y="511.041"/>
      <point x="886" y="341" type="curve" smooth="yes"/>
      <point x="891" y="1" type="line"/>
      <point x="1087" y="1" type="line"/>
      <point x="1092" y="341" type="line" smooth="yes"/>
      <point x="1094.5" y="511.041"/>
      <point x="1196.12" y="610"/>
      <point x="1372" y="610" type="curve" smooth="yes"/>
      <point x="1557.37" y="610"/>
      <point x="1654" y="520.429"/>
      <point x="1654" y="346" type="curve" smooth="yes"/>
      <point x="1654" y="343" type="line" smooth="yes"/>
      <point x="1654" y="206.64"/>
      <point x="1590" y="86.8078"/>
      <point x="1515" y="-1" type="curve"/>
      <point x="1736" y="-1" type="line"/>
      <point x="1811" y="74"/>
      <point x="1866" y="209"/>
      <point x="1866" y="357" type="curve" smooth="yes"/>
      <point x="1866" y="361" type="line" smooth="yes"/>
      <point x="1866" y="643.965"/>
      <point x="1706.73" y="793"/>
      <point x="1418" y="793" type="curve" smooth="yes"/>
      <point x="1237.97" y="793"/>
      <point x="1122.44" y="729.139"/>
      <point x="1082" y="621" type="curve"/>
      <point x="1075" y="623" type="line"/>
      <point x="1086" y="688.976"/>
      <point x="1095" y="752.052"/>
      <point x="1095" y="835" type="curve" smooth="yes"/>
      <point x="1095" y="1148" type="line"/>
      <point x="884" y="1148" type="line"/>
      <point x="884" y="835" type="line" smooth="yes"/>
      <point x="884" y="752.058"/>
      <point x="893" y="688.976"/>
      <point x="904" y="623" type="curve"/>
      <point x="897" y="621" type="line"/>
      <point x="856.564" y="729.139"/>
      <point x="740.034" y="793"/>
      <point x="560" y="793" type="curve" smooth="yes"/>
      <point x="271.266" y="793"/>
      <point x="112" y="643.965"/>
      <point x="112" y="361" type="curve" smooth="yes"/>
      <point x="112" y="357" type="line" smooth="yes"/>
      <point x="112" y="209"/>
      <point x="167" y="74"/>
      <point x="242" y="-1" type="curve"/>
    </contour>
  </outline>
  <guideline angle="90" x="1351" y="0"/>
</glyph>
<glyph name="vowelEe.kn" format="2">
  <advance width="2021"/>
  <unicode hex="0C8F"/>
  <outline>
    <contour>
      <point x="1684" y="456" type="curve" smooth="yes"/>
      <point x="1684" y="452" type="line" smooth="yes"/>
      <point x="1684" y="255"/>
      <point x="1592.36" y="152"/>
      <point x="1415" y="152" type="curve" smooth="yes"/>
      <point x="1233.89" y="152"/>
      <point x="1150.72" y="246.671"/>
      <point x="1136" y="438" type="curve" smooth="yes"/>
      <point x="1133" y="477" type="line"/>
      <point x="912" y="477" type="line"/>
      <point x="909" y="441" type="line" smooth="yes"/>
      <point x="892.752" y="246.019"/>
      <point x="796.649" y="149"/>
      <point x="589" y="149" type="curve" smooth="yes"/>
      <point x="409.681" y="149"/>
      <point x="317" y="218.976"/>
      <point x="317" y="354" type="curve" smooth="yes"/>
      <point x="317" y="359" type="line" smooth="yes"/>
      <point x="317" y="481.382"/>
      <point x="390.712" y="546"/>
      <point x="524" y="546" type="curve" smooth="yes"/>
      <point x="599" y="546"/>
      <point x="665" y="526"/>
      <point x="710" y="498" type="curve"/>
      <point x="697" y="678" type="line"/>
      <point x="643" y="708"/>
      <point x="578" y="724"/>
      <point x="488" y="724" type="curve" smooth="yes"/>
      <point x="245" y="724"/>
      <point x="108" y="591"/>
      <point x="108" y="360" type="curve" smooth="yes"/>
      <point x="108" y="352" type="line" smooth="yes"/>
      <point x="108" y="101"/>
      <point x="270.691" y="-34"/>
      <point x="579" y="-34" type="curve" smooth="yes"/>
      <point x="858.729" y="-34"/>
      <point x="994.095" y="80.5205"/>
      <point x="1019" y="270" type="curve"/>
      <point x="1026" y="270" type="line"/>
      <point x="1048.62" y="80.5206"/>
      <point x="1176.45" y="-34"/>
      <point x="1439" y="-34" type="curve" smooth="yes"/>
      <point x="1738.69" y="-34"/>
      <point x="1896" y="134"/>
      <point x="1896" y="449" type="curve" smooth="yes"/>
      <point x="1896" y="453" type="line" smooth="yes"/>
      <point x="1896" y="949"/>
      <point x="1584" y="1193"/>
      <point x="1026" y="1220" type="curve"/>
      <point x="1063" y="1034" type="line"/>
      <point x="1461.28" y="999.06"/>
      <point x="1684" y="815.378"/>
    </contour>
    <contour>
      <point x="765" y="799" type="curve" smooth="yes"/>
      <point x="1019.6" y="799"/>
      <point x="1199" y="903.408"/>
      <point x="1199" y="1152" type="curve"/>
      <point x="1026" y="1220" type="line"/>
      <point x="1026" y="1219" type="line"/>
      <point x="1026" y="1063.22"/>
      <point x="928" y="977"/>
      <point x="764" y="977" type="curve" smooth="yes"/>
      <point x="588" y="977"/>
      <point x="492" y="1062.24"/>
      <point x="492" y="1219" type="curve" smooth="yes"/>
      <point x="492" y="1222" type="line"/>
      <point x="283" y="1198" type="line"/>
      <point x="283" y="1188" type="line" smooth="yes"/>
      <point x="283" y="929.335"/>
      <point x="460.083" y="799"/>
    </contour>
  </outline>
  <guideline angle="0" x="0" y="2372"/>
  <guideline angle="0" x="0" y="1204"/>
  <guideline angle="0" x="0" y="1464"/>
</glyph>
<glyph name="vowelAi.kn" format="2">
  <advance width="2083"/>
  <unicode hex="0C90"/>
  <outline>
    <contour>
      <point x="1439" y="1184" type="curve" smooth="yes"/>
      <point x="1186.27" y="1184"/>
      <point x="1058.44" y="1073.02"/>
      <point x="1036" y="896" type="curve"/>
      <point x="1029" y="896" type="line"/>
      <point x="1007.52" y="1073.02"/>
      <point x="878.649" y="1184"/>
      <point x="617" y="1184" type="curve" smooth="yes"/>
      <point x="308.42" y="1184"/>
      <point x="148" y="1037.35"/>
      <point x="148" y="770" type="curve"/>
      <point x="148" y="768" type="line"/>
      <point x="359" y="768" type="line"/>
      <point x="359" y="769" type="line"/>
      <point x="359" y="917.355"/>
      <point x="451.336" y="999"/>
      <point x="634" y="999" type="curve" smooth="yes"/>
      <point x="819.651" y="999"/>
      <point x="906.657" y="907.141"/>
      <point x="919" y="722" type="curve" smooth="yes"/>
      <point x="921" y="692" type="line"/>
      <point x="1142" y="692" type="line"/>
      <point x="1144" y="719" type="line" smooth="yes"/>
      <point x="1157.78" y="905.049"/>
      <point x="1245.72" y="999"/>
      <point x="1427" y="999" type="curve" smooth="yes"/>
      <point x="1635.33" y="999"/>
      <point x="1741" y="861.327"/>
      <point x="1741" y="578" type="curve" smooth="yes"/>
      <point x="1741" y="569" type="line" smooth="yes"/>
      <point x="1741" y="289"/>
      <point x="1640.34" y="152"/>
      <point x="1434" y="152" type="curve" smooth="yes"/>
      <point x="1247.05" y="152"/>
      <point x="1160.72" y="246.634"/>
      <point x="1146" y="438" type="curve" smooth="yes"/>
      <point x="1143" y="477" type="line"/>
      <point x="922" y="477" type="line"/>
      <point x="919" y="441" type="line" smooth="yes"/>
      <point x="902.751" y="246.015"/>
      <point x="806.298" y="149"/>
      <point x="598" y="149" type="curve" smooth="yes"/>
      <point x="419.341" y="149"/>
      <point x="327" y="215.562"/>
      <point x="327" y="344" type="curve" smooth="yes"/>
      <point x="327" y="349" type="line" smooth="yes"/>
      <point x="327" y="464.838"/>
      <point x="400.356" y="526"/>
      <point x="533" y="526" type="curve" smooth="yes"/>
      <point x="608" y="526"/>
      <point x="674" y="506"/>
      <point x="719" y="478" type="curve"/>
      <point x="706" y="658" type="line"/>
      <point x="652" y="688"/>
      <point x="587" y="704"/>
      <point x="497" y="704" type="curve" smooth="yes"/>
      <point x="254.639" y="704"/>
      <point x="118" y="574.654"/>
      <point x="118" y="350" type="curve" smooth="yes"/>
      <point x="118" y="342" type="line" smooth="yes"/>
      <point x="118" y="97.5026"/>
      <point x="280.345" y="-34"/>
      <point x="588" y="-34" type="curve" smooth="yes"/>
      <point x="868.364" y="-34"/>
      <point x="1004.04" y="80.5205"/>
      <point x="1029" y="270" type="curve"/>
      <point x="1036" y="270" type="line"/>
      <point x="1059.11" y="80.5206"/>
      <point x="1189.73" y="-34"/>
      <point x="1458" y="-34" type="curve" smooth="yes"/>
      <point x="1788" y="-34"/>
      <point x="1953" y="173"/>
      <point x="1953" y="568" type="curve" smooth="yes"/>
      <point x="1953" y="579" type="line" smooth="yes"/>
      <point x="1953" y="979.338"/>
      <point x="1775.55" y="1184"/>
    </contour>
  </outline>
  <guideline angle="90" x="992" y="0"/>
  <guideline angle="90" x="1030" y="0"/>
</glyph>
<glyph name="Ga.kn" format="2">
  <advance width="1654"/>
  <unicode hex="0C97"/>
  <outline>
    <contour>
      <point x="445" y="994" type="line"/>
      <point x="445" y="965.879" type="line"/>
      <point x="267.684" y="914.177"/>
      <point x="169" y="780.05"/>
      <point x="169" y="486" type="curve" smooth="yes"/>
      <point x="169" y="0" type="line"/>
      <point x="382" y="0" type="line"/>
      <point x="382" y="499" type="line" smooth="yes"/>
      <point x="382" y="831.759"/>
      <point x="530.35" y="975"/>
      <point x="827" y="975" type="curve" smooth="yes"/>
      <point x="1123.65" y="975"/>
      <point x="1272" y="831.76"/>
      <point x="1272" y="499" type="curve" smooth="yes"/>
      <point x="1272" y="0" type="line"/>
      <point x="1485" y="0" type="line"/>
      <point x="1485" y="486" type="line" smooth="yes"/>
      <point x="1485" y="779.509"/>
      <point x="1388.97" y="913.371"/>
      <point x="1211" y="964.92" type="curve"/>
      <point x="1211" y="994" type="line"/>
    </contour>
    <contour>
      <point x="151" y="1148" type="line"/>
      <point x="151" y="975" type="line"/>
      <point x="1148" y="975" type="line"/>
      <point x="1148" y="1148" type="line"/>
    </contour>
    <contour>
      <point x="1249" y="1552" type="line"/>
      <point x="1297" y="1479.1"/>
      <point x="1327" y="1391.01"/>
      <point x="1327" y="1307" type="curve" smooth="yes"/>
      <point x="1327" y="1194.16"/>
      <point x="1279.1" y="1148"/>
      <point x="1167" y="1148" type="curve" smooth="yes"/>
      <point x="1077" y="1148" type="line"/>
      <point x="1077" y="974" type="line"/>
      <point x="1237" y="974" type="line" smooth="yes"/>
      <point x="1428" y="974"/>
      <point x="1523" y="1072.2"/>
      <point x="1523" y="1277" type="curve" smooth="yes"/>
      <point x="1523" y="1375.6"/>
      <point x="1493.33" y="1474.16"/>
      <point x="1431" y="1552" type="curve"/>
    </contour>
  </outline>
  <guideline angle="90" x="840" y="0"/>
  <guideline angle="90" x="355" y="0"/>
</glyph>
<glyph name="Ttha.kn" format="2">
  <advance width="1696"/>
  <unicode hex="0CA0"/>
  <outline>
    <contour>
      <point x="427" y="993" type="line"/>
      <point x="427" y="968" type="line"/>
      <point x="233.493" y="916.117"/>
      <point x="129" y="754.47"/>
      <point x="129" y="529" type="curve" smooth="yes"/>
      <point x="129" y="520" type="line" smooth="yes"/>
      <point x="129" y="152.652"/>
      <point x="380" y="-43"/>
      <point x="848" y="-43" type="curve" smooth="yes"/>
      <point x="1316" y="-43"/>
      <point x="1567" y="152.652"/>
      <point x="1567" y="520" type="curve" smooth="yes"/>
      <point x="1567" y="529" type="line" smooth="yes"/>
      <point x="1567" y="753.956"/>
      <point x="1465.49" y="915.235"/>
      <point x="1272" y="967" type="curve"/>
      <point x="1272" y="993" type="line"/>
    </contour>
    <contour>
      <point x="129" y="1148" type="line"/>
      <point x="129" y="975" type="line"/>
      <point x="1175" y="975" type="line"/>
      <point x="1175" y="1148" type="line"/>
    </contour>
    <contour>
      <point x="849" y="742" type="curve" smooth="yes"/>
      <point x="767.325" y="742"/>
      <point x="728" y="697"/>
      <point x="728" y="580" type="curve" smooth="yes"/>
      <point x="728" y="568" type="line" smooth="yes"/>
      <point x="728" y="452"/>
      <point x="767.325" y="407"/>
      <point x="849" y="407" type="curve" smooth="yes"/>
      <point x="931" y="407"/>
      <point x="968" y="452"/>
      <point x="968" y="568" type="curve" smooth="yes"/>
      <point x="968" y="580" type="line" smooth="yes"/>
      <point x="968" y="697"/>
      <point x="931" y="742"/>
    </contour>
    <contour>
      <point x="1355" y="564" type="curve" smooth="yes"/>
      <point x="1355" y="555" type="line" smooth="yes"/>
      <point x="1355" y="285.615"/>
      <point x="1180.31" y="143"/>
      <point x="848" y="143" type="curve" smooth="yes"/>
      <point x="516.036" y="143"/>
      <point x="341" y="285.615"/>
      <point x="341" y="555" type="curve" smooth="yes"/>
      <point x="341" y="564" type="line" smooth="yes"/>
      <point x="341" y="834.349"/>
      <point x="516.036" y="975"/>
      <point x="848" y="975" type="curve" smooth="yes"/>
      <point x="1180.31" y="975"/>
      <point x="1355" y="834.349"/>
    </contour>
    <contour>
      <point x="1310" y="1552" type="line"/>
      <point x="1358" y="1479.1"/>
      <point x="1388" y="1391.01"/>
      <point x="1388" y="1307" type="curve" smooth="yes"/>
      <point x="1388" y="1194.16"/>
      <point x="1340.1" y="1148"/>
      <point x="1228" y="1148" type="curve" smooth="yes"/>
      <point x="1138" y="1148" type="line"/>
      <point x="1138" y="974" type="line"/>
      <point x="1298" y="974" type="line" smooth="yes"/>
      <point x="1489" y="974"/>
      <point x="1584" y="1072.2"/>
      <point x="1584" y="1277" type="curve" smooth="yes"/>
      <point x="1584" y="1375.6"/>
      <point x="1554.33" y="1474.16"/>
      <point x="1492" y="1552" type="curve"/>
    </contour>
  </outline>
  <guideline angle="0" x="0" y="564"/>
  <guideline angle="90" x="994" y="0"/>
  <guideline angle="90" x="530" y="0"/>
  <guideline angle="90" x="1622" y="0"/>
  <guideline angle="90" x="1304" y="0"/>
</glyph>
<glyph name="Ddha.kn" format="2">
  <advance width="2006"/>
  <unicode hex="0CA2"/>
  <outline>
    <contour>
      <point x="1690" y="334" type="line" smooth="yes"/>
      <point x="1690" y="219.826"/>
      <point x="1602.77" y="150"/>
      <point x="1438" y="150" type="curve" smooth="yes"/>
      <point x="1228.35" y="150"/>
      <point x="1134" y="245.553"/>
      <point x="1117" y="441" type="curve" smooth="yes"/>
      <point x="1115" y="464" type="line"/>
      <point x="892" y="464" type="line"/>
      <point x="890" y="441" type="line" smooth="yes"/>
      <point x="873.234" y="248.195"/>
      <point x="794.933" y="152"/>
      <point x="614" y="152" type="curve" smooth="yes"/>
      <point x="433.985" y="152"/>
      <point x="342" y="256.666"/>
      <point x="342" y="465" type="curve" smooth="yes"/>
      <point x="342" y="473" type="line" smooth="yes"/>
      <point x="342" y="804.453"/>
      <point x="554.677" y="975"/>
      <point x="970" y="975" type="curve"/>
      <point x="958" y="994" type="line"/>
      <point x="495" y="992" type="line"/>
      <point x="495" y="968" type="line"/>
      <point x="269.129" y="916.325"/>
      <point x="130" y="738.664"/>
      <point x="130" y="458" type="curve" smooth="yes"/>
      <point x="130" y="450" type="line" smooth="yes"/>
      <point x="130" y="133.144"/>
      <point x="295.735" y="-34"/>
      <point x="596" y="-34" type="curve" smooth="yes"/>
      <point x="853.817" y="-34"/>
      <point x="977.232" y="80.4578"/>
      <point x="1000" y="270" type="curve"/>
      <point x="1006" y="270" type="line"/>
      <point x="1032" y="80.4578"/>
      <point x="1172" y="-34"/>
      <point x="1459" y="-34" type="curve" smooth="yes"/>
      <point x="1748" y="-34"/>
      <point x="1902" y="94.8513"/>
      <point x="1902" y="314" type="curve" smooth="yes"/>
      <point x="1902" y="320" type="line" smooth="yes"/>
      <point x="1902" y="491.314"/>
      <point x="1802.94" y="587.197"/>
      <point x="1611" y="606" type="curve"/>
      <point x="1611" y="613" type="line"/>
      <point x="1730.83" y="626.872"/>
      <point x="1796" y="686.628"/>
      <point x="1796" y="788" type="curve"/>
      <point x="1796" y="790" type="line"/>
      <point x="1796" y="886.055"/>
      <point x="1736.7" y="951.187"/>
      <point x="1612" y="967" type="curve"/>
      <point x="1612" y="1019" type="line"/>
      <point x="1214" y="1021" type="line"/>
      <point x="1105" y="975" type="line"/>
      <point x="1435.81" y="975"/>
      <point x="1584" y="916.575"/>
      <point x="1584" y="805" type="curve"/>
      <point x="1584" y="804" type="line"/>
      <point x="1584" y="725.701"/>
      <point x="1522.5" y="694.951"/>
      <point x="1375" y="691" type="curve" smooth="yes"/>
      <point x="1263" y="688" type="line"/>
      <point x="1263" y="516" type="line"/>
      <point x="1424" y="513" type="line" smooth="yes"/>
      <point x="1600.69" y="509.708"/>
      <point x="1690" y="458.941"/>
      <point x="1690" y="339" type="curve" smooth="yes"/>
    </contour>
    <contour>
      <point x="1544" y="975" type="line"/>
      <point x="1544" y="1148" type="line"/>
      <point x="129" y="1148" type="line"/>
      <point x="129" y="975" type="line"/>
    </contour>
    <contour>
      <point x="1004" y="-423" type="curve" smooth="yes"/>
      <point x="1083" y="-423"/>
      <point x="1122" y="-373.616"/>
      <point x="1122" y="-278" type="curve" smooth="yes"/>
      <point x="1122" y="-272" type="line" smooth="yes"/>
      <point x="1122" y="-135.72"/>
      <point x="1084" y="-32.3597"/>
      <point x="1004" y="79" type="curve"/>
      <point x="925" y="-32.3597"/>
      <point x="887" y="-135.72"/>
      <point x="887" y="-272" type="curve" smooth="yes"/>
      <point x="887" y="-278" type="line" smooth="yes"/>
      <point x="887" y="-373.616"/>
      <point x="926" y="-423"/>
    </contour>
    <contour>
      <point x="1643" y="1552" type="line"/>
      <point x="1691" y="1479.1"/>
      <point x="1721" y="1391.01"/>
      <point x="1721" y="1307" type="curve" smooth="yes"/>
      <point x="1721" y="1194.16"/>
      <point x="1673.1" y="1148"/>
      <point x="1561" y="1148" type="curve" smooth="yes"/>
      <point x="1471" y="1148" type="line"/>
      <point x="1471" y="974" type="line"/>
      <point x="1631" y="974" type="line" smooth="yes"/>
      <point x="1822" y="974"/>
      <point x="1917" y="1072.2"/>
      <point x="1917" y="1277" type="curve" smooth="yes"/>
      <point x="1917" y="1375.6"/>
      <point x="1887.33" y="1474.16"/>
      <point x="1825" y="1552" type="curve"/>
    </contour>
  </outline>
  <guideline angle="90" x="110" y="0"/>
  <guideline angle="0" x="0" y="-349"/>
</glyph>
<glyph name="Na.kn" format="2">
  <advance width="1848"/>
  <unicode hex="0CA8"/>
  <outline>
    <contour>
      <point x="1264" y="-34" type="curve" smooth="yes"/>
      <point x="1554" y="-34"/>
      <point x="1717" y="132"/>
      <point x="1717" y="434" type="curve" smooth="yes"/>
      <point x="1717" y="446" type="line" smooth="yes"/>
      <point x="1717" y="746.426"/>
      <point x="1563.33" y="915.099"/>
      <point x="1294" y="967" type="curve"/>
      <point x="1294" y="989" type="line"/>
      <point x="672" y="989" type="line"/>
      <point x="672" y="974" type="line"/>
      <point x="1240.19" y="974"/>
      <point x="1505" y="799.341"/>
      <point x="1505" y="458" type="curve" smooth="yes"/>
      <point x="1505" y="444" type="line" smooth="yes"/>
      <point x="1505" y="256"/>
      <point x="1419.29" y="152"/>
      <point x="1262" y="152" type="curve" smooth="yes"/>
      <point x="1127.52" y="152"/>
      <point x="1053.77" y="211.265"/>
      <point x="984" y="345" type="curve" smooth="yes"/>
      <point x="936" y="437" type="line" smooth="yes"/>
      <point x="840.884" y="619.305"/>
      <point x="731.499" y="698"/>
      <point x="526" y="698" type="curve" smooth="yes"/>
      <point x="269" y="698"/>
      <point x="120" y="561"/>
      <point x="120" y="298" type="curve" smooth="yes"/>
      <point x="120" y="293" type="line" smooth="yes"/>
      <point x="120" y="168"/>
      <point x="151" y="55"/>
      <point x="207" y="-26" type="curve"/>
      <point x="424" y="-26" type="line"/>
      <point x="369" y="60"/>
      <point x="330" y="177"/>
      <point x="330" y="288" type="curve" smooth="yes"/>
      <point x="330" y="294" type="line" smooth="yes"/>
      <point x="330" y="438.341"/>
      <point x="402.727" y="513"/>
      <point x="530" y="513" type="curve" smooth="yes"/>
      <point x="646.483" y="513"/>
      <point x="701.238" y="464.524"/>
      <point x="771" y="325" type="curve" smooth="yes"/>
      <point x="815" y="237" type="line" smooth="yes"/>
      <point x="909.558" y="47.8843"/>
      <point x="1045.49" y="-34"/>
    </contour>
    <contour>
      <point x="1307" y="974" type="line"/>
      <point x="1302" y="1148" type="line"/>
      <point x="144" y="1148" type="line"/>
      <point x="144" y="974" type="line"/>
    </contour>
    <contour>
      <point x="1444" y="1552" type="line"/>
      <point x="1492" y="1479.1"/>
      <point x="1522" y="1391.01"/>
      <point x="1522" y="1307" type="curve" smooth="yes"/>
      <point x="1522" y="1194.16"/>
      <point x="1474.1" y="1148"/>
      <point x="1362" y="1148" type="curve" smooth="yes"/>
      <point x="1272" y="1148" type="line"/>
      <point x="1272" y="974" type="line"/>
      <point x="1432" y="974" type="line" smooth="yes"/>
      <point x="1623" y="974"/>
      <point x="1718" y="1072.2"/>
      <point x="1718" y="1277" type="curve" smooth="yes"/>
      <point x="1718" y="1375.6"/>
      <point x="1688.33" y="1474.16"/>
      <point x="1626" y="1552" type="curve"/>
    </contour>
  </outline>
  <guideline angle="0" x="0" y="987"/>
</glyph>
<glyph name="Ba.kn" format="2">
  <advance width="2072"/>
  <unicode hex="0CAC"/>
  <outline>
    <contour>
      <point x="1408" y="1163" type="curve" smooth="yes"/>
      <point x="1373" y="1163"/>
      <point x="1345" y="1161"/>
      <point x="1311" y="1156" type="curve"/>
      <point x="1311" y="972" type="line"/>
      <point x="1327" y="975"/>
      <point x="1346" y="977"/>
      <point x="1371" y="977" type="curve" smooth="yes"/>
      <point x="1605.3" y="977"/>
      <point x="1731" y="829.345"/>
      <point x="1731" y="549" type="curve" smooth="yes"/>
      <point x="1731" y="538" type="line" smooth="yes"/>
      <point x="1731" y="291.638"/>
      <point x="1632.32" y="152"/>
      <point x="1440" y="152" type="curve" smooth="yes"/>
      <point x="1254.35" y="152"/>
      <point x="1172.03" y="247.665"/>
      <point x="1156" y="440" type="curve" smooth="yes"/>
      <point x="1154" y="464" type="line"/>
      <point x="1027" y="464" type="line"/>
      <point x="1045" y="270" type="line"/>
      <point x="1068" y="80.5206"/>
      <point x="1197" y="-34"/>
      <point x="1459" y="-34" type="curve" smooth="yes"/>
      <point x="1777" y="-34"/>
      <point x="1943" y="170"/>
      <point x="1943" y="534" type="curve" smooth="yes"/>
      <point x="1943" y="548" type="line" smooth="yes"/>
      <point x="1943" y="945"/>
      <point x="1753" y="1163"/>
    </contour>
    <contour>
      <point x="610" y="1184" type="curve" smooth="yes"/>
      <point x="309" y="1184"/>
      <point x="145" y="1060"/>
      <point x="145" y="830" type="curve" smooth="yes"/>
      <point x="145" y="825" type="line" smooth="yes"/>
      <point x="145" y="762"/>
      <point x="160" y="706"/>
      <point x="184" y="666" type="curve"/>
      <point x="380" y="666" type="line"/>
      <point x="357" y="712"/>
      <point x="345" y="763"/>
      <point x="345" y="813" type="curve" smooth="yes"/>
      <point x="345" y="816" type="line" smooth="yes"/>
      <point x="345" y="942.717"/>
      <point x="435.318" y="1009"/>
      <point x="610" y="1009" type="curve" smooth="yes"/>
      <point x="769.377" y="1009"/>
      <point x="853" y="954.707"/>
      <point x="853" y="850" type="curve" smooth="yes"/>
      <point x="853" y="846" type="line" smooth="yes"/>
      <point x="853" y="761.514"/>
      <point x="797.718" y="716.823"/>
      <point x="626" y="678" type="curve" smooth="yes"/>
      <point x="511" y="652" type="line" smooth="yes"/>
      <point x="224.511" y="587.229"/>
      <point x="116" y="492.731"/>
      <point x="116" y="301" type="curve" smooth="yes"/>
      <point x="116" y="293" type="line" smooth="yes"/>
      <point x="116" y="85"/>
      <point x="279" y="-34"/>
      <point x="580" y="-34" type="curve" smooth="yes"/>
      <point x="872" y="-34"/>
      <point x="1013" y="80.5206"/>
      <point x="1038" y="270" type="curve"/>
      <point x="1056" y="270" type="line"/>
      <point x="1055" y="464" type="line"/>
      <point x="931" y="464" type="line"/>
      <point x="929" y="441" type="line" smooth="yes"/>
      <point x="912.187" y="247.646"/>
      <point x="809.652" y="151"/>
      <point x="586" y="151" type="curve" smooth="yes"/>
      <point x="413.66" y="151"/>
      <point x="325" y="206.519"/>
      <point x="325" y="301" type="curve" smooth="yes"/>
      <point x="325" y="306" type="line" smooth="yes"/>
      <point x="325" y="398.984"/>
      <point x="390.746" y="443.469"/>
      <point x="581" y="489" type="curve" smooth="yes"/>
      <point x="698" y="517" type="line" smooth="yes"/>
      <point x="953.08" y="578.045"/>
      <point x="1060" y="667.923"/>
      <point x="1060" y="844" type="curve" smooth="yes"/>
      <point x="1060" y="849" type="line" smooth="yes"/>
      <point x="1060" y="1067"/>
      <point x="902" y="1184"/>
    </contour>
  </outline>
  <guideline angle="0" x="0" y="-10080"/>
</glyph>
<glyph name="Ra.kn" format="2">
  <advance width="1696"/>
  <unicode hex="0CB0"/>
  <outline>
    <contour>
      <point x="427" y="994" type="line"/>
      <point x="427" y="968" type="line"/>
      <point x="233.493" y="916.235"/>
      <point x="129" y="753.956"/>
      <point x="129" y="529" type="curve" smooth="yes"/>
      <point x="129" y="520" type="line" smooth="yes"/>
      <point x="129" y="152.652"/>
      <point x="380" y="-43"/>
      <point x="848" y="-43" type="curve" smooth="yes"/>
      <point x="1316" y="-43"/>
      <point x="1567" y="152.652"/>
      <point x="1567" y="520" type="curve" smooth="yes"/>
      <point x="1567" y="529" type="line" smooth="yes"/>
      <point x="1567" y="753.956"/>
      <point x="1465.49" y="915.235"/>
      <point x="1272" y="967" type="curve"/>
      <point x="1272" y="994" type="line"/>
    </contour>
    <contour>
      <point x="848" y="143" type="curve" smooth="yes"/>
      <point x="516.036" y="143"/>
      <point x="341" y="285.615"/>
      <point x="341" y="555" type="curve" smooth="yes"/>
      <point x="341" y="564" type="line" smooth="yes"/>
      <point x="341" y="833.691"/>
      <point x="516.036" y="974"/>
      <point x="848" y="974" type="curve" smooth="yes"/>
      <point x="1180.31" y="974"/>
      <point x="1355" y="833.691"/>
      <point x="1355" y="564" type="curve" smooth="yes"/>
      <point x="1355" y="555" type="line" smooth="yes"/>
      <point x="1355" y="285.615"/>
      <point x="1180.31" y="143"/>
    </contour>
    <contour>
      <point x="1175" y="975" type="line"/>
      <point x="1175" y="1148" type="line"/>
      <point x="129" y="1148" type="line"/>
      <point x="129" y="975" type="line"/>
    </contour>
    <contour>
      <point x="1310" y="1552" type="line"/>
      <point x="1358" y="1479.1"/>
      <point x="1388" y="1391.01"/>
      <point x="1388" y="1307" type="curve" smooth="yes"/>
      <point x="1388" y="1194.16"/>
      <point x="1340.1" y="1148"/>
      <point x="1228" y="1148" type="curve" smooth="yes"/>
      <point x="1138" y="1148" type="line"/>
      <point x="1138" y="974" type="line"/>
      <point x="1298" y="974" type="line" smooth="yes"/>
      <point x="1489" y="974"/>
      <point x="1584" y="1072.2"/>
      <point x="1584" y="1277" type="curve" smooth="yes"/>
      <point x="1584" y="1375.6"/>
      <point x="1554.33" y="1474.16"/>
      <point x="1492" y="1552" type="curve"/>
    </contour>
  </outline>
  <guideline angle="90" x="950" y="0"/>
  <guideline angle="90" x="1622" y="0"/>
  <guideline angle="90" x="251" y="0"/>
</glyph>
<glyph name="Ha.kn" format="2">
  <advance width="2107"/>
  <unicode hex="0CB9"/>
  <outline>
    <contour>
      <point x="604" y="-34" type="curve" smooth="yes"/>
      <point x="888.879" y="-34"/>
      <point x="1019.53" y="90.2831"/>
      <point x="1049" y="265" type="curve"/>
      <point x="1055" y="265" type="line"/>
      <point x="1112.25" y="73.2356"/>
      <point x="1245.49" y="-33"/>
      <point x="1511" y="-33" type="curve" smooth="yes"/>
      <point x="1815.84" y="-33"/>
      <point x="1987" y="107.938"/>
      <point x="1987" y="377" type="curve" smooth="yes"/>
      <point x="1987" y="380" type="line" smooth="yes"/>
      <point x="1987" y="648"/>
      <point x="1818" y="795"/>
      <point x="1515" y="795" type="curve" smooth="yes"/>
      <point x="1267.35" y="795"/>
      <point x="1107.14" y="690.205"/>
      <point x="1086" y="500" type="curve"/>
      <point x="1139" y="463" type="line"/>
      <point x="1049" y="739" type="line" smooth="yes"/>
      <point x="1005.77" y="871.583"/>
      <point x="944" y="944.32"/>
      <point x="831" y="966" type="curve"/>
      <point x="831" y="986" type="line"/>
      <point x="470" y="986" type="line"/>
      <point x="470" y="974" type="line"/>
      <point x="687.416" y="974"/>
      <point x="780.392" y="917.367"/>
      <point x="842" y="725" type="curve" smooth="yes"/>
      <point x="940" y="419" type="line"/>
      <point x="914.083" y="246.238"/>
      <point x="827.36" y="149"/>
      <point x="627" y="149" type="curve" smooth="yes"/>
      <point x="439" y="149"/>
      <point x="334" y="227.844"/>
      <point x="334" y="381" type="curve"/>
      <point x="334" y="383" type="line"/>
      <point x="334" y="530.908"/>
      <point x="434.522" y="608"/>
      <point x="623" y="608" type="curve" smooth="yes"/>
      <point x="735.2" y="608"/>
      <point x="839.328" y="578.36"/>
      <point x="933" y="514" type="curve"/>
      <point x="930" y="656" type="line"/>
      <point x="861" y="638" type="line"/>
      <point x="783" y="750" type="line"/>
      <point x="724.682" y="776.694"/>
      <point x="655.419" y="788"/>
      <point x="585" y="788" type="curve" smooth="yes"/>
      <point x="287.681" y="788"/>
      <point x="124" y="644.851"/>
      <point x="124" y="374" type="curve"/>
      <point x="124" y="372" type="line"/>
      <point x="124" y="106.237"/>
      <point x="295.864" y="-34"/>
    </contour>
    <contour>
      <point x="1498" y="150" type="curve" smooth="yes"/>
      <point x="1312.57" y="150"/>
      <point x="1222.46" y="232.477"/>
      <point x="1174" y="394" type="curve" smooth="yes"/>
      <point x="1168" y="414" type="line"/>
      <point x="1190.93" y="529.467"/>
      <point x="1295.6" y="615"/>
      <point x="1484" y="615" type="curve" smooth="yes"/>
      <point x="1673" y="615"/>
      <point x="1777" y="532.795"/>
      <point x="1777" y="383" type="curve"/>
      <point x="1777" y="381" type="line"/>
      <point x="1777" y="228.213"/>
      <point x="1676" y="150"/>
    </contour>
    <contour>
      <point x="1592" y="974" type="line"/>
      <point x="1592" y="1148" type="line"/>
      <point x="130" y="1148" type="line"/>
      <point x="130" y="974" type="line"/>
    </contour>
    <contour>
      <point x="1712" y="1552" type="line"/>
      <point x="1760" y="1479.1"/>
      <point x="1790" y="1391.01"/>
      <point x="1790" y="1307" type="curve" smooth="yes"/>
      <point x="1790" y="1194.16"/>
      <point x="1742.1" y="1148"/>
      <point x="1630" y="1148" type="curve" smooth="yes"/>
      <point x="1540" y="1148" type="line"/>
      <point x="1540" y="974" type="line"/>
      <point x="1700" y="974" type="line" smooth="yes"/>
      <point x="1891" y="974"/>
      <point x="1986" y="1072.2"/>
      <point x="1986" y="1277" type="curve" smooth="yes"/>
      <point x="1986" y="1375.6"/>
      <point x="1956.33" y="1474.16"/>
      <point x="1894" y="1552" type="curve"/>
    </contour>
  </outline>
  <guideline angle="0" x="0" y="1709"/>
  <guideline angle="0" x="0" y="843"/>
</glyph>
<glyph name="Nukta1.kn" format="2">
  <unicode hex="0CBC"/>
  <anchor x="0" y="0" name="_nukta"/>
  <outline>
    <contour>
      <point x="-300" y="-149" type="curve" smooth="yes"/>
      <point x="-377.339" y="-149"/>
      <point x="-422" y="-189.017"/>
      <point x="-422" y="-267" type="curve" smooth="yes"/>
      <point x="-422" y="-344.983"/>
      <point x="-377.339" y="-385"/>
      <point x="-300" y="-385" type="curve" smooth="yes"/>
      <point x="-221.571" y="-385"/>
      <point x="-178" y="-344.983"/>
      <point x="-178" y="-267" type="curve" smooth="yes"/>
      <point x="-178" y="-189.017"/>
      <point x="-221.571" y="-149"/>
    </contour>
    <contour>
      <point x="300" y="-149" type="curve" smooth="yes"/>
      <point x="222.661" y="-149"/>
      <point x="178" y="-189.017"/>
      <point x="178" y="-267" type="curve" smooth="yes"/>
      <point x="178" y="-344.983"/>
      <point x="222.661" y="-385"/>
      <point x="300" y="-385" type="curve" smooth="yes"/>
      <point x="378.429" y="-385"/>
      <point x="422" y="-344.983"/>
      <point x="422" y="-267" type="curve" smooth="yes"/>
      <point x="422" y="-189.017"/>
      <point x="378.429" y="-149"/>
    </contour>
  </outline>
</glyph>
<glyph name="matraI.kn" format="2">
  <advance width="970"/>
  <unicode hex="0CBF"/>
  <outline>
    <contour>
      <point x="875" y="1029" type="line" smooth="yes"/>
      <point x="875" y="1290.8"/>
      <point x="713.549" y="1441"/>
      <point x="430" y="1441" type="curve" smooth="yes"/>
      <point x="184" y="1441"/>
      <point x="50" y="1336.88"/>
      <point x="50" y="1146" type="curve" smooth="yes"/>
      <point x="50" y="1142" type="line" smooth="yes"/>
      <point x="50" y="970.722"/>
      <point x="172.817" y="874"/>
      <point x="388" y="874" type="curve" smooth="yes"/>
      <point x="533.96" y="874"/>
      <point x="631.614" y="930.255"/>
      <point x="673" y="1025" type="curve"/>
      <point x="701" y="1025" type="line"/>
      <point x="687" y="1155" type="line"/>
      <point x="632.691" y="1079.06"/>
      <point x="542.498" y="1035"/>
      <point x="430" y="1035" type="curve" smooth="yes"/>
      <point x="312.956" y="1035"/>
      <point x="250" y="1075.02"/>
      <point x="250" y="1149" type="curve" smooth="yes"/>
      <point x="250" y="1153" type="line" smooth="yes"/>
      <point x="250" y="1231.48"/>
      <point x="313.9" y="1277"/>
      <point x="430" y="1277" type="curve" smooth="yes"/>
      <point x="589.962" y="1277"/>
      <point x="680" y="1187.75"/>
      <point x="680" y="1038" type="curve" smooth="yes"/>
      <point x="680" y="1023" type="line" smooth="yes"/>
      <point x="680" y="849.923"/>
      <point x="580.248" y="760"/>
      <point x="391" y="760" type="curve" smooth="yes"/>
      <point x="324.613" y="760"/>
      <point x="259.28" y="770"/>
      <point x="195" y="790" type="curve"/>
      <point x="240" y="623" type="line"/>
      <point x="289" y="610"/>
      <point x="352" y="601"/>
      <point x="412" y="601" type="curve" smooth="yes"/>
      <point x="711.588" y="601"/>
      <point x="875" y="749.821"/>
      <point x="875" y="1023" type="curve" smooth="yes"/>
    </contour>
  </outline>
  <guideline angle="90" x="131" y="0"/>
</glyph>
<glyph name="matraU.kn" format="2">
  <advance width="865"/>
  <unicode hex="0CC1"/>
  <outline>
    <contour>
      <point x="200" y="1163" type="curve" smooth="yes"/>
      <point x="165" y="1163"/>
      <point x="138" y="1161"/>
      <point x="104" y="1156" type="curve"/>
      <point x="104" y="972" type="line"/>
      <point x="121" y="975"/>
      <point x="141" y="977"/>
      <point x="164" y="977" type="curve" smooth="yes"/>
      <point x="398.305" y="977"/>
      <point x="523" y="829.345"/>
      <point x="523" y="549" type="curve" smooth="yes"/>
      <point x="523" y="541" type="line" smooth="yes"/>
      <point x="523" y="284.659"/>
      <point x="401.311" y="152"/>
      <point x="170" y="152" type="curve" smooth="yes"/>
      <point x="-39" y="152"/>
      <point x="-161" y="258.609"/>
      <point x="-161" y="433" type="curve" smooth="yes"/>
      <point x="-161" y="437" type="line"/>
      <point x="-258" y="433" type="line"/>
      <point x="-258" y="330" type="line"/>
      <point x="-249.822" y="110.413"/>
      <point x="-87.2806" y="-34"/>
      <point x="201" y="-34" type="curve" smooth="yes"/>
      <point x="550.154" y="-34"/>
      <point x="735" y="164"/>
      <point x="735" y="541" type="curve" smooth="yes"/>
      <point x="735" y="549" type="line" smooth="yes"/>
      <point x="735" y="946"/>
      <point x="545" y="1163"/>
    </contour>
  </outline>
  <guideline angle="90" x="-38" y="0"/>
  <guideline angle="90" x="-110" y="0"/>
  <guideline angle="90" x="344" y="0"/>
</glyph>
<glyph name="matraE.kn" format="2">
  <advance width="958"/>
  <unicode hex="0CC6"/>
  <outline>
    <contour>
      <point x="530" y="974" type="line" smooth="yes"/>
      <point x="769.646" y="974"/>
      <point x="901" y="1102.31"/>
      <point x="901" y="1331" type="curve" smooth="yes"/>
      <point x="901" y="1338" type="line" smooth="yes"/>
      <point x="901" y="1559.55"/>
      <point x="769.083" y="1685"/>
      <point x="530" y="1685" type="curve" smooth="yes"/>
      <point x="298.473" y="1685"/>
      <point x="172" y="1582.33"/>
      <point x="172" y="1399" type="curve" smooth="yes"/>
      <point x="172" y="1396" type="line" smooth="yes"/>
      <point x="172" y="1344.85"/>
      <point x="183.981" y="1298.52"/>
      <point x="206" y="1267" type="curve"/>
      <point x="394" y="1267" type="line"/>
      <point x="378" y="1295.45"/>
      <point x="368" y="1331.74"/>
      <point x="368" y="1370" type="curve" smooth="yes"/>
      <point x="368" y="1373" type="line" smooth="yes"/>
      <point x="368" y="1461.7"/>
      <point x="426.395" y="1512"/>
      <point x="530" y="1512" type="curve" smooth="yes"/>
      <point x="638.575" y="1512"/>
      <point x="699" y="1450.18"/>
      <point x="699" y="1342" type="curve" smooth="yes"/>
      <point x="699" y="1338" type="line" smooth="yes"/>
      <point x="699" y="1212.92"/>
      <point x="627.674" y="1148"/>
      <point x="486" y="1148" type="curve" smooth="yes"/>
      <point x="333" y="1148" type="line"/>
      <point x="336" y="974" type="line"/>
    </contour>
  </outline>
</glyph>
<glyph name="matraAu.kn" format="2">
  <advance width="1843"/>
  <unicode hex="0CCC"/>
  <outline>
    <contour>
      <point x="506" y="974" type="line" smooth="yes"/>
      <point x="688.836" y="974"/>
      <point x="792" y="1065.84"/>
      <point x="792" y="1229" type="curve" smooth="yes"/>
      <point x="792" y="1233" type="line" smooth="yes"/>
      <point x="792" y="1331.15"/>
      <point x="741" y="1395.57"/>
      <point x="649" y="1418" type="curve"/>
      <point x="649" y="1447" type="line"/>
      <point x="405" y="1446" type="line"/>
      <point x="405" y="1425" type="line"/>
      <point x="524.012" y="1425"/>
      <point x="583" y="1379.01"/>
      <point x="583" y="1288" type="curve" smooth="yes"/>
      <point x="583" y="1284" type="line" smooth="yes"/>
      <point x="583" y="1193.66"/>
      <point x="523" y="1148"/>
      <point x="403" y="1148" type="curve" smooth="yes"/>
      <point x="305" y="1148" type="line"/>
      <point x="305" y="974" type="line"/>
    </contour>
    <contour>
      <point x="1341.27" y="466" type="curve" smooth="yes"/>
      <point x="1633.38" y="466"/>
      <point x="1790" y="638.513"/>
      <point x="1790" y="961.976" type="curve" smooth="yes"/>
      <point x="1790" y="970.673" type="line"/>
      <point x="1579.33" y="958.703" type="line"/>
      <point x="1579.33" y="949.976" type="line" smooth="yes"/>
      <point x="1579.33" y="748.663"/>
      <point x="1498.11" y="644.76"/>
      <point x="1340.3" y="644.76" type="curve" smooth="yes"/>
      <point x="1205.1" y="644.76"/>
      <point x="1133.11" y="702.286"/>
      <point x="1133.11" y="805.186" type="curve" smooth="yes"/>
      <point x="1133.11" y="809.065" type="line" smooth="yes"/>
      <point x="1133.11" y="909.135"/>
      <point x="1199" y="966.552"/>
      <point x="1335.45" y="966.552" type="curve" smooth="yes"/>
      <point x="1451.16" y="966.552"/>
      <point x="1543.18" y="918.947"/>
      <point x="1599.66" y="841.914" type="curve"/>
      <point x="1613.27" y="970.673" type="line"/>
      <point x="1571.51" y="970.673" type="line"/>
      <point x="1524.29" y="1078.04"/>
      <point x="1426.76" y="1142.46"/>
      <point x="1280.08" y="1142.46" type="curve" smooth="yes"/>
      <point x="1052.69" y="1142.46"/>
      <point x="926.353" y="1020.6"/>
      <point x="926.353" y="811.004" type="curve" smooth="yes"/>
      <point x="926.353" y="808.095" type="line" smooth="yes"/>
      <point x="926.353" y="586.849"/>
      <point x="1072.91" y="466"/>
    </contour>
    <contour>
      <point x="1790" y="968" type="line"/>
      <point x="1790" y="974" type="line" smooth="yes"/>
      <point x="1790" y="1377.95"/>
      <point x="1549" y="1598"/>
      <point x="1080" y="1598" type="curve" smooth="yes"/>
      <point x="42" y="1598" type="line"/>
      <point x="42" y="1425" type="line"/>
      <point x="1075" y="1425" type="line" smooth="yes"/>
      <point x="1403.78" y="1425"/>
      <point x="1579" y="1273.38"/>
      <point x="1579" y="976" type="curve" smooth="yes"/>
      <point x="1579" y="955" type="line"/>
    </contour>
  </outline>
</glyph>
<glyph name="LllaObsolete.kn" format="2">
  <advance width="2239"/>
  <unicode hex="0CDE"/>
  <outline>
    <contour>
      <point x="123" y="589" type="line"/>
      <point x="123" y="585" type="line" smooth="yes"/>
      <point x="123" y="174.652"/>
      <point x="315.27" y="-34"/>
      <point x="675" y="-34" type="curve" smooth="yes"/>
      <point x="957.156" y="-34"/>
      <point x="1093.01" y="80.4578"/>
      <point x="1116" y="270" type="curve"/>
      <point x="1123" y="270" type="line"/>
      <point x="1145.99" y="80.4578"/>
      <point x="1281.84" y="-34"/>
      <point x="1564" y="-34" type="curve" smooth="yes"/>
      <point x="1923.73" y="-34"/>
      <point x="2116" y="174.652"/>
      <point x="2116" y="585" type="curve" smooth="yes"/>
      <point x="2116" y="589" type="line"/>
      <point x="1909" y="618" type="line"/>
      <point x="1909" y="601" type="line" smooth="yes"/>
      <point x="1909" y="302.664"/>
      <point x="1782.19" y="152"/>
      <point x="1540" y="152" type="curve" smooth="yes"/>
      <point x="1338.94" y="152"/>
      <point x="1249.95" y="248.559"/>
      <point x="1234" y="440" type="curve" smooth="yes"/>
      <point x="1232" y="464" type="line"/>
      <point x="1009" y="464" type="line"/>
      <point x="1007" y="440" type="line" smooth="yes"/>
      <point x="991.034" y="248.403"/>
      <point x="900.056" y="152"/>
      <point x="699" y="152" type="curve" smooth="yes"/>
      <point x="456.811" y="152"/>
      <point x="330" y="302.664"/>
      <point x="330" y="601" type="curve" smooth="yes"/>
      <point x="330" y="618" type="line"/>
    </contour>
    <contour>
      <point x="625" y="1184" type="curve" smooth="yes"/>
      <point x="291.738" y="1184"/>
      <point x="123" y="971.562"/>
      <point x="123" y="593" type="curve" smooth="yes"/>
      <point x="123" y="588" type="line"/>
      <point x="330" y="617" type="line"/>
      <point x="330" y="624" type="line" smooth="yes"/>
      <point x="330" y="868.084"/>
      <point x="422.098" y="1003"/>
      <point x="622" y="1003" type="curve" smooth="yes"/>
      <point x="752.378" y="1003"/>
      <point x="823" y="944.765"/>
      <point x="823" y="838" type="curve" smooth="yes"/>
      <point x="823" y="834" type="line" smooth="yes"/>
      <point x="823" y="731.385"/>
      <point x="751.212" y="673"/>
      <point x="615" y="673" type="curve" smooth="yes"/>
      <point x="481.315" y="673"/>
      <point x="375.357" y="721.246"/>
      <point x="310" y="801" type="curve"/>
      <point x="297" y="668" type="line"/>
      <point x="337" y="668" type="line"/>
      <point x="385.994" y="561.841"/>
      <point x="496.459" y="495"/>
      <point x="663" y="495" type="curve" smooth="yes"/>
      <point x="898.289" y="495"/>
      <point x="1032" y="617.255"/>
      <point x="1032" y="833" type="curve" smooth="yes"/>
      <point x="1032" y="837" type="line" smooth="yes"/>
      <point x="1032" y="1060.14"/>
      <point x="887.549" y="1184"/>
    </contour>
    <contour>
      <point x="1614" y="1184" type="curve" smooth="yes"/>
      <point x="1351.45" y="1184"/>
      <point x="1207" y="1060.14"/>
      <point x="1207" y="837" type="curve" smooth="yes"/>
      <point x="1207" y="833" type="line" smooth="yes"/>
      <point x="1207" y="617.255"/>
      <point x="1342.16" y="495"/>
      <point x="1580" y="495" type="curve" smooth="yes"/>
      <point x="1744.5" y="495"/>
      <point x="1853.61" y="561.841"/>
      <point x="1902" y="668" type="curve"/>
      <point x="1942" y="668" type="line"/>
      <point x="1929" y="801" type="line"/>
      <point x="1862.79" y="721.246"/>
      <point x="1755.44" y="673"/>
      <point x="1620" y="673" type="curve" smooth="yes"/>
      <point x="1486.41" y="673"/>
      <point x="1416" y="731.385"/>
      <point x="1416" y="834" type="curve" smooth="yes"/>
      <point x="1416" y="838" type="line" smooth="yes"/>
      <point x="1416" y="944.765"/>
      <point x="1486.62" y="1003"/>
      <point x="1617" y="1003" type="curve" smooth="yes"/>
      <point x="1816.9" y="1003"/>
      <point x="1909" y="868.084"/>
      <point x="1909" y="624" type="curve" smooth="yes"/>
      <point x="1909" y="617" type="line"/>
      <point x="2116" y="588" type="line"/>
      <point x="2116" y="593" type="line" smooth="yes"/>
      <point x="2116" y="971.562"/>
      <point x="1947.26" y="1184"/>
    </contour>
  </outline>
  <guideline angle="90" x="900" y="0"/>
</glyph>
<glyph name="matraLruu.kn" format="2">
  <unicode hex="0CE3"/>
  <outline>
    <contour>
      <point x="-571.833" y="-645.667" type="curve" smooth="yes"/>
      <point x="-711.026" y="-645.667"/>
      <point x="-789.833" y="-710.872"/>
      <point x="-789.833" y="-824.833" type="curve"/>
      <point x="-789.833" y="-826.667" type="line"/>
      <point x="-789.833" y="-942.06"/>
      <point x="-711.593" y="-1007"/>
      <point x="-575.333" y="-1007" type="curve" smooth="yes"/>
      <point x="-491.625" y="-1007"/>
      <point x="-434.205" y="-979.072"/>
      <point x="-413" y="-935.917" type="curve"/>
      <point x="-369.75" y="-935.917" type="line"/>
      <point x="-389.583" y="-828.083" type="line"/>
      <point x="-407.583" y="-866.675"/>
      <point x="-466.167" y="-888.917"/>
      <point x="-528.25" y="-888.917" type="curve" smooth="yes"/>
      <point x="-596.278" y="-888.917"/>
      <point x="-633.833" y="-866.861"/>
      <point x="-633.833" y="-827.25" type="curve"/>
      <point x="-633.833" y="-825.417" type="line"/>
      <point x="-633.833" y="-783.947"/>
      <point x="-596.428" y="-762.583"/>
      <point x="-527.667" y="-762.583" type="curve" smooth="yes"/>
      <point x="-445.583" y="-762.583"/>
      <point x="-409.417" y="-793.578"/>
      <point x="-409.417" y="-831.667" type="curve"/>
      <point x="-324.667" y="-721.25" type="line"/>
      <point x="-415.333" y="-721.25" type="line"/>
      <point x="-430.634" y="-670.546"/>
      <point x="-490.809" y="-645.667"/>
    </contour>
    <contour>
      <point x="-410.833" y="-107.583" type="line"/>
      <point x="-410.833" y="-230.167" type="line" smooth="yes"/>
      <point x="-410.833" y="-282.045"/>
      <point x="-405.167" y="-317.043"/>
      <point x="-396.75" y="-361.333" type="curve"/>
      <point x="-401.25" y="-362.083" type="line"/>
      <point x="-425.432" y="-306.683"/>
      <point x="-488.943" y="-274.25"/>
      <point x="-587" y="-274.25" type="curve" smooth="yes"/>
      <point x="-757.274" y="-274.25"/>
      <point x="-853.833" y="-357.583"/>
      <point x="-853.833" y="-512.083" type="curve"/>
      <point x="-853.833" y="-513.917" type="line"/>
      <point x="-853.833" y="-553.083"/>
      <point x="-846.833" y="-590.583"/>
      <point x="-834.417" y="-623.917" type="curve"/>
      <point x="-670.667" y="-623.917" type="line"/>
      <point x="-681.167" y="-597.583"/>
      <point x="-687.417" y="-569.417"/>
      <point x="-687.417" y="-540.167" type="curve"/>
      <point x="-687.417" y="-538.333" type="line"/>
      <point x="-687.417" y="-459"/>
      <point x="-638.167" y="-418.083"/>
      <point x="-550" y="-418.083" type="curve" smooth="yes"/>
      <point x="-462.833" y="-418.083"/>
      <point x="-414.138" y="-464.5"/>
      <point x="-413.167" y="-551.25" type="curve" smooth="yes"/>
      <point x="-407.667" y="-1042.33" type="line"/>
      <point x="-251.667" y="-1042.33" type="line"/>
      <point x="-246.167" y="-551.25" type="line" smooth="yes"/>
      <point x="-245.195" y="-464.5"/>
      <point x="-196.5" y="-418.083"/>
      <point x="-109.333" y="-418.083" type="curve" smooth="yes"/>
      <point x="-21.1666" y="-418.083"/>
      <point x="28.0834" y="-459"/>
      <point x="28.0834" y="-538.333" type="curve"/>
      <point x="28.0834" y="-540.167" type="line"/>
      <point x="28.0834" y="-569.417"/>
      <point x="21.8334" y="-597.583"/>
      <point x="11.3334" y="-623.917" type="curve"/>
      <point x="175.083" y="-623.917" type="line"/>
      <point x="187.5" y="-590.583"/>
      <point x="194.5" y="-553.083"/>
      <point x="194.5" y="-513.917" type="curve"/>
      <point x="194.5" y="-512.083" type="line"/>
      <point x="194.5" y="-357.583"/>
      <point x="97.9407" y="-274.25"/>
      <point x="-72.3333" y="-274.25" type="curve" smooth="yes"/>
      <point x="-170.39" y="-274.25"/>
      <point x="-233.901" y="-306.683"/>
      <point x="-258.083" y="-362.083" type="curve"/>
      <point x="-262.583" y="-361.333" type="line"/>
      <point x="-254.167" y="-317.043"/>
      <point x="-248.5" y="-282.045"/>
      <point x="-248.5" y="-230.167" type="curve" smooth="yes"/>
      <point x="-248.5" y="-107.583" type="line"/>
    </contour>
  </outline>
  <guideline angle="0" x="0" y="-452"/>
</glyph>
<glyph name="Shunya.kn" format="2">
  <advance width="1651"/>
  <unicode hex="0CE6"/>
  <outline>
    <contour>
      <point x="340" y="580" type="line"/>
      <point x="340" y="583" type="line" smooth="yes"/>
      <point x="340" y="863.38"/>
      <point x="505.683" y="1011"/>
      <point x="825" y="1011" type="curve" smooth="yes"/>
      <point x="1145.32" y="1011"/>
      <point x="1311" y="863.38"/>
      <point x="1311" y="583" type="curve" smooth="yes"/>
      <point x="1311" y="580" type="line"/>
      <point x="1523" y="580" type="line"/>
      <point x="1523" y="587" type="line" smooth="yes"/>
      <point x="1523" y="987"/>
      <point x="1280" y="1197"/>
      <point x="825" y="1197" type="curve" smooth="yes"/>
      <point x="371" y="1197"/>
      <point x="128" y="987"/>
      <point x="128" y="587" type="curve" smooth="yes"/>
      <point x="128" y="580" type="line"/>
    </contour>
    <contour>
      <point x="340" y="582" type="line"/>
      <point x="128" y="582" type="line"/>
      <point x="128" y="575" type="line" smooth="yes"/>
      <point x="128" y="175"/>
      <point x="371" y="-36"/>
      <point x="826" y="-36" type="curve" smooth="yes"/>
      <point x="1281" y="-36"/>
      <point x="1523" y="175"/>
      <point x="1523" y="575" type="curve" smooth="yes"/>
      <point x="1523" y="582" type="line"/>
      <point x="1311" y="582" type="line"/>
      <point x="1311" y="579" type="line" smooth="yes"/>
      <point x="1311" y="298.614"/>
      <point x="1146.32" y="150"/>
      <point x="826" y="150" type="curve" smooth="yes"/>
      <point x="505.682" y="150"/>
      <point x="340" y="298.614"/>
      <point x="340" y="579" type="curve" smooth="yes"/>
    </contour>
  </outline>
</glyph>
<glyph name="Muru.kn" format="2">
  <advance width="1596"/>
  <unicode hex="0CE9"/>
  <outline>
    <contour>
      <point x="1527" y="-28" type="curve" smooth="yes"/>
      <point x="1562" y="-28" type="line"/>
      <point x="1597" y="155" type="line"/>
      <point x="1529" y="155" type="line" smooth="yes"/>
      <point x="1318.19" y="155"/>
      <point x="1220.47" y="223.9"/>
      <point x="1148" y="347" type="curve"/>
      <point x="1135" y="370" type="line"/>
      <point x="1048" y="385" type="line"/>
      <point x="1043" y="282" type="line"/>
      <point x="1092.48" y="83"/>
      <point x="1240.9" y="-28"/>
    </contour>
    <contour>
      <point x="581" y="-34" type="curve" smooth="yes"/>
      <point x="897.351" y="-34"/>
      <point x="1102.68" y="94"/>
      <point x="1141" y="315" type="curve"/>
      <point x="1073" y="280" type="line"/>
      <point x="1152" y="279" type="line"/>
      <point x="1188" y="376"/>
      <point x="1206" y="478"/>
      <point x="1206" y="585" type="curve" smooth="yes"/>
      <point x="1206" y="589" type="line" smooth="yes"/>
      <point x="1206" y="982"/>
      <point x="1010.43" y="1184"/>
      <point x="635" y="1184" type="curve" smooth="yes"/>
      <point x="309.523" y="1184"/>
      <point x="136" y="1053"/>
      <point x="136" y="809" type="curve" smooth="yes"/>
      <point x="136" y="806" type="line" smooth="yes"/>
      <point x="136" y="761"/>
      <point x="145" y="710"/>
      <point x="164" y="674" type="curve"/>
      <point x="366" y="674" type="line"/>
      <point x="351" y="708"/>
      <point x="344" y="751"/>
      <point x="344" y="791" type="curve"/>
      <point x="344" y="792" type="line"/>
      <point x="344" y="931"/>
      <point x="448.156" y="1004"/>
      <point x="637" y="1004" type="curve" smooth="yes"/>
      <point x="872.406" y="1004"/>
      <point x="994" y="864"/>
      <point x="994" y="592" type="curve"/>
      <point x="994" y="590" type="line"/>
      <point x="994" y="504.348"/>
      <point x="981.333" y="428.656"/>
      <point x="956" y="344" type="curve"/>
      <point x="955" y="341"/>
      <point x="954" y="336"/>
      <point x="953" y="334" type="curve" smooth="yes"/>
      <point x="892.968" y="209.989"/>
      <point x="773.873" y="147"/>
      <point x="587" y="147" type="curve" smooth="yes"/>
      <point x="413.323" y="147"/>
      <point x="326" y="196.947"/>
      <point x="326" y="293" type="curve" smooth="yes"/>
      <point x="326" y="296" type="line" smooth="yes"/>
      <point x="326" y="390.324"/>
      <point x="406.333" y="437"/>
      <point x="567" y="437" type="curve" smooth="yes"/>
      <point x="740.412" y="437"/>
      <point x="898.059" y="381.471"/>
      <point x="969" y="286" type="curve"/>
      <point x="1012" y="433" type="line"/>
      <point x="932.82" y="545.337"/>
      <point x="773.506" y="617"/>
      <point x="556" y="617" type="curve" smooth="yes"/>
      <point x="265.025" y="617"/>
      <point x="114" y="508.616"/>
      <point x="114" y="297" type="curve" smooth="yes"/>
      <point x="114" y="294" type="line" smooth="yes"/>
      <point x="114" y="80.6024"/>
      <point x="276.52" y="-34"/>
    </contour>
  </outline>
</glyph>
<glyph name="Jihvamuliya.kn" format="2">
  <advance width="1438"/>
  <unicode hex="0CF1"/>
  <outline>
    <contour>
      <point x="106" y="1148" type="line"/>
      <point x="106" y="985" type="line"/>
      <point x="570" y="579" type="line"/>
      <point x="104" y="164" type="line"/>
      <point x="104" y="0" type="line"/>
      <point x="1330" y="0" type="line"/>
      <point x="1330" y="164" type="line"/>
      <point x="864" y="579" type="line"/>
      <point x="1328" y="985" type="line"/>
      <point x="1328" y="1148" type="line"/>
    </contour>
    <contour>
      <point x="374" y="982" type="line"/>
      <point x="1061" y="982" type="line"/>
      <point x="717" y="681" type="line"/>
    </contour>
    <contour>
      <point x="370" y="167" type="line"/>
      <point x="714" y="476" type="line"/>
      <point x="1064" y="167" type="line"/>
    </contour>
  </outline>
  <guideline angle="90" x="25" y="0"/>
</glyph>
<glyph name="quoteright" format="2">
  <advance width="477"/>
  <unicode hex="2019"/>
  <outline>
    <contour>
      <point x="155" y="1319" type="line"/>
      <point x="160" y="1279"/>
      <point x="163" y="1240"/>
      <point x="163" y="1197" type="curve" smooth="yes"/>
      <point x="163" y="1048"/>
      <point x="132" y="930"/>
      <point x="58" y="816" type="curve"/>
      <point x="215" y="776" type="line"/>
      <point x="328" y="902"/>
      <point x="371" y="1039"/>
      <point x="371" y="1204" type="curve" smooth="yes"/>
      <point x="371" y="1249"/>
      <point x="367" y="1293"/>
      <point x="362" y="1319" type="curve"/>
    </contour>
  </outline>
</glyph>
<glyph name="guilsinglleft" format="2">
  <advance width="734"/>
  <unicode hex="2039"/>
  <outline>
    <contour>
      <point x="696" y="875" type="line"/>
      <point x="458" y="875" type="line"/>
      <point x="76" y="504" type="line"/>
      <point x="76" y="458" type="line"/>
      <point x="458" y="75" type="line"/>
      <point x="696" y="75" type="line"/>
      <point x="303" y="475" type="line"/>
    </contour>
  </outline>
</glyph>
<glyph name="BhamatraAa.kn" format="2">
  <advance width="3192"/>
  <outline>
    <component base="BamatraAa.kn"/>
    <contour>
      <point x="1043" y="-423" type="curve" smooth="yes"/>
      <point x="1122" y="-423"/>
      <point x="1161" y="-373.616"/>
      <point x="1161" y="-278" type="curve" smooth="yes"/>
      <point x="1161" y="-272" type="line" smooth="yes"/>
      <point x="1161" y="-135.72"/>
      <point x="1123" y="-32.3597"/>
      <point x="1043" y="79" type="curve"/>
      <point x="964" y="-32.3597"/>
      <point x="926" y="-135.72"/>
      <point x="926" y="-272" type="curve" smooth="yes"/>
      <point x="926" y="-278" type="line" smooth="yes"/>
      <point x="926" y="-373.616"/>
      <point x="965" y="-423"/>
    </contour>
  </outline>
  <guideline angle="0" x="0" y="-274"/>
  <guideline angle="90" x="82" y="0"/>
</glyph>
<glyph name="BhamatraAu.kn" format="2">
  <advance width="3037"/>
  <outline>
    <component base="BamatraAu.kn"/>
    <contour>
      <point x="1042" y="-423" type="curve" smooth="yes"/>
      <point x="1121" y="-423"/>
      <point x="1160" y="-373.616"/>
      <point x="1160" y="-278" type="curve" smooth="yes"/>
      <point x="1160" y="-272" type="line" smooth="yes"/>
      <point x="1160" y="-135.72"/>
      <point x="1122" y="-32.3597"/>
      <point x="1042" y="79" type="curve"/>
      <point x="963" y="-32.3597"/>
      <point x="925" y="-135.72"/>
      <point x="925" y="-272" type="curve" smooth="yes"/>
      <point x="925" y="-278" type="line" smooth="yes"/>
      <point x="925" y="-373.616"/>
      <point x="964" y="-423"/>
    </contour>
  </outline>
  <guideline angle="0" x="0" y="-274"/>
  <guideline angle="90" x="82" y="0"/>
</glyph>
<glyph name="BhamatraE.kn" format="2">
  <advance width="2072"/>
  <outline>
    <component base="BamatraE.kn"/>
    <contour>
      <point x="1041" y="-423" type="curve" smooth="yes"/>
      <point x="1120" y="-423"/>
      <point x="1159" y="-373.616"/>
      <point x="1159" y="-278" type="curve" smooth="yes"/>
      <point x="1159" y="-272" type="line" smooth="yes"/>
      <point x="1159" y="-135.72"/>
      <point x="1121" y="-32.3597"/>
      <point x="1041" y="79" type="curve"/>
      <point x="962" y="-32.3597"/>
      <point x="924" y="-135.72"/>
      <point x="924" y="-272" type="curve" smooth="yes"/>
      <point x="924" y="-278" type="line" smooth="yes"/>
      <point x="924" y="-373.616"/>
      <point x="963" y="-423"/>
    </contour>
  </outline>
  <guideline angle="0" x="0" y="-274"/>
  <guideline angle="90" x="81" y="0"/>
</glyph>
<glyph name="Bhasmall1.kn" format="2">
  <outline>
    <component base="Basmall1.kn"/>
    <contour>
      <point x="-247.75" y="-735.667" type="curve"/>
      <point x="-314.583" y="-801.252"/>
      <point x="-339.167" y="-864.052"/>
      <point x="-339.167" y="-935.833" type="curve" smooth="yes"/>
      <point x="-339.167" y="-941.5" type="line" smooth="yes"/>
      <point x="-339.167" y="-1002.19"/>
      <point x="-309.25" y="-1034.83"/>
      <point x="-247.333" y="-1034.83" type="curve" smooth="yes"/>
      <point x="-187.75" y="-1034.83"/>
      <point x="-156.083" y="-1002.19"/>
      <point x="-156.083" y="-941.5" type="curve" smooth="yes"/>
      <point x="-156.083" y="-935.833" type="line" smooth="yes"/>
      <point x="-156.083" y="-864.052"/>
      <point x="-181.333" y="-800.431"/>
    </contour>
  </outline>
  <guideline angle="90" x="227" y="0"/>
  <guideline angle="0" x="0" y="-381"/>
  <guideline angle="90" x="43" y="0"/>
</glyph>
<glyph name="CamatraO.kn" format="2">
  <advance width="3843"/>
  <outline>
    <component base="CamatraE.kn"/>
    <contour>
      <point x="2150.18" y="152" type="curve" smooth="yes"/>
      <point x="2003.52" y="152"/>
      <point x="1932.18" y="229.072"/>
      <point x="1929.18" y="368" type="curve"/>
      <point x="1929.18" y="368"/>
      <point x="1929.18" y="368"/>
      <point x="1929.18" y="368" type="curve"/>
      <point x="1828.18" y="367" type="line"/>
      <point x="1828.18" y="297" type="line" smooth="yes"/>
      <point x="1828.18" y="80.1054"/>
      <point x="1958.99" y="-34"/>
      <point x="2188.18" y="-34" type="curve" smooth="yes"/>
      <point x="2440.95" y="-34"/>
      <point x="2576.18" y="107"/>
      <point x="2576.18" y="381" type="curve" smooth="yes"/>
      <point x="2576.18" y="481" type="line"/>
      <point x="2364.18" y="481" type="line"/>
      <point x="2364.18" y="392" type="line" smooth="yes"/>
      <point x="2364.18" y="229.037"/>
      <point x="2291.86" y="152"/>
    </contour>
    <contour>
      <point x="3039" y="1184" type="curve" smooth="yes"/>
      <point x="2596.34" y="1184"/>
      <point x="2364" y="973"/>
      <point x="2364" y="564" type="curve" smooth="yes"/>
      <point x="2364" y="471" type="line"/>
      <point x="2576" y="471" type="line"/>
      <point x="2576" y="559" type="line" smooth="yes"/>
      <point x="2576" y="850.354"/>
      <point x="2734.29" y="998"/>
      <point x="3040" y="998" type="curve" smooth="yes"/>
      <point x="3345.02" y="998"/>
      <point x="3503" y="836.362"/>
      <point x="3503" y="519" type="curve" smooth="yes"/>
      <point x="3503" y="470" type="line"/>
      <point x="3715" y="504" type="line"/>
      <point x="3715" y="513" type="line" smooth="yes"/>
      <point x="3715" y="955"/>
      <point x="3483" y="1184"/>
    </contour>
    <contour>
      <point x="3715" y="506" type="line"/>
      <point x="3503" y="472" type="line"/>
      <point x="3503" y="463" type="line" smooth="yes"/>
      <point x="3503" y="255.234"/>
      <point x="3414.66" y="148"/>
      <point x="3243" y="148" type="curve" smooth="yes"/>
      <point x="3098.14" y="148"/>
      <point x="3021" y="211.111"/>
      <point x="3021" y="324" type="curve" smooth="yes"/>
      <point x="3021" y="328" type="line" smooth="yes"/>
      <point x="3021" y="437.292"/>
      <point x="3091.66" y="500"/>
      <point x="3238" y="500" type="curve" smooth="yes"/>
      <point x="3363.69" y="500"/>
      <point x="3463.64" y="450.729"/>
      <point x="3525" y="371" type="curve"/>
      <point x="3538" y="503" type="line"/>
      <point x="3496" y="503" type="line"/>
      <point x="3445.15" y="612.375"/>
      <point x="3339" y="678"/>
      <point x="3180" y="678" type="curve" smooth="yes"/>
      <point x="2943.43" y="678"/>
      <point x="2812" y="550.059"/>
      <point x="2812" y="330" type="curve" smooth="yes"/>
      <point x="2812" y="327" type="line" smooth="yes"/>
      <point x="2812" y="94.1739"/>
      <point x="2964.59" y="-33"/>
      <point x="3244" y="-33" type="curve" smooth="yes"/>
      <point x="3550.6" y="-33"/>
      <point x="3715" y="151"/>
      <point x="3715" y="496" type="curve" smooth="yes"/>
    </contour>
  </outline>
</glyph>
<glyph name="ChamatraAa.kn" format="2">
  <advance width="3250"/>
  <outline>
    <component base="matraAa.kn" xOffset="1212"/>
    <contour>
      <point x="1996" y="508" type="curve" smooth="yes"/>
      <point x="1996" y="515" type="line" smooth="yes"/>
      <point x="1996" y="774.725"/>
      <point x="1883.5" y="923.361"/>
      <point x="1697" y="967" type="curve"/>
      <point x="1697" y="970.151"/>
      <point x="1697" y="991.359"/>
      <point x="1697" y="994" type="curve"/>
      <point x="1286" y="994" type="line"/>
      <point x="1286" y="975" type="line"/>
      <point x="1618.34" y="975"/>
      <point x="1784" y="829.626"/>
      <point x="1784" y="533" type="curve" smooth="yes"/>
      <point x="1784" y="526" type="line" smooth="yes"/>
      <point x="1784" y="277.664"/>
      <point x="1678.35" y="152"/>
      <point x="1483" y="152" type="curve" smooth="yes"/>
      <point x="1300.08" y="152"/>
      <point x="1212.96" y="248.436"/>
      <point x="1197" y="440" type="curve" smooth="yes"/>
      <point x="1195" y="464" type="line"/>
      <point x="972" y="464" type="line"/>
      <point x="970" y="440" type="line" smooth="yes"/>
      <point x="954.041" y="248.489"/>
      <point x="869.653" y="152"/>
      <point x="681" y="152" type="curve" smooth="yes"/>
      <point x="450.625" y="152"/>
      <point x="330" y="302.664"/>
      <point x="330" y="601" type="curve" smooth="yes"/>
      <point x="330" y="618" type="line"/>
      <point x="123" y="589" type="line"/>
      <point x="123" y="585" type="line" smooth="yes"/>
      <point x="123" y="174.652"/>
      <point x="309" y="-34"/>
      <point x="657" y="-34" type="curve" smooth="yes"/>
      <point x="927" y="-34"/>
      <point x="1057" y="80.4578"/>
      <point x="1079" y="270" type="curve"/>
      <point x="1086" y="270" type="line"/>
      <point x="1108.78" y="79.8852"/>
      <point x="1242.51" y="-34"/>
      <point x="1506" y="-34" type="curve" smooth="yes"/>
      <point x="1823.59" y="-34"/>
      <point x="1996" y="151.77"/>
    </contour>
    <contour>
      <point x="1632" y="975" type="line"/>
      <point x="1632" y="1148" type="line"/>
      <point x="1173" y="1148" type="line"/>
      <point x="1173" y="975" type="line"/>
    </contour>
    <contour>
      <point x="628" y="1184" type="curve" smooth="yes"/>
      <point x="292.747" y="1184"/>
      <point x="123" y="971.562"/>
      <point x="123" y="593" type="curve" smooth="yes"/>
      <point x="123" y="588" type="line"/>
      <point x="330" y="617" type="line"/>
      <point x="330" y="624" type="line" smooth="yes"/>
      <point x="330" y="868.084"/>
      <point x="423.044" y="1003"/>
      <point x="625" y="1003" type="curve" smooth="yes"/>
      <point x="756.676" y="1003"/>
      <point x="828" y="944.765"/>
      <point x="828" y="838" type="curve" smooth="yes"/>
      <point x="828" y="834" type="line" smooth="yes"/>
      <point x="828" y="731.385"/>
      <point x="755.522" y="673"/>
      <point x="618" y="673" type="curve" smooth="yes"/>
      <point x="483" y="673"/>
      <point x="376" y="721.246"/>
      <point x="310" y="801" type="curve"/>
      <point x="297" y="668" type="line"/>
      <point x="337" y="668" type="line"/>
      <point x="386.445" y="561.841"/>
      <point x="497.926" y="495"/>
      <point x="666" y="495" type="curve" smooth="yes"/>
      <point x="902.565" y="495"/>
      <point x="1037" y="617.255"/>
      <point x="1037" y="833" type="curve" smooth="yes"/>
      <point x="1037" y="837" type="line" smooth="yes"/>
      <point x="1037" y="1060.14"/>
      <point x="891.839" y="1184"/>
    </contour>
    <contour>
      <point x="1084" y="-423" type="curve" smooth="yes"/>
      <point x="1163" y="-423"/>
      <point x="1202" y="-373.616"/>
      <point x="1202" y="-278" type="curve" smooth="yes"/>
      <point x="1202" y="-272" type="line" smooth="yes"/>
      <point x="1202" y="-135.72"/>
      <point x="1164" y="-32.3597"/>
      <point x="1084" y="79" type="curve"/>
      <point x="1005" y="-32.3597"/>
      <point x="967" y="-135.72"/>
      <point x="967" y="-272" type="curve" smooth="yes"/>
      <point x="967" y="-278" type="line" smooth="yes"/>
      <point x="967" y="-373.616"/>
      <point x="1006" y="-423"/>
    </contour>
  </outline>
  <guideline angle="90" x="839" y="0"/>
  <guideline angle="90" x="413" y="0"/>
  <guideline angle="90" x="-151" y="0"/>
  <guideline angle="0" x="0" y="-274"/>
  <guideline angle="90" x="780" y="0"/>
</glyph>
<glyph name="ChamatraI.kn.1" format="2">
  <advance width="2157"/>
  <outline>
    <contour>
      <point x="628" y="1184" type="curve" smooth="yes"/>
      <point x="292.747" y="1184"/>
      <point x="123" y="971.562"/>
      <point x="123" y="593" type="curve" smooth="yes"/>
      <point x="123" y="588" type="line"/>
      <point x="330" y="617" type="line"/>
      <point x="330" y="624" type="line" smooth="yes"/>
      <point x="330" y="868.084"/>
      <point x="423.044" y="1003"/>
      <point x="625" y="1003" type="curve" smooth="yes"/>
      <point x="756.676" y="1003"/>
      <point x="828" y="944.765"/>
      <point x="828" y="838" type="curve" smooth="yes"/>
      <point x="828" y="834" type="line" smooth="yes"/>
      <point x="828" y="731.385"/>
      <point x="755.522" y="673"/>
      <point x="618" y="673" type="curve" smooth="yes"/>
      <point x="483" y="673"/>
      <point x="376" y="721.246"/>
      <point x="310" y="801" type="curve"/>
      <point x="297" y="668" type="line"/>
      <point x="337" y="668" type="line"/>
      <point x="386.445" y="561.841"/>
      <point x="497.926" y="495"/>
      <point x="666" y="495" type="curve" smooth="yes"/>
      <point x="902.565" y="495"/>
      <point x="1037" y="617.255"/>
      <point x="1037" y="833" type="curve" smooth="yes"/>
      <point x="1037" y="837" type="line" smooth="yes"/>
      <point x="1037" y="1060.14"/>
      <point x="891.839" y="1184"/>
    </contour>
    <contour>
      <point x="2027" y="676" type="curve" smooth="yes"/>
      <point x="2027" y="682" type="line" smooth="yes"/>
      <point x="2027" y="1120.72"/>
      <point x="1870.51" y="1376"/>
      <point x="1520" y="1376" type="curve" smooth="yes"/>
      <point x="1266.95" y="1376"/>
      <point x="1130" y="1259.88"/>
      <point x="1130" y="1048" type="curve" smooth="yes"/>
      <point x="1130" y="1044" type="line" smooth="yes"/>
      <point x="1130" y="844.63"/>
      <point x="1267.48" y="731"/>
      <point x="1507" y="731" type="curve" smooth="yes"/>
      <point x="1691.44" y="731"/>
      <point x="1801.69" y="821.325"/>
      <point x="1846" y="948" type="curve"/>
      <point x="1810" y="1077" type="line"/>
      <point x="1757.05" y="969.191"/>
      <point x="1661.09" y="895"/>
      <point x="1521" y="895" type="curve" smooth="yes"/>
      <point x="1397.66" y="895"/>
      <point x="1332" y="947.076"/>
      <point x="1332" y="1041" type="curve" smooth="yes"/>
      <point x="1332" y="1045" type="line" smooth="yes"/>
      <point x="1332" y="1150.35"/>
      <point x="1398.92" y="1207"/>
      <point x="1519" y="1207" type="curve" smooth="yes"/>
      <point x="1723.02" y="1207"/>
      <point x="1815" y="1033.47"/>
      <point x="1815" y="680" type="curve" smooth="yes"/>
      <point x="1815" y="674" type="line" smooth="yes"/>
      <point x="1815" y="327.392"/>
      <point x="1702.47" y="152"/>
      <point x="1483" y="152" type="curve" smooth="yes"/>
      <point x="1303.28" y="152"/>
      <point x="1217.96" y="248.459"/>
      <point x="1202" y="440" type="curve" smooth="yes"/>
      <point x="1200" y="464" type="line"/>
      <point x="977" y="464" type="line"/>
      <point x="975" y="440" type="line" smooth="yes"/>
      <point x="959.04" y="248.48"/>
      <point x="873.958" y="152"/>
      <point x="684" y="152" type="curve" smooth="yes"/>
      <point x="451.656" y="152"/>
      <point x="330" y="302.664"/>
      <point x="330" y="601" type="curve" smooth="yes"/>
      <point x="330" y="618" type="line"/>
      <point x="123" y="589" type="line"/>
      <point x="123" y="585" type="line" smooth="yes"/>
      <point x="123" y="174.652"/>
      <point x="310.045" y="-34"/>
      <point x="660" y="-34" type="curve" smooth="yes"/>
      <point x="931.28" y="-34"/>
      <point x="1061.9" y="80.4578"/>
      <point x="1084" y="270" type="curve"/>
      <point x="1091" y="270" type="line"/>
      <point x="1113.51" y="79.8852"/>
      <point x="1245.65" y="-34"/>
      <point x="1506" y="-34" type="curve" smooth="yes"/>
      <point x="1849.69" y="-34"/>
      <point x="2027" y="209.352"/>
    </contour>
    <contour>
      <point x="1087" y="-423" type="curve" smooth="yes"/>
      <point x="1166" y="-423"/>
      <point x="1205" y="-373.616"/>
      <point x="1205" y="-278" type="curve" smooth="yes"/>
      <point x="1205" y="-272" type="line" smooth="yes"/>
      <point x="1205" y="-135.72"/>
      <point x="1167" y="-32.3597"/>
      <point x="1087" y="79" type="curve"/>
      <point x="1008" y="-32.3597"/>
      <point x="970" y="-135.72"/>
      <point x="970" y="-272" type="curve" smooth="yes"/>
      <point x="970" y="-278" type="line" smooth="yes"/>
      <point x="970" y="-373.616"/>
      <point x="1009" y="-423"/>
    </contour>
  </outline>
  <guideline angle="0" x="0" y="-274"/>
</glyph>
<glyph name="ChamatraI.kn" format="2">
  <advance width="2157"/>
  <outline>
    <contour>
      <point x="628" y="1184" type="curve" smooth="yes"/>
      <point x="292.747" y="1184"/>
      <point x="123" y="971.562"/>
      <point x="123" y="593" type="curve" smooth="yes"/>
      <point x="123" y="588" type="line"/>
      <point x="330" y="617" type="line"/>
      <point x="330" y="624" type="line" smooth="yes"/>
      <point x="330" y="868.084"/>
      <point x="423.044" y="1003"/>
      <point x="625" y="1003" type="curve" smooth="yes"/>
      <point x="756.676" y="1003"/>
      <point x="828" y="944.765"/>
      <point x="828" y="838" type="curve" smooth="yes"/>
      <point x="828" y="834" type="line" smooth="yes"/>
      <point x="828" y="731.385"/>
      <point x="755.522" y="673"/>
      <point x="618" y="673" type="curve" smooth="yes"/>
      <point x="483" y="673"/>
      <point x="376" y="721.246"/>
      <point x="310" y="801" type="curve"/>
      <point x="297" y="668" type="line"/>
      <point x="337" y="668" type="line"/>
      <point x="386.445" y="561.841"/>
      <point x="497.926" y="495"/>
      <point x="666" y="495" type="curve" smooth="yes"/>
      <point x="902.565" y="495"/>
      <point x="1037" y="617.255"/>
      <point x="1037" y="833" type="curve" smooth="yes"/>
      <point x="1037" y="837" type="line" smooth="yes"/>
      <point x="1037" y="1060.14"/>
      <point x="891.839" y="1184"/>
    </contour>
    <contour>
      <point x="2027" y="676" type="curve" smooth="yes"/>
      <point x="2027" y="682" type="line" smooth="yes"/>
      <point x="2027" y="781.393"/>
      <point x="2019.34" y="870.6"/>
      <point x="2003.65" y="950.827" type="curve" smooth="yes"/>
      <point x="1950.3" y="1223.5"/>
      <point x="1793.02" y="1376"/>
      <point x="1519.98" y="1376" type="curve" smooth="yes"/>
      <point x="1266.93" y="1376"/>
      <point x="1129.98" y="1259.88"/>
      <point x="1129.98" y="1048" type="curve" smooth="yes"/>
      <point x="1129.98" y="1044" type="line" smooth="yes"/>
      <point x="1129.98" y="844.63"/>
      <point x="1263.82" y="731"/>
      <point x="1496.98" y="731" type="curve" smooth="yes"/>
      <point x="1645.46" y="731"/>
      <point x="1758.81" y="793.597"/>
      <point x="1797.16" y="880.069" type="curve"/>
      <point x="1849.83" y="880.069" type="line"/>
      <point x="1809.98" y="1077" type="line"/>
      <point x="1757.04" y="969.191"/>
      <point x="1661.07" y="895"/>
      <point x="1520.98" y="895" type="curve" smooth="yes"/>
      <point x="1397.65" y="895"/>
      <point x="1331.98" y="947.076"/>
      <point x="1331.98" y="1041" type="curve" smooth="yes"/>
      <point x="1331.98" y="1045" type="line" smooth="yes"/>
      <point x="1331.98" y="1150.35"/>
      <point x="1398.9" y="1207"/>
      <point x="1518.98" y="1207" type="curve" smooth="yes"/>
      <point x="1656.5" y="1207"/>
      <point x="1743.11" y="1129.51"/>
      <point x="1784.97" y="972.599" type="curve" smooth="yes"/>
      <point x="1786.27" y="967.712"/>
      <point x="1787.53" y="962.747"/>
      <point x="1788.75" y="957.705" type="curve" smooth="yes"/>
      <point x="1790.18" y="951.795"/>
      <point x="1791.54" y="945.78"/>
      <point x="1792.85" y="939.659" type="curve"/>
      <point x="1793.07" y="938.795"/>
      <point x="1797.65" y="920.895"/>
      <point x="1797.87" y="920.031" type="curve"/>
      <point x="1803.02" y="885.249" type="line" smooth="yes"/>
      <point x="1811.88" y="825.382"/>
      <point x="1815" y="757.534"/>
      <point x="1815" y="680" type="curve" smooth="yes"/>
      <point x="1815" y="674" type="line" smooth="yes"/>
      <point x="1815" y="327.392"/>
      <point x="1702.47" y="152"/>
      <point x="1483" y="152" type="curve" smooth="yes"/>
      <point x="1303.28" y="152"/>
      <point x="1217.96" y="248.459"/>
      <point x="1202" y="440" type="curve" smooth="yes"/>
      <point x="1200" y="464" type="line"/>
      <point x="977" y="464" type="line"/>
      <point x="975" y="440" type="line" smooth="yes"/>
      <point x="959.04" y="248.48"/>
      <point x="873.958" y="152"/>
      <point x="684" y="152" type="curve" smooth="yes"/>
      <point x="451.656" y="152"/>
      <point x="330" y="302.664"/>
      <point x="330" y="601" type="curve" smooth="yes"/>
      <point x="330" y="618" type="line"/>
      <point x="123" y="589" type="line"/>
      <point x="123" y="585" type="line" smooth="yes"/>
      <point x="123" y="174.652"/>
      <point x="310.045" y="-34"/>
      <point x="660" y="-34" type="curve" smooth="yes"/>
      <point x="931.28" y="-34"/>
      <point x="1061.9" y="80.4578"/>
      <point x="1084" y="270" type="curve"/>
      <point x="1091" y="270" type="line"/>
      <point x="1113.51" y="79.8852"/>
      <point x="1245.65" y="-34"/>
      <point x="1506" y="-34" type="curve" smooth="yes"/>
      <point x="1849.69" y="-34"/>
      <point x="2027" y="209.352"/>
    </contour>
    <contour>
      <point x="1087" y="-423" type="curve" smooth="yes"/>
      <point x="1166" y="-423"/>
      <point x="1205" y="-373.616"/>
      <point x="1205" y="-278" type="curve" smooth="yes"/>
      <point x="1205" y="-272" type="line" smooth="yes"/>
      <point x="1205" y="-135.72"/>
      <point x="1167" y="-32.3597"/>
      <point x="1087" y="79" type="curve"/>
      <point x="1008" y="-32.3597"/>
      <point x="970" y="-135.72"/>
      <point x="970" y="-272" type="curve" smooth="yes"/>
      <point x="970" y="-278" type="line" smooth="yes"/>
      <point x="970" y="-373.616"/>
      <point x="1009" y="-423"/>
    </contour>
  </outline>
  <guideline angle="0" x="0" y="-274"/>
</glyph>
<glyph name="Dasmall1.kn" format="2">
  <outline>
    <contour>
      <point x="-350.5" y="-489.667" type="line"/>
      <point x="-352.667" y="-510.667" type="line" smooth="yes"/>
      <point x="-361.429" y="-595.595"/>
      <point x="-401.124" y="-643.75"/>
      <point x="-489.25" y="-643.75" type="curve" smooth="yes"/>
      <point x="-579.233" y="-643.75"/>
      <point x="-627.75" y="-594.382"/>
      <point x="-627.75" y="-505.667" type="curve" smooth="yes"/>
      <point x="-627.75" y="-499.167" type="line" smooth="yes"/>
      <point x="-627.75" y="-352.081"/>
      <point x="-508.335" y="-278.083"/>
      <point x="-267.75" y="-278.083" type="curve" smooth="yes"/>
      <point x="-28" y="-278.083"/>
      <point x="91.0833" y="-352.081"/>
      <point x="91.0833" y="-499.167" type="curve" smooth="yes"/>
      <point x="91.0833" y="-505.667" type="line" smooth="yes"/>
      <point x="91.0833" y="-594.382"/>
      <point x="42.9167" y="-643.75"/>
      <point x="-46.4167" y="-643.75" type="curve" smooth="yes"/>
      <point x="-135.188" y="-643.75"/>
      <point x="-175.237" y="-595.602"/>
      <point x="-184" y="-510.667" type="curve" smooth="yes"/>
      <point x="-186.167" y="-489.667" type="line"/>
    </contour>
    <contour>
      <point x="-268.333" y="-134" type="curve" smooth="yes"/>
      <point x="-611.333" y="-134"/>
      <point x="-794.75" y="-260.5"/>
      <point x="-794.75" y="-503.833" type="curve" smooth="yes"/>
      <point x="-794.75" y="-510.333" type="line" smooth="yes"/>
      <point x="-794.75" y="-691.167"/>
      <point x="-694.707" y="-787.833"/>
      <point x="-503.917" y="-787.833" type="curve" smooth="yes"/>
      <point x="-368.815" y="-787.833"/>
      <point x="-293.44" y="-738.155"/>
      <point x="-270.5" y="-641.917" type="curve"/>
      <point x="-266.167" y="-641.917" type="line"/>
      <point x="-243.226" y="-738.155"/>
      <point x="-167.849" y="-787.833"/>
      <point x="-32.3333" y="-787.833" type="curve" smooth="yes"/>
      <point x="158.457" y="-787.833"/>
      <point x="258.5" y="-691.167"/>
      <point x="258.5" y="-510.333" type="curve" smooth="yes"/>
      <point x="258.5" y="-503.833" type="line" smooth="yes"/>
      <point x="258.5" y="-260.5"/>
      <point x="75.0833" y="-134"/>
    </contour>
  </outline>
</glyph>
<glyph name="DdamatraE.kn" format="2">
  <advance width="2007"/>
  <outline>
    <component base="matraE.kn" xOffset="1030.85"/>
    <contour>
      <point x="1690" y="334" type="line" smooth="yes"/>
      <point x="1690" y="219.826"/>
      <point x="1602.77" y="150"/>
      <point x="1438" y="150" type="curve" smooth="yes"/>
      <point x="1228.35" y="150"/>
      <point x="1134" y="245.553"/>
      <point x="1117" y="441" type="curve" smooth="yes"/>
      <point x="1115" y="464" type="line"/>
      <point x="892" y="464" type="line"/>
      <point x="890" y="441" type="line" smooth="yes"/>
      <point x="873.234" y="248.195"/>
      <point x="794.933" y="152"/>
      <point x="614" y="152" type="curve" smooth="yes"/>
      <point x="433.985" y="152"/>
      <point x="342" y="256.666"/>
      <point x="342" y="465" type="curve" smooth="yes"/>
      <point x="342" y="473" type="line" smooth="yes"/>
      <point x="342" y="803.135"/>
      <point x="554.677" y="975"/>
      <point x="970" y="975" type="curve"/>
      <point x="958" y="994" type="line"/>
      <point x="495" y="992" type="line"/>
      <point x="495" y="968" type="line"/>
      <point x="269.129" y="916.527"/>
      <point x="130" y="737.565"/>
      <point x="130" y="458" type="curve" smooth="yes"/>
      <point x="130" y="450" type="line" smooth="yes"/>
      <point x="130" y="133.144"/>
      <point x="295.735" y="-34"/>
      <point x="596" y="-34" type="curve" smooth="yes"/>
      <point x="853.817" y="-34"/>
      <point x="977.232" y="80.4578"/>
      <point x="1000" y="270" type="curve"/>
      <point x="1006" y="270" type="line"/>
      <point x="1032" y="80.4578"/>
      <point x="1172" y="-34"/>
      <point x="1459" y="-34" type="curve" smooth="yes"/>
      <point x="1748" y="-34"/>
      <point x="1902" y="94.8513"/>
      <point x="1902" y="314" type="curve" smooth="yes"/>
      <point x="1902" y="320" type="line" smooth="yes"/>
      <point x="1902" y="491.913"/>
      <point x="1802.94" y="588.131"/>
      <point x="1611" y="607" type="curve"/>
      <point x="1611" y="614" type="line"/>
      <point x="1730.83" y="627.793"/>
      <point x="1796" y="687.207"/>
      <point x="1796" y="788" type="curve"/>
      <point x="1796" y="790" type="line"/>
      <point x="1796" y="886.055"/>
      <point x="1736.7" y="953.187"/>
      <point x="1612" y="969" type="curve"/>
      <point x="1612" y="1019" type="line"/>
      <point x="1214" y="1021" type="line"/>
      <point x="1105" y="975" type="line"/>
      <point x="1435.81" y="975"/>
      <point x="1584" y="915.27"/>
      <point x="1584" y="805" type="curve"/>
      <point x="1584" y="804" type="line"/>
      <point x="1584" y="725.701"/>
      <point x="1522.5" y="694.951"/>
      <point x="1375" y="691" type="curve" smooth="yes"/>
      <point x="1263" y="688" type="line"/>
      <point x="1263" y="516" type="line"/>
      <point x="1424" y="513" type="line" smooth="yes"/>
      <point x="1600.69" y="509.708"/>
      <point x="1690" y="458.941"/>
      <point x="1690" y="339" type="curve" smooth="yes"/>
    </contour>
    <contour>
      <point x="1544" y="975" type="line"/>
      <point x="1544" y="1148" type="line"/>
      <point x="129" y="1148" type="line"/>
      <point x="129" y="975" type="line"/>
    </contour>
  </outline>
  <guideline angle="90" x="-666" y="0"/>
</glyph>
<glyph name="DdamatraO.kn" format="2">
  <advance width="3811"/>
  <outline>
    <component base="DdamatraE.kn"/>
    <contour>
      <point x="2118.18" y="152" type="curve" smooth="yes"/>
      <point x="1971.52" y="152"/>
      <point x="1900.18" y="229.072"/>
      <point x="1897.18" y="368" type="curve"/>
      <point x="1897.18" y="368"/>
      <point x="1897.18" y="368"/>
      <point x="1897.18" y="368" type="curve"/>
      <point x="1796.18" y="367" type="line"/>
      <point x="1796.18" y="297" type="line" smooth="yes"/>
      <point x="1796.18" y="80.1054"/>
      <point x="1926.99" y="-34"/>
      <point x="2156.18" y="-34" type="curve" smooth="yes"/>
      <point x="2408.95" y="-34"/>
      <point x="2544.18" y="107"/>
      <point x="2544.18" y="381" type="curve" smooth="yes"/>
      <point x="2544.18" y="481" type="line"/>
      <point x="2332.18" y="481" type="line"/>
      <point x="2332.18" y="392" type="line" smooth="yes"/>
      <point x="2332.18" y="229.037"/>
      <point x="2259.86" y="152"/>
    </contour>
    <contour>
      <point x="3007" y="1184" type="curve" smooth="yes"/>
      <point x="2564.34" y="1184"/>
      <point x="2332" y="973"/>
      <point x="2332" y="564" type="curve" smooth="yes"/>
      <point x="2332" y="471" type="line"/>
      <point x="2544" y="471" type="line"/>
      <point x="2544" y="559" type="line" smooth="yes"/>
      <point x="2544" y="850.354"/>
      <point x="2702.29" y="998"/>
      <point x="3008" y="998" type="curve" smooth="yes"/>
      <point x="3313.02" y="998"/>
      <point x="3471" y="836.362"/>
      <point x="3471" y="519" type="curve" smooth="yes"/>
      <point x="3471" y="470" type="line"/>
      <point x="3683" y="504" type="line"/>
      <point x="3683" y="513" type="line" smooth="yes"/>
      <point x="3683" y="955"/>
      <point x="3451" y="1184"/>
    </contour>
    <contour>
      <point x="3683" y="506" type="line"/>
      <point x="3471" y="472" type="line"/>
      <point x="3471" y="463" type="line" smooth="yes"/>
      <point x="3471" y="255.234"/>
      <point x="3382.66" y="148"/>
      <point x="3211" y="148" type="curve" smooth="yes"/>
      <point x="3066.14" y="148"/>
      <point x="2989" y="211.111"/>
      <point x="2989" y="324" type="curve" smooth="yes"/>
      <point x="2989" y="328" type="line" smooth="yes"/>
      <point x="2989" y="437.292"/>
      <point x="3059.66" y="500"/>
      <point x="3206" y="500" type="curve" smooth="yes"/>
      <point x="3331.69" y="500"/>
      <point x="3431.64" y="450.729"/>
      <point x="3493" y="371" type="curve"/>
      <point x="3506" y="503" type="line"/>
      <point x="3464" y="503" type="line"/>
      <point x="3413.15" y="612.375"/>
      <point x="3307" y="678"/>
      <point x="3148" y="678" type="curve" smooth="yes"/>
      <point x="2911.43" y="678"/>
      <point x="2780" y="550.059"/>
      <point x="2780" y="330" type="curve" smooth="yes"/>
      <point x="2780" y="327" type="line" smooth="yes"/>
      <point x="2780" y="94.1739"/>
      <point x="2932.59" y="-33"/>
      <point x="3212" y="-33" type="curve" smooth="yes"/>
      <point x="3518.6" y="-33"/>
      <point x="3683" y="151"/>
      <point x="3683" y="496" type="curve" smooth="yes"/>
    </contour>
  </outline>
</glyph>
<glyph name="DdamatraU.kn" format="2">
  <advance width="2920"/>
  <outline>
    <component base="Dda.kn"/>
    <contour>
      <point x="2255" y="1163" type="curve" smooth="yes"/>
      <point x="2220" y="1163"/>
      <point x="2193" y="1161"/>
      <point x="2159" y="1156" type="curve"/>
      <point x="2159" y="972" type="line"/>
      <point x="2176" y="975"/>
      <point x="2196" y="977"/>
      <point x="2219" y="977" type="curve" smooth="yes"/>
      <point x="2453.31" y="977"/>
      <point x="2578" y="829.345"/>
      <point x="2578" y="549" type="curve" smooth="yes"/>
      <point x="2578" y="541" type="line" smooth="yes"/>
      <point x="2578" y="284.659"/>
      <point x="2456.31" y="152"/>
      <point x="2225" y="152" type="curve" smooth="yes"/>
      <point x="2016" y="152"/>
      <point x="1902" y="242.684"/>
      <point x="1894" y="391" type="curve"/>
      <point x="1893.63" y="391.376" type="line"/>
      <point x="1800" y="390" type="line"/>
      <point x="1800" y="297" type="line"/>
      <point x="1808.05" y="97.3206"/>
      <point x="1968.12" y="-34"/>
      <point x="2252" y="-34" type="curve" smooth="yes"/>
      <point x="2603.77" y="-34"/>
      <point x="2790" y="164"/>
      <point x="2790" y="541" type="curve" smooth="yes"/>
      <point x="2790" y="549" type="line" smooth="yes"/>
      <point x="2790" y="946"/>
      <point x="2600" y="1163"/>
    </contour>
  </outline>
</glyph>
<glyph name="DdhamatraE.kn" format="2">
  <advance width="2006"/>
  <outline>
    <component base="DdamatraE.kn"/>
    <contour>
      <point x="1003" y="-423" type="curve" smooth="yes"/>
      <point x="1082" y="-423"/>
      <point x="1121" y="-373.616"/>
      <point x="1121" y="-278" type="curve" smooth="yes"/>
      <point x="1121" y="-272" type="line" smooth="yes"/>
      <point x="1121" y="-135.72"/>
      <point x="1083" y="-32.3597"/>
      <point x="1003" y="79" type="curve"/>
      <point x="924" y="-32.3597"/>
      <point x="886" y="-135.72"/>
      <point x="886" y="-272" type="curve" smooth="yes"/>
      <point x="886" y="-278" type="line" smooth="yes"/>
      <point x="886" y="-373.616"/>
      <point x="925" y="-423"/>
    </contour>
  </outline>
  <guideline angle="0" x="0" y="-274"/>
  <guideline angle="90" x="110" y="0"/>
</glyph>
<glyph name="DdhamatraU.kn" format="2">
  <advance width="2920"/>
  <outline>
    <component base="DdamatraU.kn"/>
    <contour>
      <point x="1006" y="-423" type="curve" smooth="yes"/>
      <point x="1085" y="-423"/>
      <point x="1124" y="-373.616"/>
      <point x="1124" y="-278" type="curve" smooth="yes"/>
      <point x="1124" y="-272" type="line" smooth="yes"/>
      <point x="1124" y="-135.72"/>
      <point x="1086" y="-32.3597"/>
      <point x="1006" y="79" type="curve"/>
      <point x="927" y="-32.3597"/>
      <point x="889" y="-135.72"/>
      <point x="889" y="-272" type="curve" smooth="yes"/>
      <point x="889" y="-278" type="line" smooth="yes"/>
      <point x="889" y="-373.616"/>
      <point x="928" y="-423"/>
    </contour>
  </outline>
  <guideline angle="0" x="0" y="-274"/>
  <guideline angle="90" x="112" y="0"/>
</glyph>
<glyph name="DhamatraE.kn" format="2">
  <advance width="2007"/>
  <outline>
    <component base="DamatraE.kn"/>
    <contour>
      <point x="1004" y="-423" type="curve" smooth="yes"/>
      <point x="1083" y="-423"/>
      <point x="1122" y="-373.616"/>
      <point x="1122" y="-278" type="curve" smooth="yes"/>
      <point x="1122" y="-272" type="line" smooth="yes"/>
      <point x="1122" y="-135.72"/>
      <point x="1084" y="-32.3597"/>
      <point x="1004" y="79" type="curve"/>
      <point x="925" y="-32.3597"/>
      <point x="887" y="-135.72"/>
      <point x="887" y="-272" type="curve" smooth="yes"/>
      <point x="887" y="-278" type="line" smooth="yes"/>
      <point x="887" y="-373.616"/>
      <point x="926" y="-423"/>
    </contour>
  </outline>
  <guideline angle="0" x="0" y="-274"/>
  <guideline angle="90" x="112" y="0"/>
</glyph>
<glyph name="Ghasmall1.kn" format="2">
  <outline>
    <component base="Pasmall1.kn" xOffset="-34" yOffset="-50"/>
    <contour>
      <point x="385.667" y="-503.417" type="curve" smooth="yes"/>
      <point x="507.75" y="-503.417"/>
      <point x="579.167" y="-426.429"/>
      <point x="579.167" y="-301.917" type="curve"/>
      <point x="579.167" y="-300.917" type="line"/>
      <point x="579.167" y="-239.666"/>
      <point x="565.083" y="-186.555"/>
      <point x="528.25" y="-136.917" type="curve"/>
      <point x="374.25" y="-136.917" type="line"/>
      <point x="397.398" y="-173.437"/>
      <point x="411.75" y="-216.293"/>
      <point x="411.75" y="-268.917" type="curve"/>
      <point x="411.75" y="-269.917" type="line"/>
      <point x="411.75" y="-333.026"/>
      <point x="379.275" y="-368.5"/>
      <point x="320.25" y="-368.5" type="curve" smooth="yes"/>
      <point x="260.372" y="-368.5"/>
      <point x="217.281" y="-340.272"/>
      <point x="184.833" y="-294.5" type="curve"/>
      <point x="174.75" y="-452.583" type="line"/>
      <point x="232.417" y="-452.583" type="line"/>
      <point x="267.423" y="-487.908"/>
      <point x="322.07" y="-503.417"/>
    </contour>
    <contour>
      <point x="-303.75" y="-735.667" type="curve"/>
      <point x="-370.583" y="-801.252"/>
      <point x="-395.167" y="-864.052"/>
      <point x="-395.167" y="-935.833" type="curve" smooth="yes"/>
      <point x="-395.167" y="-941.5" type="line" smooth="yes"/>
      <point x="-395.167" y="-1002.19"/>
      <point x="-365.25" y="-1034.83"/>
      <point x="-303.333" y="-1034.83" type="curve" smooth="yes"/>
      <point x="-243.75" y="-1034.83"/>
      <point x="-212.083" y="-1002.19"/>
      <point x="-212.083" y="-941.5" type="curve" smooth="yes"/>
      <point x="-212.083" y="-935.833" type="line" smooth="yes"/>
      <point x="-212.083" y="-864.052"/>
      <point x="-237.333" y="-800.431"/>
    </contour>
  </outline>
</glyph>
<glyph name="JaHalant.kn" format="2">
  <advance width="2886"/>
  <anchor x="1037" y="0" name="nukta"/>
  <outline>
    <component base="Halant.kn" xOffset="1948"/>
    <contour>
      <point x="1723" y="396" type="curve"/>
      <point x="1723" y="395" type="line"/>
      <point x="1723" y="244"/>
      <point x="1633" y="152"/>
      <point x="1458" y="152" type="curve" smooth="yes"/>
      <point x="1262" y="152"/>
      <point x="1172" y="248"/>
      <point x="1156" y="440" type="curve" smooth="yes"/>
      <point x="1154" y="464" type="line"/>
      <point x="1031" y="464" type="line"/>
      <point x="1045" y="270" type="line"/>
      <point x="1066" y="79"/>
      <point x="1205" y="-34"/>
      <point x="1484" y="-34" type="curve" smooth="yes"/>
      <point x="1781" y="-34"/>
      <point x="1935" y="112"/>
      <point x="1935" y="359" type="curve" smooth="yes"/>
      <point x="1935" y="362" type="line" smooth="yes"/>
      <point x="1935" y="405"/>
      <point x="1930" y="446"/>
      <point x="1918" y="486" type="curve"/>
      <point x="1712" y="486" type="line"/>
      <point x="1719" y="458"/>
      <point x="1723" y="427"/>
    </contour>
    <contour>
      <point x="610" y="1184" type="curve" smooth="yes"/>
      <point x="309" y="1184"/>
      <point x="145" y="1060"/>
      <point x="145" y="830" type="curve" smooth="yes"/>
      <point x="145" y="825" type="line" smooth="yes"/>
      <point x="145" y="762"/>
      <point x="160" y="706"/>
      <point x="184" y="666" type="curve"/>
      <point x="380" y="666" type="line"/>
      <point x="357" y="712"/>
      <point x="345" y="763"/>
      <point x="345" y="813" type="curve" smooth="yes"/>
      <point x="345" y="816" type="line" smooth="yes"/>
      <point x="345" y="943"/>
      <point x="435" y="1009"/>
      <point x="610" y="1009" type="curve" smooth="yes"/>
      <point x="769" y="1009"/>
      <point x="853" y="955"/>
      <point x="853" y="850" type="curve" smooth="yes"/>
      <point x="853" y="846" type="line" smooth="yes"/>
      <point x="853" y="762"/>
      <point x="798" y="717"/>
      <point x="626" y="678" type="curve" smooth="yes"/>
      <point x="511" y="652" type="line" smooth="yes"/>
      <point x="225" y="587"/>
      <point x="116" y="493"/>
      <point x="116" y="301" type="curve" smooth="yes"/>
      <point x="116" y="293" type="line" smooth="yes"/>
      <point x="116" y="85"/>
      <point x="279" y="-34"/>
      <point x="580" y="-34" type="curve" smooth="yes"/>
      <point x="872" y="-34"/>
      <point x="1013" y="81"/>
      <point x="1038" y="270" type="curve"/>
      <point x="1056" y="270" type="line"/>
      <point x="1055" y="464" type="line"/>
      <point x="931" y="464" type="line"/>
      <point x="929" y="441" type="line" smooth="yes"/>
      <point x="912" y="248"/>
      <point x="810" y="151"/>
      <point x="586" y="151" type="curve" smooth="yes"/>
      <point x="414" y="151"/>
      <point x="325" y="207"/>
      <point x="325" y="301" type="curve" smooth="yes"/>
      <point x="325" y="306" type="line" smooth="yes"/>
      <point x="325" y="399"/>
      <point x="391" y="443"/>
      <point x="581" y="489" type="curve" smooth="yes"/>
      <point x="698" y="517" type="line" smooth="yes"/>
      <point x="953" y="578"/>
      <point x="1060" y="668"/>
      <point x="1060" y="844" type="curve" smooth="yes"/>
      <point x="1060" y="849" type="line" smooth="yes"/>
      <point x="1060" y="1067"/>
      <point x="902" y="1184"/>
    </contour>
    <contour>
      <point x="1288" y="1148" type="line"/>
      <point x="1288" y="974" type="line"/>
      <point x="1438" y="974" type="line" smooth="yes"/>
      <point x="1587.21" y="974"/>
      <point x="1656" y="932.699"/>
      <point x="1656" y="847" type="curve"/>
      <point x="1656" y="846" type="line"/>
      <point x="1656" y="755.946"/>
      <point x="1583.38" y="710"/>
      <point x="1442" y="710" type="curve" smooth="yes"/>
      <point x="1223" y="710"/>
      <point x="1093.04" y="788.872"/>
      <point x="1048" y="924" type="curve" smooth="yes"/>
      <point x="1046" y="930" type="line"/>
      <point x="946" y="890" type="line"/>
      <point x="946" y="887" type="line"/>
      <point x="963.5" y="675"/>
      <point x="1141.59" y="535"/>
      <point x="1471" y="535" type="curve" smooth="yes"/>
      <point x="1716.21" y="535"/>
      <point x="1866" y="624.751"/>
      <point x="1866" y="796" type="curve"/>
      <point x="1866" y="798" type="line"/>
      <point x="1866" y="889.259"/>
      <point x="1821.92" y="950.166"/>
      <point x="1733" y="967" type="curve"/>
      <point x="1733" y="1015" type="line"/>
      <point x="1632" y="1148" type="line"/>
    </contour>
  </outline>
  <guideline angle="90" x="1878" y="0"/>
  <guideline angle="0" x="0" y="798"/>
  <guideline angle="90" x="742" y="0"/>
</glyph>
<glyph name="JaNuktasmall1.kn" format="2">
  <outline>
    <component base="Jasmall1.kn"/>
    <contour>
      <point x="-441.164" y="-827" type="curve" smooth="yes"/>
      <point x="-495.732" y="-827"/>
      <point x="-526.164" y="-853.425"/>
      <point x="-526.164" y="-904" type="curve" smooth="yes"/>
      <point x="-526.164" y="-954.63"/>
      <point x="-495.732" y="-981"/>
      <point x="-441.164" y="-981" type="curve" smooth="yes"/>
      <point x="-385.676" y="-981"/>
      <point x="-356.164" y="-954.63"/>
      <point x="-356.164" y="-904" type="curve" smooth="yes"/>
      <point x="-356.164" y="-853.425"/>
      <point x="-385.676" y="-827"/>
    </contour>
    <contour>
      <point x="-50" y="-827" type="curve" smooth="yes"/>
      <point x="-104.568" y="-827"/>
      <point x="-135" y="-853.425"/>
      <point x="-135" y="-904" type="curve" smooth="yes"/>
      <point x="-135" y="-954.63"/>
      <point x="-104.568" y="-981"/>
      <point x="-50" y="-981" type="curve" smooth="yes"/>
      <point x="5.4878" y="-981"/>
      <point x="35" y="-954.63"/>
      <point x="35" y="-904" type="curve" smooth="yes"/>
      <point x="35" y="-853.425"/>
      <point x="5.4878" y="-827"/>
    </contour>
  </outline>
  <guideline angle="90" x="-227" y="0"/>
</glyph>
<glyph name="JhamatraE.kn" format="2">
  <advance width="3471"/>
  <outline>
    <component base="matraU.kn" xOffset="2606"/>
    <component base="matraU.kn" xOffset="1717"/>
    <component base="RamatraE.kn"/>
    <contour>
      <point x="2376" y="-423" type="curve" smooth="yes"/>
      <point x="2455" y="-423"/>
      <point x="2494" y="-373.616"/>
      <point x="2494" y="-278" type="curve" smooth="yes"/>
      <point x="2494" y="-272" type="line" smooth="yes"/>
      <point x="2494" y="-135.72"/>
      <point x="2456" y="-32.3597"/>
      <point x="2376" y="79" type="curve"/>
      <point x="2297" y="-32.3597"/>
      <point x="2259" y="-135.72"/>
      <point x="2259" y="-272" type="curve" smooth="yes"/>
      <point x="2259" y="-278" type="line" smooth="yes"/>
      <point x="2259" y="-373.616"/>
      <point x="2298" y="-423"/>
    </contour>
    <contour>
      <point x="1466" y="433" type="line"/>
      <point x="1556" y="435" type="line"/>
      <point x="1556" y="447" type="line"/>
      <point x="1466" y="447" type="line"/>
    </contour>
  </outline>
  <guideline angle="0" x="0" y="-274"/>
  <guideline angle="90" x="703" y="0"/>
  <guideline angle="90" x="631" y="0"/>
  <guideline angle="90" x="1085" y="0"/>
  <guideline angle="90" x="1039" y="0"/>
  <guideline angle="90" x="967" y="0"/>
  <guideline angle="90" x="1421" y="0"/>
  <guideline angle="90" x="906" y="0"/>
</glyph>
<glyph name="JhamatraI.kn" format="2">
  <advance width="3463"/>
  <outline>
    <component base="RamatraI.kn"/>
    <component base="matraU.kn" xOffset="1710"/>
    <component base="matraU.kn" xOffset="2598"/>
    <contour>
      <point x="1459" y="433" type="line"/>
      <point x="1549" y="434" type="line"/>
      <point x="1549" y="445" type="line"/>
      <point x="1459" y="445" type="line"/>
    </contour>
    <contour>
      <point x="2366" y="-423" type="curve" smooth="yes"/>
      <point x="2445" y="-423"/>
      <point x="2484" y="-373.616"/>
      <point x="2484" y="-278" type="curve" smooth="yes"/>
      <point x="2484" y="-272" type="line" smooth="yes"/>
      <point x="2484" y="-135.72"/>
      <point x="2446" y="-32.3597"/>
      <point x="2366" y="79" type="curve"/>
      <point x="2287" y="-32.3597"/>
      <point x="2249" y="-135.72"/>
      <point x="2249" y="-272" type="curve" smooth="yes"/>
      <point x="2249" y="-278" type="line" smooth="yes"/>
      <point x="2249" y="-373.616"/>
      <point x="2288" y="-423"/>
    </contour>
  </outline>
  <guideline angle="0" x="0" y="-273"/>
  <guideline angle="90" x="1083" y="0"/>
  <guideline angle="90" x="1011" y="0"/>
  <guideline angle="90" x="1465" y="0"/>
</glyph>
<glyph name="Jhasmall1.kn" format="2">
  <outline>
    <contour>
      <point x="31.0833" y="-145.75" type="curve" smooth="yes"/>
      <point x="16.5833" y="-145.75"/>
      <point x="2.8333" y="-146.75"/>
      <point x="-9.5" y="-148.333" type="curve"/>
      <point x="-9.5" y="-288.917" type="line"/>
      <point x="-2.4167" y="-288.5"/>
      <point x="4.33333" y="-288.083"/>
      <point x="11.8333" y="-288.083" type="curve" smooth="yes"/>
      <point x="123.5" y="-288.083"/>
      <point x="180.167" y="-351.726"/>
      <point x="180.167" y="-472.5" type="curve" smooth="yes"/>
      <point x="180.167" y="-477.667" type="line" smooth="yes"/>
      <point x="180.167" y="-583.064"/>
      <point x="130.833" y="-643.75"/>
      <point x="37.75" y="-643.75" type="curve" smooth="yes"/>
      <point x="-55.0833" y="-643.75"/>
      <point x="-101.407" y="-594.062"/>
      <point x="-104.167" y="-509.083" type="curve" smooth="yes"/>
      <point x="-104.583" y="-496.25" type="line"/>
      <point x="-181.583" y="-496.25" type="line"/>
      <point x="-179.167" y="-611.083" type="line"/>
      <point x="-157.121" y="-723.833"/>
      <point x="-78.5959" y="-787.833"/>
      <point x="63.4166" y="-787.833" type="curve" smooth="yes"/>
      <point x="251.692" y="-787.833"/>
      <point x="347.583" y="-670.583"/>
      <point x="347.583" y="-482.333" type="curve" smooth="yes"/>
      <point x="347.583" y="-476" type="line" smooth="yes"/>
      <point x="347.583" y="-262.167"/>
      <point x="237.667" y="-145.75"/>
    </contour>
    <contour>
      <point x="481.25" y="-145.75" type="curve" smooth="yes"/>
      <point x="466.75" y="-145.75"/>
      <point x="453" y="-146.75"/>
      <point x="440.667" y="-148.333" type="curve"/>
      <point x="440.667" y="-288.917" type="line"/>
      <point x="447.75" y="-288.5"/>
      <point x="454.5" y="-288.083"/>
      <point x="462" y="-288.083" type="curve" smooth="yes"/>
      <point x="573.667" y="-288.083"/>
      <point x="630.333" y="-351.726"/>
      <point x="630.333" y="-472.5" type="curve" smooth="yes"/>
      <point x="630.333" y="-477.667" type="line" smooth="yes"/>
      <point x="630.333" y="-583.064"/>
      <point x="581" y="-643.75"/>
      <point x="487.917" y="-643.75" type="curve" smooth="yes"/>
      <point x="395.083" y="-643.75"/>
      <point x="348.759" y="-594.062"/>
      <point x="346" y="-509.083" type="curve" smooth="yes"/>
      <point x="345.583" y="-496.25" type="line"/>
      <point x="271.583" y="-496.25" type="line"/>
      <point x="274" y="-605.25" type="line"/>
      <point x="295.957" y="-718"/>
      <point x="371.141" y="-787.833"/>
      <point x="512.583" y="-787.833" type="curve" smooth="yes"/>
      <point x="701.522" y="-787.833"/>
      <point x="797.75" y="-679.417"/>
      <point x="797.75" y="-482.333" type="curve" smooth="yes"/>
      <point x="797.75" y="-476" type="line" smooth="yes"/>
      <point x="797.75" y="-262.167"/>
      <point x="687.833" y="-145.75"/>
    </contour>
    <contour>
      <point x="-462.667" y="-132.333" type="curve" smooth="yes"/>
      <point x="-698.917" y="-132.333"/>
      <point x="-825.583" y="-244.833"/>
      <point x="-825.583" y="-458.75" type="curve" smooth="yes"/>
      <point x="-825.583" y="-462.75" type="line" smooth="yes"/>
      <point x="-825.583" y="-677.5"/>
      <point x="-698.917" y="-789.583"/>
      <point x="-462.667" y="-789.583" type="curve" smooth="yes"/>
      <point x="-226.417" y="-789.583"/>
      <point x="-99.75" y="-671.667"/>
      <point x="-99.75" y="-462.75" type="curve" smooth="yes"/>
      <point x="-99.75" y="-458.75" type="line" smooth="yes"/>
      <point x="-99.75" y="-244.833"/>
      <point x="-226.417" y="-132.333"/>
    </contour>
    <contour>
      <point x="-462.083" y="-645.5" type="curve" smooth="yes"/>
      <point x="-589.75" y="-645.5"/>
      <point x="-657.583" y="-584.004"/>
      <point x="-657.583" y="-462.167" type="curve" smooth="yes"/>
      <point x="-657.583" y="-458.167" type="line" smooth="yes"/>
      <point x="-657.583" y="-338.319"/>
      <point x="-589.75" y="-276.417"/>
      <point x="-462.083" y="-276.417" type="curve" smooth="yes"/>
      <point x="-335.07" y="-276.417"/>
      <point x="-267.583" y="-338.319"/>
      <point x="-267.583" y="-458.167" type="curve" smooth="yes"/>
      <point x="-267.583" y="-462.167" type="line" smooth="yes"/>
      <point x="-267.583" y="-584.004"/>
      <point x="-335.07" y="-645.5"/>
    </contour>
    <contour>
      <point x="296.25" y="-743.667" type="curve"/>
      <point x="229.417" y="-809.252"/>
      <point x="204.833" y="-872.052"/>
      <point x="204.833" y="-943.833" type="curve" smooth="yes"/>
      <point x="204.833" y="-949.5" type="line" smooth="yes"/>
      <point x="204.833" y="-1010.19"/>
      <point x="234.75" y="-1042.83"/>
      <point x="296.667" y="-1042.83" type="curve" smooth="yes"/>
      <point x="356.25" y="-1042.83"/>
      <point x="387.917" y="-1010.19"/>
      <point x="387.917" y="-949.5" type="curve" smooth="yes"/>
      <point x="387.917" y="-943.833" type="line" smooth="yes"/>
      <point x="387.917" y="-872.052"/>
      <point x="362.667" y="-808.431"/>
    </contour>
  </outline>
</glyph>
<glyph name="KaSsamatraI.kn" format="2">
  <advance width="1530"/>
  <outline>
    <component base="KamatraI.kn"/>
    <contour>
      <point x="1495" y="-673.167" type="line"/>
      <point x="1452.42" y="-442"/>
      <point x="1414.67" y="-262.667"/>
      <point x="1366.42" y="-92.75" type="curve"/>
      <point x="1178.08" y="-92.75" type="line"/>
      <point x="1187.08" y="-136.833"/>
      <point x="1192.5" y="-179.167"/>
      <point x="1192.5" y="-221.667" type="curve" smooth="yes"/>
      <point x="1192.5" y="-332.904"/>
      <point x="1134.47" y="-390.917"/>
      <point x="1025.92" y="-390.917" type="curve" smooth="yes"/>
      <point x="914.013" y="-390.917"/>
      <point x="863.253" y="-334.558"/>
      <point x="854.75" y="-226.333" type="curve" smooth="yes"/>
      <point x="852" y="-191.333" type="line"/>
      <point x="746.25" y="-191.333" type="line"/>
      <point x="750.167" y="-235.952"/>
      <point x="760" y="-345.52"/>
      <point x="762.75" y="-379.667" type="curve"/>
      <point x="787.541" y="-493.385"/>
      <point x="876.527" y="-551.583"/>
      <point x="1026.83" y="-551.583" type="curve" smooth="yes"/>
      <point x="1173.03" y="-551.583"/>
      <point x="1264.31" y="-487.917"/>
      <point x="1289.83" y="-365.25" type="curve"/>
      <point x="1296.33" y="-365.833" type="line"/>
      <point x="1294.94" y="-417.167"/>
      <point x="1290.11" y="-612.417"/>
      <point x="1288.58" y="-673.167" type="curve"/>
    </contour>
    <contour>
      <point x="348.417" y="-111.75" type="curve"/>
      <point x="171.833" y="-111.75" type="line"/>
      <point x="143.667" y="-155.14"/>
      <point x="131.25" y="-208.954"/>
      <point x="131.25" y="-270.25" type="curve" smooth="yes"/>
      <point x="131.25" y="-275.25" type="line" smooth="yes"/>
      <point x="131.25" y="-455.002"/>
      <point x="251.195" y="-551.583"/>
      <point x="468.5" y="-551.583" type="curve" smooth="yes"/>
      <point x="640.799" y="-551.583"/>
      <point x="735.672" y="-490.078"/>
      <point x="758" y="-379.667" type="curve"/>
      <point x="805.083" y="-379.667" type="line"/>
      <point x="780.417" y="-191.333" type="line"/>
      <point x="670.167" y="-191.333" type="line"/>
      <point x="667.417" y="-226.75" type="line" smooth="yes"/>
      <point x="659.286" y="-331.461"/>
      <point x="607.836" y="-390.917"/>
      <point x="487.333" y="-390.917" type="curve" smooth="yes"/>
      <point x="376.035" y="-390.917"/>
      <point x="315.833" y="-340.338"/>
      <point x="315.833" y="-244.75" type="curve" smooth="yes"/>
      <point x="315.833" y="-242.083" type="line" smooth="yes"/>
      <point x="315.833" y="-212.006"/>
      <point x="328.5" y="-148.257"/>
    </contour>
  </outline>
</glyph>
<glyph name="KaSsasmall.kn" format="2">
  <advance width="172"/>
  <outline>
    <contour>
      <point x="46.5833" y="-229.583" type="curve" smooth="yes"/>
      <point x="173.389" y="-229.583"/>
      <point x="242.667" y="-267.702"/>
      <point x="242.667" y="-336.583" type="curve" smooth="yes"/>
      <point x="242.667" y="-340.833" type="line" smooth="yes"/>
      <point x="242.667" y="-409.917"/>
      <point x="173.75" y="-447.833"/>
      <point x="46.5833" y="-447.833" type="curve" smooth="yes"/>
      <point x="-80.5833" y="-447.833"/>
      <point x="-149.5" y="-409.917"/>
      <point x="-149.5" y="-340.833" type="curve" smooth="yes"/>
      <point x="-149.5" y="-336.583" type="line" smooth="yes"/>
      <point x="-149.5" y="-267.917"/>
      <point x="-80.5833" y="-229.583"/>
    </contour>
    <contour>
      <point x="-203.5" y="-185.917" type="line"/>
      <point x="-203.5" y="-235.917" type="line"/>
      <point x="-276.392" y="-253.462"/>
      <point x="-316.5" y="-298.214"/>
      <point x="-316.5" y="-372.083" type="curve" smooth="yes"/>
      <point x="-316.5" y="-376.333" type="line" smooth="yes"/>
      <point x="-316.5" y="-511.362"/>
      <point x="-185.886" y="-585.833"/>
      <point x="46.5833" y="-585.833" type="curve" smooth="yes"/>
      <point x="279.053" y="-585.833"/>
      <point x="409.667" y="-511.362"/>
      <point x="409.667" y="-376.333" type="curve" smooth="yes"/>
      <point x="409.667" y="-372.083" type="line" smooth="yes"/>
      <point x="409.667" y="-298.214"/>
      <point x="369.559" y="-253.462"/>
      <point x="296.667" y="-235.917" type="curve"/>
      <point x="296.667" y="-185.917" type="line"/>
    </contour>
    <contour>
      <point x="-21.8333" y="197.083" type="line"/>
      <point x="7.75" y="155"/>
      <point x="23.6667" y="102.333"/>
      <point x="23.6667" y="44.1667" type="curve"/>
      <point x="23.6667" y="42.3334" type="line"/>
      <point x="23.6667" y="-20.5185"/>
      <point x="-0.833335" y="-73.2118"/>
      <point x="-40.5833" y="-101.417" type="curve"/>
      <point x="-366.667" y="-101.417" type="line"/>
      <point x="-366.667" y="-232" type="line"/>
      <point x="-185.167" y="-232" type="line"/>
      <point x="-138.75" y="-218.667" type="line"/>
      <point x="231.917" y="-218.667" type="line"/>
      <point x="278.333" y="-232" type="line"/>
      <point x="459.833" y="-232" type="line"/>
      <point x="459.833" y="-101.417" type="line"/>
      <point x="140.167" y="-101.417" type="line"/>
      <point x="174.167" y="-71.0436"/>
      <point x="193.75" y="-19.4913"/>
      <point x="193.75" y="42.9167" type="curve"/>
      <point x="193.75" y="44.75" type="line"/>
      <point x="193.75" y="103.5"/>
      <point x="174.333" y="158"/>
      <point x="142.5" y="197.083" type="curve"/>
    </contour>
    <contour>
      <point x="-148.5" y="-754.583" type="curve" smooth="yes"/>
      <point x="-222.718" y="-754.583"/>
      <point x="-262.583" y="-723.598"/>
      <point x="-262.583" y="-663.583" type="curve"/>
      <point x="-262.583" y="-662.167" type="line"/>
      <point x="-262.583" y="-640.016"/>
      <point x="-259.5" y="-621.054"/>
      <point x="-252.167" y="-601.833" type="curve"/>
      <point x="-394.25" y="-601.833" type="line"/>
      <point x="-403.917" y="-625.258"/>
      <point x="-409.75" y="-653.563"/>
      <point x="-409.75" y="-683.25" type="curve" smooth="yes"/>
      <point x="-409.75" y="-685.833" type="line" smooth="yes"/>
      <point x="-409.75" y="-813.227"/>
      <point x="-323.923" y="-880.333"/>
      <point x="-166.333" y="-880.333" type="curve" smooth="yes"/>
      <point x="-41.6989" y="-880.333"/>
      <point x="28.5511" y="-837.569"/>
      <point x="44.4166" y="-765.583" type="curve"/>
      <point x="81.1666" y="-765.583" type="line"/>
      <point x="62.9166" y="-635.833" type="line"/>
      <point x="-26.5834" y="-635.833" type="line"/>
      <point x="-28.7501" y="-653" type="line" smooth="yes"/>
      <point x="-36.9576" y="-718.028"/>
      <point x="-69.1709" y="-754.583"/>
    </contour>
    <contour>
      <point x="572.833" y="-925" type="line"/>
      <point x="542.417" y="-795.417"/>
      <point x="512.5" y="-690.833"/>
      <point x="479.667" y="-593" type="curve"/>
      <point x="337.917" y="-593" type="line"/>
      <point x="343" y="-613"/>
      <point x="345.833" y="-635.25"/>
      <point x="345.833" y="-654.833" type="curve" smooth="yes"/>
      <point x="345.833" y="-719.833"/>
      <point x="307.646" y="-754.583"/>
      <point x="234.667" y="-754.583" type="curve" smooth="yes"/>
      <point x="158.842" y="-754.583"/>
      <point x="128.217" y="-720.619"/>
      <point x="119.417" y="-652.583" type="curve" smooth="yes"/>
      <point x="117.25" y="-635.833" type="line"/>
      <point x="35.1666" y="-635.833" type="line"/>
      <point x="48.1666" y="-765.583" type="line"/>
      <point x="65.6666" y="-839.787"/>
      <point x="129.167" y="-880.333"/>
      <point x="237" y="-880.333" type="curve" smooth="yes"/>
      <point x="337.111" y="-880.333"/>
      <point x="400.926" y="-840.167"/>
      <point x="419.5" y="-764.75" type="curve"/>
      <point x="425" y="-765.333" type="line"/>
      <point x="419" y="-925" type="line"/>
    </contour>
  </outline>
  <guideline angle="0" x="0" y="-610"/>
</glyph>
<glyph name="KamatraUu.kn" format="2">
  <advance width="3264"/>
  <outline>
    <component base="Ka.kn"/>
    <contour>
      <point x="1571.18" y="152" type="curve" smooth="yes"/>
      <point x="1424.52" y="152"/>
      <point x="1353.18" y="229.072"/>
      <point x="1350.18" y="368" type="curve"/>
      <point x="1350.18" y="368"/>
      <point x="1350.18" y="368"/>
      <point x="1350.18" y="368" type="curve"/>
      <point x="1249.18" y="367" type="line"/>
      <point x="1249.18" y="297" type="line" smooth="yes"/>
      <point x="1249.18" y="80.1054"/>
      <point x="1379.99" y="-34"/>
      <point x="1609.18" y="-34" type="curve" smooth="yes"/>
      <point x="1861.95" y="-34"/>
      <point x="1997.18" y="107"/>
      <point x="1997.18" y="381" type="curve" smooth="yes"/>
      <point x="1997.18" y="481" type="line"/>
      <point x="1785.18" y="481" type="line"/>
      <point x="1785.18" y="392" type="line" smooth="yes"/>
      <point x="1785.18" y="229.037"/>
      <point x="1712.86" y="152"/>
    </contour>
    <contour>
      <point x="2460" y="1184" type="curve" smooth="yes"/>
      <point x="2017.34" y="1184"/>
      <point x="1785" y="973"/>
      <point x="1785" y="564" type="curve" smooth="yes"/>
      <point x="1785" y="471" type="line"/>
      <point x="1997" y="471" type="line"/>
      <point x="1997" y="559" type="line" smooth="yes"/>
      <point x="1997" y="850.354"/>
      <point x="2155.29" y="998"/>
      <point x="2461" y="998" type="curve" smooth="yes"/>
      <point x="2766.02" y="998"/>
      <point x="2924" y="836.362"/>
      <point x="2924" y="519" type="curve" smooth="yes"/>
      <point x="2924" y="470" type="line"/>
      <point x="3136" y="504" type="line"/>
      <point x="3136" y="513" type="line" smooth="yes"/>
      <point x="3136" y="955"/>
      <point x="2904" y="1184"/>
    </contour>
    <contour>
      <point x="3136" y="506" type="line"/>
      <point x="2924" y="472" type="line"/>
      <point x="2924" y="463" type="line" smooth="yes"/>
      <point x="2924" y="255.234"/>
      <point x="2835.66" y="148"/>
      <point x="2664" y="148" type="curve" smooth="yes"/>
      <point x="2519.14" y="148"/>
      <point x="2442" y="211.111"/>
      <point x="2442" y="324" type="curve" smooth="yes"/>
      <point x="2442" y="328" type="line" smooth="yes"/>
      <point x="2442" y="437.292"/>
      <point x="2512.66" y="500"/>
      <point x="2659" y="500" type="curve" smooth="yes"/>
      <point x="2784.69" y="500"/>
      <point x="2884.64" y="450.729"/>
      <point x="2946" y="371" type="curve"/>
      <point x="2959" y="503" type="line"/>
      <point x="2917" y="503" type="line"/>
      <point x="2866.15" y="612.375"/>
      <point x="2760" y="678"/>
      <point x="2601" y="678" type="curve" smooth="yes"/>
      <point x="2364.43" y="678"/>
      <point x="2233" y="550.059"/>
      <point x="2233" y="330" type="curve" smooth="yes"/>
      <point x="2233" y="327" type="line" smooth="yes"/>
      <point x="2233" y="94.1739"/>
      <point x="2385.59" y="-33"/>
      <point x="2665" y="-33" type="curve" smooth="yes"/>
      <point x="2971.6" y="-33"/>
      <point x="3136" y="151"/>
      <point x="3136" y="496" type="curve" smooth="yes"/>
    </contour>
  </outline>
</glyph>
<glyph name="Kasmall1.kn" format="2">
  <advance width="141"/>
  <outline>
    <contour>
      <point x="34.9167" y="-340.583" type="curve" smooth="yes"/>
      <point x="183.75" y="-340.583"/>
      <point x="265.167" y="-393.5"/>
      <point x="265.167" y="-490.083" type="curve" smooth="yes"/>
      <point x="265.167" y="-494.333" type="line" smooth="yes"/>
      <point x="265.167" y="-590.036"/>
      <point x="183.75" y="-641.833"/>
      <point x="34.9167" y="-641.833" type="curve" smooth="yes"/>
      <point x="-113.917" y="-641.833"/>
      <point x="-195.333" y="-590.036"/>
      <point x="-195.333" y="-494.333" type="curve" smooth="yes"/>
      <point x="-195.333" y="-490.083" type="line" smooth="yes"/>
      <point x="-195.333" y="-393.5"/>
      <point x="-113.917" y="-340.583"/>
    </contour>
    <contour>
      <point x="-226.833" y="-294.917" type="line"/>
      <point x="-226.833" y="-345.917" type="line"/>
      <point x="-315.153" y="-368.987"/>
      <point x="-364.333" y="-431.948"/>
      <point x="-364.333" y="-522.583" type="curve" smooth="yes"/>
      <point x="-364.333" y="-526.833" type="line" smooth="yes"/>
      <point x="-364.333" y="-694.612"/>
      <point x="-219.917" y="-787.667"/>
      <point x="34.9167" y="-787.667" type="curve" smooth="yes"/>
      <point x="289.75" y="-787.667"/>
      <point x="434.167" y="-694.612"/>
      <point x="434.167" y="-526.833" type="curve" smooth="yes"/>
      <point x="434.167" y="-522.583" type="line" smooth="yes"/>
      <point x="434.167" y="-431.948"/>
      <point x="384.987" y="-368.987"/>
      <point x="296.667" y="-345.917" type="curve"/>
      <point x="296.667" y="-294.917" type="line"/>
    </contour>
    <contour>
      <point x="-43.5" y="197.083" type="line"/>
      <point x="-1.5833" y="139.167"/>
      <point x="19.6667" y="68.4167"/>
      <point x="19.6667" y="-11.25" type="curve" smooth="yes"/>
      <point x="19.6667" y="-14.3333" type="line" smooth="yes"/>
      <point x="19.6667" y="-95.0116"/>
      <point x="-8.5" y="-163.837"/>
      <point x="-55.1667" y="-200.25" type="curve"/>
      <point x="-412.5" y="-200.25" type="line"/>
      <point x="-412.5" y="-341" type="line"/>
      <point x="-208.5" y="-340" type="line"/>
      <point x="-166.25" y="-329.667" type="line"/>
      <point x="236.083" y="-329.667" type="line"/>
      <point x="278.333" y="-340" type="line"/>
      <point x="482.333" y="-341" type="line"/>
      <point x="482.333" y="-200.25" type="line"/>
      <point x="130.583" y="-200.25" type="line"/>
      <point x="170.19" y="-160.552"/>
      <point x="191.75" y="-91.5773"/>
      <point x="191.75" y="-13.75" type="curve" smooth="yes"/>
      <point x="191.75" y="-10.6667" type="line" smooth="yes"/>
      <point x="191.75" y="70.1666"/>
      <point x="166.583" y="144.167"/>
      <point x="123.25" y="197.083" type="curve"/>
    </contour>
  </outline>
  <guideline angle="0" x="0" y="-279"/>
</glyph>
<glyph name="KhamatraI.kn" format="2">
  <advance width="2204"/>
  <outline>
    <contour>
      <point x="1567" y="1376" type="curve" smooth="yes"/>
      <point x="1313.95" y="1376"/>
      <point x="1177" y="1259.88"/>
      <point x="1177" y="1048" type="curve" smooth="yes"/>
      <point x="1177" y="1044" type="line" smooth="yes"/>
      <point x="1177" y="844.63"/>
      <point x="1310.83" y="731"/>
      <point x="1544" y="731" type="curve" smooth="yes"/>
      <point x="1692.48" y="731"/>
      <point x="1805.82" y="793.597"/>
      <point x="1844.18" y="880.069" type="curve"/>
      <point x="1896.84" y="880.069" type="line"/>
      <point x="1857" y="1077" type="line"/>
      <point x="1804.05" y="969.191"/>
      <point x="1708.09" y="895"/>
      <point x="1568" y="895" type="curve" smooth="yes"/>
      <point x="1444.66" y="895"/>
      <point x="1379" y="947.076"/>
      <point x="1379" y="1041" type="curve" smooth="yes"/>
      <point x="1379" y="1045" type="line" smooth="yes"/>
      <point x="1379" y="1150.35"/>
      <point x="1445.92" y="1207"/>
      <point x="1566" y="1207" type="curve" smooth="yes"/>
      <point x="1703.51" y="1207"/>
      <point x="1790.13" y="1129.51"/>
      <point x="1831.98" y="972.599" type="curve" smooth="yes"/>
      <point x="1833.29" y="967.712"/>
      <point x="1834.55" y="962.747"/>
      <point x="1835.77" y="957.705" type="curve" smooth="yes"/>
      <point x="1837.19" y="951.795"/>
      <point x="1838.56" y="945.78"/>
      <point x="1839.87" y="939.659" type="curve"/>
      <point x="1840.09" y="938.795"/>
      <point x="1844.67" y="920.895"/>
      <point x="1844.89" y="920.031" type="curve"/>
      <point x="1850.03" y="885.249" type="line" smooth="yes"/>
      <point x="1858.08" y="828.169"/>
      <point x="1862" y="762.775"/>
      <point x="1862" y="689" type="curve" smooth="yes"/>
      <point x="1862" y="683" type="line" smooth="yes"/>
      <point x="1862" y="334.87"/>
      <point x="1736.84" y="152"/>
      <point x="1488" y="152" type="curve" smooth="yes"/>
      <point x="1310.29" y="152"/>
      <point x="1197.19" y="236.584"/>
      <point x="1177" y="391" type="curve"/>
      <point x="1177" y="414" type="line"/>
      <point x="1085" y="419" type="line"/>
      <point x="1085" y="291" type="line"/>
      <point x="1104.86" y="82.358"/>
      <point x="1260.77" y="-34"/>
      <point x="1513" y="-34" type="curve" smooth="yes"/>
      <point x="1887" y="-34"/>
      <point x="2074" y="209.025"/>
      <point x="2074" y="685" type="curve" smooth="yes"/>
      <point x="2074" y="691" type="line" smooth="yes"/>
      <point x="2074" y="786.709"/>
      <point x="2066.36" y="873.573"/>
      <point x="2050.66" y="950.827" type="curve" smooth="yes"/>
      <point x="1995.35" y="1223.1"/>
      <point x="1840.04" y="1376"/>
    </contour>
    <contour>
      <point x="581" y="-34" type="curve" smooth="yes"/>
      <point x="897.351" y="-34"/>
      <point x="1102.68" y="94"/>
      <point x="1141" y="315" type="curve"/>
      <point x="1073" y="280" type="line"/>
      <point x="1152" y="279" type="line"/>
      <point x="1188" y="376"/>
      <point x="1206" y="478"/>
      <point x="1206" y="585" type="curve" smooth="yes"/>
      <point x="1206" y="589" type="line" smooth="yes"/>
      <point x="1206" y="982"/>
      <point x="1010.43" y="1184"/>
      <point x="635" y="1184" type="curve" smooth="yes"/>
      <point x="309.523" y="1184"/>
      <point x="136" y="1053"/>
      <point x="136" y="809" type="curve" smooth="yes"/>
      <point x="136" y="806" type="line" smooth="yes"/>
      <point x="136" y="761"/>
      <point x="145" y="710"/>
      <point x="164" y="674" type="curve"/>
      <point x="366" y="674" type="line"/>
      <point x="351" y="708"/>
      <point x="344" y="751"/>
      <point x="344" y="791" type="curve"/>
      <point x="344" y="792" type="line"/>
      <point x="344" y="931"/>
      <point x="448.156" y="1004"/>
      <point x="637" y="1004" type="curve" smooth="yes"/>
      <point x="872.406" y="1004"/>
      <point x="994" y="864"/>
      <point x="994" y="592" type="curve"/>
      <point x="994" y="590" type="line"/>
      <point x="994" y="504.348"/>
      <point x="981.333" y="428.656"/>
      <point x="956" y="344" type="curve"/>
      <point x="955" y="341"/>
      <point x="954" y="336"/>
      <point x="953" y="334" type="curve" smooth="yes"/>
      <point x="892.968" y="209.989"/>
      <point x="773.873" y="147"/>
      <point x="587" y="147" type="curve" smooth="yes"/>
      <point x="413.323" y="147"/>
      <point x="326" y="196.947"/>
      <point x="326" y="293" type="curve" smooth="yes"/>
      <point x="326" y="296" type="line" smooth="yes"/>
      <point x="326" y="390.324"/>
      <point x="406.333" y="437"/>
      <point x="567" y="437" type="curve" smooth="yes"/>
      <point x="740.412" y="437"/>
      <point x="898.059" y="381.471"/>
      <point x="969" y="286" type="curve"/>
      <point x="1012" y="433" type="line"/>
      <point x="932.82" y="545.337"/>
      <point x="773.506" y="617"/>
      <point x="556" y="617" type="curve" smooth="yes"/>
      <point x="265.025" y="617"/>
      <point x="114" y="508.616"/>
      <point x="114" y="297" type="curve" smooth="yes"/>
      <point x="114" y="294" type="line" smooth="yes"/>
      <point x="114" y="80.6024"/>
      <point x="276.52" y="-34"/>
    </contour>
  </outline>
  <guideline angle="90" x="257" y="0"/>
  <guideline angle="90" x="245" y="0"/>
  <guideline angle="0" x="0" y="219"/>
  <guideline angle="0" x="0" y="484"/>
</glyph>
<glyph name="LamatraI.kn.1" format="2">
  <advance width="1961"/>
  <outline>
    <contour>
      <point x="325" y="660" type="line"/>
      <point x="325" y="664" type="line" smooth="yes"/>
      <point x="325" y="889"/>
      <point x="425" y="1004"/>
      <point x="616" y="1004" type="curve" smooth="yes"/>
      <point x="754" y="1004"/>
      <point x="830" y="941"/>
      <point x="830" y="827" type="curve" smooth="yes"/>
      <point x="830" y="823" type="line" smooth="yes"/>
      <point x="830" y="715"/>
      <point x="755" y="654"/>
      <point x="614" y="654" type="curve" smooth="yes"/>
      <point x="476" y="654"/>
      <point x="368" y="701"/>
      <point x="301" y="783" type="curve"/>
      <point x="289" y="651" type="line"/>
      <point x="331" y="651" type="line"/>
      <point x="386" y="542"/>
      <point x="495" y="477"/>
      <point x="667" y="477" type="curve" smooth="yes"/>
      <point x="902" y="477"/>
      <point x="1039" y="603"/>
      <point x="1039" y="823" type="curve" smooth="yes"/>
      <point x="1039" y="827" type="line" smooth="yes"/>
      <point x="1039" y="1058"/>
      <point x="890" y="1184"/>
      <point x="618" y="1184" type="curve" smooth="yes"/>
      <point x="292" y="1184"/>
      <point x="116" y="1006"/>
      <point x="116" y="663" type="curve" smooth="yes"/>
      <point x="116" y="654" type="line"/>
    </contour>
    <contour>
      <point x="1624" y="723" type="line" smooth="yes"/>
      <point x="1624" y="347.1"/>
      <point x="1409" y="150"/>
      <point x="973" y="150" type="curve" smooth="yes"/>
      <point x="550" y="150"/>
      <point x="325" y="317"/>
      <point x="325" y="643" type="curve" smooth="yes"/>
      <point x="325" y="670" type="line"/>
      <point x="116" y="658" type="line"/>
      <point x="116" y="654" type="line" smooth="yes"/>
      <point x="116" y="201"/>
      <point x="415" y="-36"/>
      <point x="973" y="-36" type="curve" smooth="yes"/>
      <point x="1540" y="-36"/>
      <point x="1836" y="222"/>
      <point x="1836" y="723" type="curve" smooth="yes"/>
      <point x="1836" y="729" type="line" smooth="yes"/>
      <point x="1836" y="1144.33"/>
      <point x="1679.35" y="1386"/>
      <point x="1328.84" y="1386" type="curve" smooth="yes"/>
      <point x="1075.79" y="1386"/>
      <point x="938.842" y="1269.88"/>
      <point x="938.842" y="1058" type="curve" smooth="yes"/>
      <point x="938.842" y="1054" type="line" smooth="yes"/>
      <point x="938.842" y="854.63"/>
      <point x="1076.32" y="741"/>
      <point x="1315.84" y="741" type="curve" smooth="yes"/>
      <point x="1500.28" y="741"/>
      <point x="1610.54" y="831.325"/>
      <point x="1654.84" y="958" type="curve"/>
      <point x="1618.84" y="1087" type="line"/>
      <point x="1565.9" y="979.191"/>
      <point x="1469.93" y="905"/>
      <point x="1329.84" y="905" type="curve" smooth="yes"/>
      <point x="1206.5" y="905"/>
      <point x="1140.84" y="957.076"/>
      <point x="1140.84" y="1051" type="curve" smooth="yes"/>
      <point x="1140.84" y="1055" type="line" smooth="yes"/>
      <point x="1140.84" y="1160.35"/>
      <point x="1207.76" y="1217"/>
      <point x="1327.84" y="1217" type="curve" smooth="yes"/>
      <point x="1531.86" y="1217"/>
      <point x="1624" y="1055.65"/>
      <point x="1624" y="727" type="curve" smooth="yes"/>
    </contour>
  </outline>
</glyph>
<glyph name="LllaObsoletematraAu.kn" format="2">
  <advance width="3940"/>
  <outline>
    <component base="LllaObsolete.kn"/>
    <contour>
      <point x="2807" y="750" type="line"/>
      <point x="2807" y="866.43"/>
      <point x="2755.2" y="945.747"/>
      <point x="2650" y="967" type="curve"/>
      <point x="2650" y="1018" type="line"/>
      <point x="2344" y="1018" type="line"/>
      <point x="2329" y="974" type="line"/>
      <point x="2513.19" y="974"/>
      <point x="2597" y="915.371"/>
      <point x="2597" y="797" type="curve"/>
      <point x="2597" y="795" type="line"/>
      <point x="2597" y="676.968"/>
      <point x="2520.38" y="617"/>
      <point x="2372" y="617" type="curve" smooth="yes"/>
      <point x="2255" y="617"/>
      <point x="2159" y="652"/>
      <point x="2103" y="708" type="curve"/>
      <point x="2013" y="599" type="line"/>
      <point x="2099.14" y="493"/>
      <point x="2230.47" y="434"/>
      <point x="2415" y="434" type="curve" smooth="yes"/>
      <point x="2658" y="434"/>
      <point x="2807" y="542.032"/>
      <point x="2807" y="748" type="curve"/>
    </contour>
    <contour>
      <point x="2568" y="974" type="line"/>
      <point x="2568" y="1148" type="line"/>
      <point x="2249" y="1148" type="line"/>
      <point x="2249" y="974" type="line"/>
    </contour>
    <contour>
      <point x="2639.16" y="974" type="line" smooth="yes"/>
      <point x="2822" y="974"/>
      <point x="2925.16" y="1065.84"/>
      <point x="2925.16" y="1229" type="curve" smooth="yes"/>
      <point x="2925.16" y="1233" type="line" smooth="yes"/>
      <point x="2925.16" y="1331.15"/>
      <point x="2874.16" y="1395.57"/>
      <point x="2782.16" y="1418" type="curve"/>
      <point x="2782.16" y="1446.5" type="line"/>
      <point x="2538.16" y="1446.5" type="line"/>
      <point x="2538.16" y="1445.67"/>
      <point x="2538.16" y="1425.66"/>
      <point x="2538.16" y="1425" type="curve"/>
      <point x="2657.17" y="1425"/>
      <point x="2716.16" y="1379.01"/>
      <point x="2716.16" y="1288" type="curve" smooth="yes"/>
      <point x="2716.16" y="1284" type="line" smooth="yes"/>
      <point x="2716.16" y="1193.66"/>
      <point x="2656.16" y="1148"/>
      <point x="2536.16" y="1148" type="curve" smooth="yes"/>
      <point x="2438.16" y="1148" type="line"/>
      <point x="2438.16" y="974" type="line"/>
    </contour>
    <contour>
      <point x="3675.49" y="958.703" type="line"/>
      <point x="3675.49" y="949.976" type="line" smooth="yes"/>
      <point x="3675.49" y="748.663"/>
      <point x="3594.28" y="644.76"/>
      <point x="3436.46" y="644.76" type="curve" smooth="yes"/>
      <point x="3301.26" y="644.76"/>
      <point x="3229.27" y="702.286"/>
      <point x="3229.27" y="805.186" type="curve" smooth="yes"/>
      <point x="3229.27" y="809.065" type="line" smooth="yes"/>
      <point x="3229.27" y="909.135"/>
      <point x="3295.16" y="966.552"/>
      <point x="3431.61" y="966.552" type="curve" smooth="yes"/>
      <point x="3547.32" y="966.552"/>
      <point x="3639.34" y="918.947"/>
      <point x="3695.83" y="841.914" type="curve"/>
      <point x="3709.43" y="970.673" type="line"/>
      <point x="3667.67" y="970.673" type="line"/>
      <point x="3620.45" y="1078.04"/>
      <point x="3522.92" y="1142.46"/>
      <point x="3376.25" y="1142.46" type="curve" smooth="yes"/>
      <point x="3148.85" y="1142.46"/>
      <point x="3022.51" y="1020.6"/>
      <point x="3022.51" y="811.004" type="curve" smooth="yes"/>
      <point x="3022.51" y="808.095" type="line" smooth="yes"/>
      <point x="3022.51" y="586.849"/>
      <point x="3169.07" y="466"/>
      <point x="3437.43" y="466" type="curve" smooth="yes"/>
      <point x="3729.54" y="466"/>
      <point x="3886.16" y="638.513"/>
      <point x="3886.16" y="961.976" type="curve" smooth="yes"/>
      <point x="3886.16" y="970.673" type="line"/>
    </contour>
    <contour>
      <point x="2273.16" y="1598" type="line"/>
      <point x="2273.16" y="1425" type="line"/>
      <point x="3171.16" y="1425" type="line" smooth="yes"/>
      <point x="3499.94" y="1425"/>
      <point x="3675.16" y="1273.38"/>
      <point x="3675.16" y="976" type="curve" smooth="yes"/>
      <point x="3675.16" y="955" type="line"/>
      <point x="3886.16" y="968" type="line"/>
      <point x="3886.16" y="974" type="line" smooth="yes"/>
      <point x="3886.16" y="1379.25"/>
      <point x="3645.16" y="1598"/>
      <point x="3176.16" y="1598" type="curve" smooth="yes"/>
    </contour>
  </outline>
  <guideline angle="0" x="0" y="537"/>
</glyph>
<glyph name="MaHalant.kn" format="2">
  <advance width="3771"/>
  <outline>
    <component base="Va.kn"/>
    <component base="Halant.kn" xOffset="2833"/>
    <contour>
      <point x="2579.05" y="536" type="curve" smooth="yes"/>
      <point x="2579.05" y="533" type="line" smooth="yes"/>
      <point x="2579.05" y="283"/>
      <point x="2457.31" y="152"/>
      <point x="2225" y="152" type="curve" smooth="yes"/>
      <point x="2016.63" y="152"/>
      <point x="1895" y="260.897"/>
      <point x="1895" y="439" type="curve"/>
      <point x="1895" y="443" type="line"/>
      <point x="1802" y="435" type="line"/>
      <point x="1802" y="332" type="line"/>
      <point x="1810.11" y="111.207"/>
      <point x="1971.23" y="-34"/>
      <point x="2257" y="-34" type="curve" smooth="yes"/>
      <point x="2607.18" y="-34"/>
      <point x="2791.05" y="154.465"/>
      <point x="2791.05" y="508" type="curve" smooth="yes"/>
      <point x="2791.05" y="512" type="line" smooth="yes"/>
      <point x="2791.05" y="777.846"/>
      <point x="2679.69" y="925.136"/>
      <point x="2495.05" y="967" type="curve"/>
      <point x="2495.05" y="994" type="line"/>
      <point x="2092.05" y="996" type="line"/>
      <point x="2092.05" y="975" type="line"/>
      <point x="2416.4" y="975"/>
      <point x="2579.05" y="829.626"/>
    </contour>
    <contour>
      <point x="2425" y="975" type="line"/>
      <point x="2425" y="1148" type="line"/>
      <point x="2047" y="1148" type="line"/>
      <point x="2047" y="975" type="line"/>
    </contour>
  </outline>
  <guideline angle="90" x="1480" y="0"/>
  <guideline angle="0" x="0" y="1178"/>
  <guideline angle="90" x="1092" y="0"/>
</glyph>
<glyph name="NamatraI.kn" format="2">
  <advance width="1838"/>
  <outline>
    <contour>
      <point x="519" y="698" type="curve" smooth="yes"/>
      <point x="262" y="698"/>
      <point x="113" y="561"/>
      <point x="113" y="298" type="curve" smooth="yes"/>
      <point x="113" y="293" type="line" smooth="yes"/>
      <point x="113" y="168"/>
      <point x="144" y="55"/>
      <point x="200" y="-26" type="curve"/>
      <point x="417" y="-26" type="line"/>
      <point x="362" y="60"/>
      <point x="323" y="177"/>
      <point x="323" y="288" type="curve" smooth="yes"/>
      <point x="323" y="294" type="line" smooth="yes"/>
      <point x="323" y="438.341"/>
      <point x="395.727" y="513"/>
      <point x="523" y="513" type="curve" smooth="yes"/>
      <point x="639.483" y="513"/>
      <point x="694.238" y="464.524"/>
      <point x="764" y="325" type="curve" smooth="yes"/>
      <point x="808" y="237" type="line" smooth="yes"/>
      <point x="902.432" y="48.1369"/>
      <point x="1033.95" y="-34"/>
      <point x="1254" y="-34" type="curve" smooth="yes"/>
      <point x="1545" y="-34"/>
      <point x="1710" y="156.776"/>
      <point x="1710" y="503" type="curve" smooth="yes"/>
      <point x="1710" y="508" type="line"/>
      <point x="1498" y="515" type="line"/>
      <point x="1498" y="510" type="line" smooth="yes"/>
      <point x="1498" y="281.552"/>
      <point x="1407.29" y="152"/>
      <point x="1244" y="152" type="curve" smooth="yes"/>
      <point x="1114.84" y="152"/>
      <point x="1046.19" y="212.385"/>
      <point x="977" y="345" type="curve" smooth="yes"/>
      <point x="929" y="437" type="line" smooth="yes"/>
      <point x="833.884" y="619.305"/>
      <point x="724.499" y="698"/>
    </contour>
    <contour>
      <point x="1710" y="507" type="line"/>
      <point x="1710" y="514" type="line" smooth="yes"/>
      <point x="1710" y="1076"/>
      <point x="1378" y="1418"/>
      <point x="772" y="1418" type="curve" smooth="yes"/>
      <point x="443" y="1418"/>
      <point x="259" y="1294"/>
      <point x="259" y="1082" type="curve" smooth="yes"/>
      <point x="259" y="1077" type="line" smooth="yes"/>
      <point x="259" y="889"/>
      <point x="398" y="788"/>
      <point x="669" y="788" type="curve" smooth="yes"/>
      <point x="908" y="788"/>
      <point x="1054" y="877"/>
      <point x="1054" y="1046" type="curve" smooth="yes"/>
      <point x="1054" y="1049" type="line" smooth="yes"/>
      <point x="1054" y="1144"/>
      <point x="1000" y="1204"/>
      <point x="911" y="1232" type="curve"/>
      <point x="915" y="1263" type="line"/>
      <point x="668" y="1254" type="line"/>
      <point x="777" y="1234"/>
      <point x="859" y="1185"/>
      <point x="859" y="1088" type="curve" smooth="yes"/>
      <point x="859" y="1085" type="line" smooth="yes"/>
      <point x="859" y="998"/>
      <point x="789" y="950"/>
      <point x="664" y="950" type="curve" smooth="yes"/>
      <point x="536" y="950"/>
      <point x="461" y="996"/>
      <point x="461" y="1080" type="curve" smooth="yes"/>
      <point x="461" y="1083" type="line" smooth="yes"/>
      <point x="461" y="1191"/>
      <point x="568" y="1248"/>
      <point x="775" y="1248" type="curve" smooth="yes"/>
      <point x="1235" y="1248"/>
      <point x="1498" y="988"/>
      <point x="1498" y="520" type="curve" smooth="yes"/>
      <point x="1498" y="514" type="line"/>
    </contour>
  </outline>
</glyph>
<glyph name="NnamatraAu.kn" format="2">
  <advance width="3034"/>
  <outline>
    <contour>
      <point x="1600" y="979" type="line"/>
      <point x="1600" y="1148" type="line"/>
      <point x="122" y="1148" type="line"/>
      <point x="122" y="979" type="line"/>
    </contour>
    <contour>
      <point x="1961" y="424.026" type="line"/>
      <point x="1961" y="431.546" type="line" smooth="yes"/>
      <point x="1961" y="757.071"/>
      <point x="1784.31" y="926.809"/>
      <point x="1436" y="926.809" type="curve" smooth="yes"/>
      <point x="1183.61" y="926.809"/>
      <point x="1053.55" y="840.978"/>
      <point x="1031" y="703.937" type="curve"/>
      <point x="1024" y="703.937" type="line"/>
      <point x="1001.43" y="840.978"/>
      <point x="869.307" y="926.809"/>
      <point x="603" y="926.809" type="curve" smooth="yes"/>
      <point x="291.103" y="926.809"/>
      <point x="127" y="829.948"/>
      <point x="127" y="648.538" type="curve" smooth="yes"/>
      <point x="127" y="642.898" type="line" smooth="yes"/>
      <point x="127" y="521.465"/>
      <point x="215.284" y="448.606"/>
      <point x="370" y="434.944" type="curve"/>
      <point x="370" y="428.365" type="line"/>
      <point x="212.261" y="414.357"/>
      <point x="122" y="343.582"/>
      <point x="122" y="223.412" type="curve" smooth="yes"/>
      <point x="122" y="217.772" type="line" smooth="yes"/>
      <point x="122" y="55.6307"/>
      <point x="277.738" y="-37"/>
      <point x="570" y="-37" type="curve" smooth="yes"/>
      <point x="688.039" y="-37"/>
      <point x="788.373" y="-18.6703"/>
      <point x="871" y="11.8791" type="curve"/>
      <point x="893" y="183.896" type="line"/>
      <point x="813.416" y="150.996"/>
      <point x="711.094" y="129.377"/>
      <point x="585" y="129.377" type="curve" smooth="yes"/>
      <point x="418.252" y="129.377"/>
      <point x="331" y="169.461"/>
      <point x="331" y="235.632" type="curve" smooth="yes"/>
      <point x="331" y="240.331" type="line" smooth="yes"/>
      <point x="331" y="310.834"/>
      <point x="421.294" y="340.86"/>
      <point x="598" y="342.826" type="curve" smooth="yes"/>
      <point x="767" y="344.706" type="line"/>
      <point x="767" y="507.323" type="line"/>
      <point x="598" y="509.203" type="line" smooth="yes"/>
      <point x="424.614" y="511.132"/>
      <point x="336" y="547.133"/>
      <point x="336" y="626.918" type="curve" smooth="yes"/>
      <point x="336" y="631.618" type="line" smooth="yes"/>
      <point x="336" y="712.861"/>
      <point x="428.986" y="754.792"/>
      <point x="611" y="754.792" type="curve" smooth="yes"/>
      <point x="808.591" y="754.792"/>
      <point x="904.814" y="690.333"/>
      <point x="916" y="558.899" type="curve" smooth="yes"/>
      <point x="918" y="535.4" type="line"/>
      <point x="1136" y="535.4" type="line"/>
      <point x="1138" y="558.899" type="line" smooth="yes"/>
      <point x="1149.06" y="688.894"/>
      <point x="1242.36" y="754.792"/>
      <point x="1423" y="754.792" type="curve" smooth="yes"/>
      <point x="1642.03" y="754.792"/>
      <point x="1752" y="639.019"/>
      <point x="1752" y="411.206" type="curve" smooth="yes"/>
      <point x="1752" y="399.066" type="line"/>
    </contour>
    <contour>
      <point x="1752" y="400.007" type="line"/>
      <point x="1752" y="394.547" type="line" smooth="yes"/>
      <point x="1752" y="222.747"/>
      <point x="1659.24" y="134.077"/>
      <point x="1479" y="134.077" type="curve" smooth="yes"/>
      <point x="1345.23" y="134.077"/>
      <point x="1274" y="173.864"/>
      <point x="1274" y="245.031" type="curve" smooth="yes"/>
      <point x="1274" y="248.791" type="line" smooth="yes"/>
      <point x="1274" y="316.905"/>
      <point x="1339.12" y="355.986"/>
      <point x="1474" y="355.986" type="curve" smooth="yes"/>
      <point x="1604.94" y="355.986"/>
      <point x="1709.08" y="324.988"/>
      <point x="1773" y="274.829" type="curve"/>
      <point x="1786" y="390.027" type="line"/>
      <point x="1745" y="390.027" type="line"/>
      <point x="1694.48" y="472.737"/>
      <point x="1588.99" y="522.363"/>
      <point x="1431" y="522.363" type="curve" smooth="yes"/>
      <point x="1198.29" y="522.363"/>
      <point x="1069" y="422.476"/>
      <point x="1069" y="250.671" type="curve" smooth="yes"/>
      <point x="1069" y="247.851" type="line" smooth="yes"/>
      <point x="1069" y="64.2348"/>
      <point x="1214.17" y="-36.06"/>
      <point x="1480" y="-36.06" type="curve" smooth="yes"/>
      <point x="1798.22" y="-36.06"/>
      <point x="1961" y="121.027"/>
      <point x="1961" y="415.566" type="curve" smooth="yes"/>
      <point x="1961" y="424.966" type="line"/>
    </contour>
    <contour>
      <point x="1696.96" y="979" type="line" smooth="yes"/>
      <point x="1879.8" y="979"/>
      <point x="1982.96" y="1069.04"/>
      <point x="1982.96" y="1229" type="curve" smooth="yes"/>
      <point x="1982.96" y="1233" type="line" smooth="yes"/>
      <point x="1982.96" y="1331.15"/>
      <point x="1931.96" y="1395.57"/>
      <point x="1839.96" y="1418" type="curve"/>
      <point x="1839.96" y="1447" type="line"/>
      <point x="1595.96" y="1446" type="line"/>
      <point x="1595.96" y="1425" type="line"/>
      <point x="1714.98" y="1425"/>
      <point x="1773.96" y="1379.01"/>
      <point x="1773.96" y="1288" type="curve" smooth="yes"/>
      <point x="1773.96" y="1284" type="line" smooth="yes"/>
      <point x="1773.96" y="1193.66"/>
      <point x="1713.96" y="1148"/>
      <point x="1593.96" y="1148" type="curve" smooth="yes"/>
      <point x="1495.96" y="1148" type="line"/>
      <point x="1495.96" y="979" type="line"/>
    </contour>
    <contour>
      <point x="2532.23" y="466" type="curve" smooth="yes"/>
      <point x="2824.34" y="466"/>
      <point x="2980.96" y="638.513"/>
      <point x="2980.96" y="961.976" type="curve" smooth="yes"/>
      <point x="2980.96" y="970.673" type="line"/>
      <point x="2770.3" y="958.703" type="line"/>
      <point x="2770.3" y="949.976" type="line" smooth="yes"/>
      <point x="2770.3" y="748.663"/>
      <point x="2689.08" y="644.76"/>
      <point x="2531.26" y="644.76" type="curve" smooth="yes"/>
      <point x="2396.06" y="644.76"/>
      <point x="2324.08" y="702.286"/>
      <point x="2324.08" y="805.186" type="curve" smooth="yes"/>
      <point x="2324.08" y="809.065" type="line" smooth="yes"/>
      <point x="2324.08" y="909.135"/>
      <point x="2389.96" y="966.552"/>
      <point x="2526.41" y="966.552" type="curve" smooth="yes"/>
      <point x="2642.12" y="966.552"/>
      <point x="2734.14" y="918.947"/>
      <point x="2790.63" y="841.914" type="curve"/>
      <point x="2804.23" y="970.673" type="line"/>
      <point x="2762.48" y="970.673" type="line"/>
      <point x="2715.26" y="1078.04"/>
      <point x="2617.72" y="1142.46"/>
      <point x="2471.05" y="1142.46" type="curve" smooth="yes"/>
      <point x="2243.65" y="1142.46"/>
      <point x="2117.32" y="1020.6"/>
      <point x="2117.32" y="811.004" type="curve" smooth="yes"/>
      <point x="2117.32" y="808.095" type="line" smooth="yes"/>
      <point x="2117.32" y="586.849"/>
      <point x="2263.87" y="466"/>
    </contour>
    <contour>
      <point x="2270.96" y="1597" type="curve" smooth="yes"/>
      <point x="1232.96" y="1597" type="line"/>
      <point x="1232.96" y="1425" type="line"/>
      <point x="2265.96" y="1425" type="line" smooth="yes"/>
      <point x="2594.75" y="1425"/>
      <point x="2769.96" y="1273.38"/>
      <point x="2769.96" y="976" type="curve" smooth="yes"/>
      <point x="2769.96" y="955" type="line"/>
      <point x="2980.96" y="968" type="line"/>
      <point x="2980.96" y="974" type="line" smooth="yes"/>
      <point x="2980.96" y="1378.6"/>
      <point x="2739.96" y="1597"/>
    </contour>
  </outline>
</glyph>
<glyph name="NnamatraE.kn" format="2">
  <advance width="2090"/>
  <outline>
    <contour>
      <point x="1600" y="979" type="line"/>
      <point x="1600" y="1148" type="line"/>
      <point x="122" y="1148" type="line"/>
      <point x="122" y="979" type="line"/>
    </contour>
    <contour>
      <point x="1961" y="424.026" type="line"/>
      <point x="1961" y="431.546" type="line" smooth="yes"/>
      <point x="1961" y="757.071"/>
      <point x="1784.31" y="926.809"/>
      <point x="1436" y="926.809" type="curve" smooth="yes"/>
      <point x="1183.61" y="926.809"/>
      <point x="1053.55" y="840.978"/>
      <point x="1031" y="703.937" type="curve"/>
      <point x="1024" y="703.937" type="line"/>
      <point x="1001.43" y="840.978"/>
      <point x="869.307" y="926.809"/>
      <point x="603" y="926.809" type="curve" smooth="yes"/>
      <point x="291.103" y="926.809"/>
      <point x="127" y="829.948"/>
      <point x="127" y="648.538" type="curve" smooth="yes"/>
      <point x="127" y="642.898" type="line" smooth="yes"/>
      <point x="127" y="521.465"/>
      <point x="215.284" y="448.606"/>
      <point x="370" y="434.944" type="curve"/>
      <point x="370" y="428.365" type="line"/>
      <point x="212.261" y="414.357"/>
      <point x="122" y="343.582"/>
      <point x="122" y="223.412" type="curve" smooth="yes"/>
      <point x="122" y="217.772" type="line" smooth="yes"/>
      <point x="122" y="55.6307"/>
      <point x="277.738" y="-37"/>
      <point x="570" y="-37" type="curve" smooth="yes"/>
      <point x="688.039" y="-37"/>
      <point x="788.373" y="-18.6703"/>
      <point x="871" y="11.8791" type="curve"/>
      <point x="893" y="183.896" type="line"/>
      <point x="813.416" y="150.996"/>
      <point x="711.094" y="129.377"/>
      <point x="585" y="129.377" type="curve" smooth="yes"/>
      <point x="418.252" y="129.377"/>
      <point x="331" y="169.461"/>
      <point x="331" y="235.632" type="curve" smooth="yes"/>
      <point x="331" y="240.331" type="line" smooth="yes"/>
      <point x="331" y="310.834"/>
      <point x="421.294" y="340.86"/>
      <point x="598" y="342.826" type="curve" smooth="yes"/>
      <point x="767" y="344.706" type="line"/>
      <point x="767" y="507.323" type="line"/>
      <point x="598" y="509.203" type="line" smooth="yes"/>
      <point x="424.614" y="511.132"/>
      <point x="336" y="547.133"/>
      <point x="336" y="626.918" type="curve" smooth="yes"/>
      <point x="336" y="631.618" type="line" smooth="yes"/>
      <point x="336" y="712.861"/>
      <point x="428.986" y="754.792"/>
      <point x="611" y="754.792" type="curve" smooth="yes"/>
      <point x="808.591" y="754.792"/>
      <point x="904.814" y="690.333"/>
      <point x="916" y="558.899" type="curve" smooth="yes"/>
      <point x="918" y="535.4" type="line"/>
      <point x="1136" y="535.4" type="line"/>
      <point x="1138" y="558.899" type="line" smooth="yes"/>
      <point x="1149.06" y="688.894"/>
      <point x="1242.36" y="754.792"/>
      <point x="1423" y="754.792" type="curve" smooth="yes"/>
      <point x="1642.03" y="754.792"/>
      <point x="1752" y="639.019"/>
      <point x="1752" y="411.206" type="curve" smooth="yes"/>
      <point x="1752" y="399.066" type="line"/>
    </contour>
    <contour>
      <point x="1752" y="400.007" type="line"/>
      <point x="1752" y="394.547" type="line" smooth="yes"/>
      <point x="1752" y="222.747"/>
      <point x="1659.24" y="134.077"/>
      <point x="1479" y="134.077" type="curve" smooth="yes"/>
      <point x="1345.23" y="134.077"/>
      <point x="1274" y="173.864"/>
      <point x="1274" y="245.031" type="curve" smooth="yes"/>
      <point x="1274" y="248.791" type="line" smooth="yes"/>
      <point x="1274" y="316.905"/>
      <point x="1339.12" y="355.986"/>
      <point x="1474" y="355.986" type="curve" smooth="yes"/>
      <point x="1604.94" y="355.986"/>
      <point x="1709.08" y="324.988"/>
      <point x="1773" y="274.829" type="curve"/>
      <point x="1786" y="390.027" type="line"/>
      <point x="1745" y="390.027" type="line"/>
      <point x="1694.48" y="472.737"/>
      <point x="1588.99" y="522.363"/>
      <point x="1431" y="522.363" type="curve" smooth="yes"/>
      <point x="1198.29" y="522.363"/>
      <point x="1069" y="422.476"/>
      <point x="1069" y="250.671" type="curve" smooth="yes"/>
      <point x="1069" y="247.851" type="line" smooth="yes"/>
      <point x="1069" y="64.2348"/>
      <point x="1214.17" y="-36.06"/>
      <point x="1480" y="-36.06" type="curve" smooth="yes"/>
      <point x="1798.22" y="-36.06"/>
      <point x="1961" y="121.027"/>
      <point x="1961" y="415.566" type="curve" smooth="yes"/>
      <point x="1961" y="424.966" type="line"/>
    </contour>
    <contour>
      <point x="1615.01" y="979" type="line" smooth="yes"/>
      <point x="1854.65" y="979"/>
      <point x="1986.01" y="1105.52"/>
      <point x="1986.01" y="1331" type="curve" smooth="yes"/>
      <point x="1986.01" y="1338" type="line" smooth="yes"/>
      <point x="1986.01" y="1559.55"/>
      <point x="1854.09" y="1685"/>
      <point x="1615.01" y="1685" type="curve" smooth="yes"/>
      <point x="1383.48" y="1685"/>
      <point x="1257.01" y="1582.33"/>
      <point x="1257.01" y="1399" type="curve" smooth="yes"/>
      <point x="1257.01" y="1396" type="line" smooth="yes"/>
      <point x="1257.01" y="1344.85"/>
      <point x="1268.99" y="1298.52"/>
      <point x="1291.01" y="1267" type="curve"/>
      <point x="1479.01" y="1267" type="line"/>
      <point x="1463.01" y="1295.45"/>
      <point x="1453.01" y="1331.74"/>
      <point x="1453.01" y="1370" type="curve" smooth="yes"/>
      <point x="1453.01" y="1373" type="line" smooth="yes"/>
      <point x="1453.01" y="1461.7"/>
      <point x="1511.4" y="1512"/>
      <point x="1615.01" y="1512" type="curve" smooth="yes"/>
      <point x="1723.58" y="1512"/>
      <point x="1784.01" y="1450.18"/>
      <point x="1784.01" y="1342" type="curve" smooth="yes"/>
      <point x="1784.01" y="1338" type="line" smooth="yes"/>
      <point x="1784.01" y="1212.92"/>
      <point x="1712.68" y="1148"/>
      <point x="1571.01" y="1148" type="curve" smooth="yes"/>
      <point x="1418.01" y="1148" type="line"/>
      <point x="1421.01" y="979" type="line"/>
    </contour>
  </outline>
</glyph>
<glyph name="NyamatraO.kn" format="2">
  <advance width="4931"/>
  <outline>
    <component base="NyamatraE.kn"/>
    <contour>
      <point x="4127" y="1184" type="curve" smooth="yes"/>
      <point x="3684.34" y="1184"/>
      <point x="3452" y="973"/>
      <point x="3452" y="564" type="curve" smooth="yes"/>
      <point x="3452" y="471" type="line"/>
      <point x="3664" y="471" type="line"/>
      <point x="3664" y="559" type="line" smooth="yes"/>
      <point x="3664" y="850.354"/>
      <point x="3822.29" y="998"/>
      <point x="4128" y="998" type="curve" smooth="yes"/>
      <point x="4433.02" y="998"/>
      <point x="4591" y="836.362"/>
      <point x="4591" y="519" type="curve" smooth="yes"/>
      <point x="4591" y="470" type="line"/>
      <point x="4803" y="504" type="line"/>
      <point x="4803" y="513" type="line" smooth="yes"/>
      <point x="4803" y="955"/>
      <point x="4571" y="1184"/>
    </contour>
    <contour>
      <point x="4803" y="506" type="line"/>
      <point x="4591" y="472" type="line"/>
      <point x="4591" y="463" type="line" smooth="yes"/>
      <point x="4591" y="255.234"/>
      <point x="4502.66" y="148"/>
      <point x="4331" y="148" type="curve" smooth="yes"/>
      <point x="4186.14" y="148"/>
      <point x="4109" y="211.111"/>
      <point x="4109" y="324" type="curve" smooth="yes"/>
      <point x="4109" y="328" type="line" smooth="yes"/>
      <point x="4109" y="437.292"/>
      <point x="4179.66" y="500"/>
      <point x="4326" y="500" type="curve" smooth="yes"/>
      <point x="4451.69" y="500"/>
      <point x="4551.64" y="450.729"/>
      <point x="4613" y="371" type="curve"/>
      <point x="4626" y="503" type="line"/>
      <point x="4584" y="503" type="line"/>
      <point x="4533.15" y="612.375"/>
      <point x="4427" y="678"/>
      <point x="4268" y="678" type="curve" smooth="yes"/>
      <point x="4031.43" y="678"/>
      <point x="3900" y="550.059"/>
      <point x="3900" y="330" type="curve" smooth="yes"/>
      <point x="3900" y="327" type="line" smooth="yes"/>
      <point x="3900" y="94.1739"/>
      <point x="4052.59" y="-33"/>
      <point x="4332" y="-33" type="curve" smooth="yes"/>
      <point x="4638.6" y="-33"/>
      <point x="4803" y="151"/>
      <point x="4803" y="496" type="curve" smooth="yes"/>
    </contour>
    <contour>
      <point x="3142" y="-36" type="curve" smooth="yes"/>
      <point x="3497" y="-36"/>
      <point x="3664" y="122"/>
      <point x="3664" y="454" type="curve" smooth="yes"/>
      <point x="3664" y="496" type="line"/>
      <point x="3452" y="496" type="line"/>
      <point x="3452" y="462" type="line" smooth="yes"/>
      <point x="3452" y="249.048"/>
      <point x="3353.88" y="150"/>
      <point x="3138" y="150" type="curve" smooth="yes"/>
      <point x="2921.43" y="150"/>
      <point x="2822" y="249.048"/>
      <point x="2822" y="462" type="curve" smooth="yes"/>
      <point x="2822" y="516" type="line"/>
      <point x="2620" y="516" type="line"/>
      <point x="2620" y="454" type="line" smooth="yes"/>
      <point x="2620" y="122"/>
      <point x="2788.32" y="-36"/>
    </contour>
  </outline>
</glyph>
<glyph name="PamatraO.kn" format="2">
  <advance width="3671"/>
  <outline>
    <component base="PamatraE.kn"/>
    <contour>
      <point x="2867" y="1184" type="curve" smooth="yes"/>
      <point x="2424.34" y="1184"/>
      <point x="2192" y="973"/>
      <point x="2192" y="564" type="curve" smooth="yes"/>
      <point x="2192" y="471" type="line"/>
      <point x="2404" y="471" type="line"/>
      <point x="2404" y="559" type="line" smooth="yes"/>
      <point x="2404" y="850.354"/>
      <point x="2562.29" y="998"/>
      <point x="2868" y="998" type="curve" smooth="yes"/>
      <point x="3173.02" y="998"/>
      <point x="3331" y="836.362"/>
      <point x="3331" y="519" type="curve" smooth="yes"/>
      <point x="3331" y="470" type="line"/>
      <point x="3543" y="504" type="line"/>
      <point x="3543" y="513" type="line" smooth="yes"/>
      <point x="3543" y="955"/>
      <point x="3311" y="1184"/>
    </contour>
    <contour>
      <point x="3543" y="506" type="line"/>
      <point x="3331" y="472" type="line"/>
      <point x="3331" y="463" type="line" smooth="yes"/>
      <point x="3331" y="255.234"/>
      <point x="3242.66" y="148"/>
      <point x="3071" y="148" type="curve" smooth="yes"/>
      <point x="2926.14" y="148"/>
      <point x="2849" y="211.111"/>
      <point x="2849" y="324" type="curve" smooth="yes"/>
      <point x="2849" y="328" type="line" smooth="yes"/>
      <point x="2849" y="437.292"/>
      <point x="2919.66" y="500"/>
      <point x="3066" y="500" type="curve" smooth="yes"/>
      <point x="3191.69" y="500"/>
      <point x="3291.64" y="450.729"/>
      <point x="3353" y="371" type="curve"/>
      <point x="3366" y="503" type="line"/>
      <point x="3324" y="503" type="line"/>
      <point x="3273.15" y="612.375"/>
      <point x="3167" y="678"/>
      <point x="3008" y="678" type="curve" smooth="yes"/>
      <point x="2771.43" y="678"/>
      <point x="2640" y="550.059"/>
      <point x="2640" y="330" type="curve" smooth="yes"/>
      <point x="2640" y="327" type="line" smooth="yes"/>
      <point x="2640" y="94.1739"/>
      <point x="2792.59" y="-33"/>
      <point x="3072" y="-33" type="curve" smooth="yes"/>
      <point x="3378.6" y="-33"/>
      <point x="3543" y="151"/>
      <point x="3543" y="496" type="curve" smooth="yes"/>
    </contour>
    <contour>
      <point x="2192" y="506.1" type="line"/>
      <point x="2192" y="340" type="line" smooth="yes"/>
      <point x="2192" y="-24.6343"/>
      <point x="2008.53" y="-211"/>
      <point x="1653" y="-211" type="curve" smooth="yes"/>
      <point x="1363.28" y="-211"/>
      <point x="1149.67" y="-105.212"/>
      <point x="1026" y="76" type="curve"/>
      <point x="1020" y="75" type="line"/>
      <point x="1051" y="-157" type="line"/>
      <point x="1168.67" y="-298.283"/>
      <point x="1371.99" y="-395"/>
      <point x="1680" y="-395" type="curve" smooth="yes"/>
      <point x="2148.97" y="-395"/>
      <point x="2404" y="-137.97"/>
      <point x="2404" y="340" type="curve" smooth="yes"/>
      <point x="2404" y="494.412" type="line"/>
    </contour>
  </outline>
</glyph>
<glyph name="PhaNuktamatraUu.kn" format="2">
  <advance width="3674"/>
  <outline>
    <component base="PhamatraUu.kn"/>
    <contour>
      <point x="668" y="-402" type="curve" smooth="yes"/>
      <point x="591" y="-402"/>
      <point x="547" y="-442.035"/>
      <point x="547" y="-518" type="curve" smooth="yes"/>
      <point x="547" y="-594.991"/>
      <point x="591" y="-634"/>
      <point x="668" y="-634" type="curve" smooth="yes"/>
      <point x="745" y="-634"/>
      <point x="789" y="-594.991"/>
      <point x="789" y="-518" type="curve" smooth="yes"/>
      <point x="789" y="-442.035"/>
      <point x="745" y="-402"/>
    </contour>
    <contour>
      <point x="1387" y="-402" type="curve" smooth="yes"/>
      <point x="1310" y="-402"/>
      <point x="1266" y="-442.035"/>
      <point x="1266" y="-518" type="curve" smooth="yes"/>
      <point x="1266" y="-594.991"/>
      <point x="1310" y="-634"/>
      <point x="1387" y="-634" type="curve" smooth="yes"/>
      <point x="1464" y="-634"/>
      <point x="1508" y="-594.991"/>
      <point x="1508" y="-518" type="curve" smooth="yes"/>
      <point x="1508" y="-442.035"/>
      <point x="1464" y="-402"/>
    </contour>
  </outline>
</glyph>
<glyph name="PhamatraE.kn" format="2">
  <advance width="2036"/>
  <anchor x="1020" y="0" name="nukta"/>
  <outline>
    <component base="PamatraE.kn"/>
    <contour>
      <point x="1026" y="-423" type="curve" smooth="yes"/>
      <point x="1105" y="-423"/>
      <point x="1144" y="-373.616"/>
      <point x="1144" y="-278" type="curve" smooth="yes"/>
      <point x="1144" y="-272" type="line" smooth="yes"/>
      <point x="1144" y="-135.72"/>
      <point x="1106" y="-32.3597"/>
      <point x="1026" y="79" type="curve"/>
      <point x="947" y="-32.3597"/>
      <point x="909" y="-135.72"/>
      <point x="909" y="-272" type="curve" smooth="yes"/>
      <point x="909" y="-278" type="line" smooth="yes"/>
      <point x="909" y="-373.616"/>
      <point x="948" y="-423"/>
    </contour>
  </outline>
  <guideline angle="0" x="0" y="-274"/>
  <guideline angle="90" x="411" y="0"/>
</glyph>
<glyph name="PhamatraUu.kn" format="2">
  <advance width="3674"/>
  <anchor x="1027" y="0" name="nukta"/>
  <outline>
    <component base="Pha.kn"/>
    <contour>
      <point x="2195" y="506.1" type="line"/>
      <point x="2195" y="340" type="line" smooth="yes"/>
      <point x="2195" y="-24.6343"/>
      <point x="2011.53" y="-211"/>
      <point x="1656" y="-211" type="curve" smooth="yes"/>
      <point x="1366.16" y="-211"/>
      <point x="1165.04" y="-102.275"/>
      <point x="1027" y="79" type="curve"/>
      <point x="1116" y="-92" type="line"/>
      <point x="1128" y="-87" type="line"/>
      <point x="1221.97" y="-261.984" type="line"/>
      <point x="1336.67" y="-344.553"/>
      <point x="1491.8" y="-395"/>
      <point x="1693" y="-395" type="curve" smooth="yes"/>
      <point x="2155.5" y="-395"/>
      <point x="2407" y="-137.97"/>
      <point x="2407" y="340" type="curve" smooth="yes"/>
      <point x="2407" y="494.412" type="line"/>
    </contour>
    <contour>
      <point x="2870" y="1184" type="curve" smooth="yes"/>
      <point x="2427.34" y="1184"/>
      <point x="2195" y="973"/>
      <point x="2195" y="564" type="curve" smooth="yes"/>
      <point x="2195" y="471" type="line"/>
      <point x="2407" y="471" type="line"/>
      <point x="2407" y="559" type="line" smooth="yes"/>
      <point x="2407" y="850.354"/>
      <point x="2565.29" y="998"/>
      <point x="2871" y="998" type="curve" smooth="yes"/>
      <point x="3176.02" y="998"/>
      <point x="3334" y="836.362"/>
      <point x="3334" y="519" type="curve" smooth="yes"/>
      <point x="3334" y="470" type="line"/>
      <point x="3546" y="504" type="line"/>
      <point x="3546" y="513" type="line" smooth="yes"/>
      <point x="3546" y="955"/>
      <point x="3314" y="1184"/>
    </contour>
    <contour>
      <point x="3546" y="506" type="line"/>
      <point x="3334" y="472" type="line"/>
      <point x="3334" y="463" type="line" smooth="yes"/>
      <point x="3334" y="255.234"/>
      <point x="3245.66" y="148"/>
      <point x="3074" y="148" type="curve" smooth="yes"/>
      <point x="2929.14" y="148"/>
      <point x="2852" y="211.111"/>
      <point x="2852" y="324" type="curve" smooth="yes"/>
      <point x="2852" y="328" type="line" smooth="yes"/>
      <point x="2852" y="437.292"/>
      <point x="2922.66" y="500"/>
      <point x="3069" y="500" type="curve" smooth="yes"/>
      <point x="3194.69" y="500"/>
      <point x="3294.64" y="450.729"/>
      <point x="3356" y="371" type="curve"/>
      <point x="3369" y="503" type="line"/>
      <point x="3327" y="503" type="line"/>
      <point x="3276.15" y="612.375"/>
      <point x="3170" y="678"/>
      <point x="3011" y="678" type="curve" smooth="yes"/>
      <point x="2774.43" y="678"/>
      <point x="2643" y="550.059"/>
      <point x="2643" y="330" type="curve" smooth="yes"/>
      <point x="2643" y="327" type="line" smooth="yes"/>
      <point x="2643" y="94.1739"/>
      <point x="2795.59" y="-33"/>
      <point x="3075" y="-33" type="curve" smooth="yes"/>
      <point x="3381.6" y="-33"/>
      <point x="3546" y="151"/>
      <point x="3546" y="496" type="curve" smooth="yes"/>
    </contour>
  </outline>
  <guideline angle="90" x="418" y="0"/>
</glyph>
<glyph name="Phasmall1.kn" format="2">
  <outline>
    <component base="Pasmall1.kn"/>
    <contour>
      <point x="-269.75" y="-686.667" type="curve"/>
      <point x="-336.583" y="-752.252"/>
      <point x="-361.167" y="-815.052"/>
      <point x="-361.167" y="-886.833" type="curve" smooth="yes"/>
      <point x="-361.167" y="-892.5" type="line" smooth="yes"/>
      <point x="-361.167" y="-953.186"/>
      <point x="-331.25" y="-985.833"/>
      <point x="-269.333" y="-985.833" type="curve" smooth="yes"/>
      <point x="-209.75" y="-985.833"/>
      <point x="-178.083" y="-953.186"/>
      <point x="-178.083" y="-892.5" type="curve" smooth="yes"/>
      <point x="-178.083" y="-886.833" type="line" smooth="yes"/>
      <point x="-178.083" y="-815.052"/>
      <point x="-203.333" y="-751.431"/>
    </contour>
  </outline>
</glyph>
<glyph name="RaHalant.kn" format="2">
  <advance width="2542"/>
  <outline>
    <component base="Halant.kn" xOffset="1604"/>
    <contour>
      <point x="427" y="994" type="line"/>
      <point x="427" y="968" type="line"/>
      <point x="233.493" y="916.235"/>
      <point x="129" y="753.956"/>
      <point x="129" y="529" type="curve" smooth="yes"/>
      <point x="129" y="520" type="line" smooth="yes"/>
      <point x="129" y="152.652"/>
      <point x="380" y="-43"/>
      <point x="848" y="-43" type="curve" smooth="yes"/>
      <point x="1316" y="-43"/>
      <point x="1567" y="152.652"/>
      <point x="1567" y="520" type="curve" smooth="yes"/>
      <point x="1567" y="529" type="line" smooth="yes"/>
      <point x="1567" y="753.956"/>
      <point x="1465.49" y="915.235"/>
      <point x="1272" y="967" type="curve"/>
      <point x="1272" y="994" type="line"/>
    </contour>
    <contour>
      <point x="848" y="143" type="curve" smooth="yes"/>
      <point x="516.036" y="143"/>
      <point x="341" y="285.615"/>
      <point x="341" y="555" type="curve" smooth="yes"/>
      <point x="341" y="564" type="line" smooth="yes"/>
      <point x="341" y="833.691"/>
      <point x="516.036" y="974"/>
      <point x="848" y="974" type="curve" smooth="yes"/>
      <point x="1180.31" y="974"/>
      <point x="1355" y="833.691"/>
      <point x="1355" y="564" type="curve" smooth="yes"/>
      <point x="1355" y="555" type="line" smooth="yes"/>
      <point x="1355" y="285.615"/>
      <point x="1180.31" y="143"/>
    </contour>
    <contour>
      <point x="1175" y="975" type="line"/>
      <point x="1175" y="1148" type="line"/>
      <point x="129" y="1148" type="line"/>
      <point x="129" y="975" type="line"/>
    </contour>
  </outline>
  <guideline angle="90" x="1042" y="0"/>
  <guideline angle="90" x="279" y="0"/>
  <guideline angle="90" x="605" y="0"/>
</glyph>
<glyph name="RamatraU.kn" format="2">
  <advance width="2584"/>
  <outline>
    <component base="Ra.kn"/>
    <component base="matraU.kn" xOffset="1719"/>
    <contour>
      <point x="1468" y="433" type="line"/>
      <point x="1558" y="434" type="line"/>
      <point x="1558" y="443" type="line"/>
      <point x="1468" y="443" type="line"/>
    </contour>
  </outline>
</glyph>
<glyph name="Rasmall4.kn" format="2">
  <outline>
    <contour>
      <point x="284.5" y="-579" type="curve" smooth="yes"/>
      <point x="284.5" y="-514.167"/>
      <point x="269" y="-450.75"/>
      <point x="246.083" y="-409.917" type="curve"/>
      <point x="100.25" y="-409.917" type="line"/>
      <point x="117.167" y="-451.083"/>
      <point x="128.75" y="-503.333"/>
      <point x="128.75" y="-560.917" type="curve" smooth="yes"/>
      <point x="128.75" y="-734.768"/>
      <point x="-24.3873" y="-825.917"/>
      <point x="-354.5" y="-825.917" type="curve" smooth="yes"/>
      <point x="-554.928" y="-825.917"/>
      <point x="-763.348" y="-801.713"/>
      <point x="-911.167" y="-755.667" type="curve"/>
      <point x="-888.167" y="-889.333" type="line"/>
      <point x="-741.198" y="-933.89"/>
      <point x="-543.137" y="-955.917"/>
      <point x="-344" y="-955.917" type="curve" smooth="yes"/>
      <point x="80.7719" y="-955.917"/>
      <point x="284.5" y="-828.526"/>
    </contour>
  </outline>
</glyph>
<glyph name="RraObsoletesmall1.kn" format="2">
  <outline>
    <contour>
      <point x="-487" y="-132" type="curve" smooth="yes"/>
      <point x="-680.838" y="-132"/>
      <point x="-790" y="-245.828"/>
      <point x="-790" y="-454" type="curve"/>
      <point x="-790" y="-456" type="line"/>
      <point x="-632" y="-432" type="line"/>
      <point x="-632" y="-424" type="line" smooth="yes"/>
      <point x="-632" y="-320.058"/>
      <point x="-582.877" y="-262"/>
      <point x="-491" y="-262" type="curve" smooth="yes"/>
      <point x="-433.235" y="-262"/>
      <point x="-400" y="-285.671"/>
      <point x="-400" y="-325" type="curve"/>
      <point x="-400" y="-327" type="line"/>
      <point x="-400" y="-367.073"/>
      <point x="-432.034" y="-389"/>
      <point x="-490" y="-389" type="curve" smooth="yes"/>
      <point x="-558.852" y="-389"/>
      <point x="-616.386" y="-368.93"/>
      <point x="-656" y="-332" type="curve"/>
      <point x="-667" y="-430" type="line"/>
      <point x="-627" y="-430" type="line"/>
      <point x="-598.891" y="-475.294"/>
      <point x="-541.057" y="-500"/>
      <point x="-452" y="-500" type="curve"/>
      <point x="-333.51" y="-455.752" type="line"/>
      <point x="-274.442" y="-430.873"/>
      <point x="-242" y="-383.893"/>
      <point x="-242" y="-318" type="curve"/>
      <point x="-242" y="-316" type="line"/>
      <point x="-242" y="-198.051"/>
      <point x="-328.935" y="-132"/>
    </contour>
    <contour>
      <point x="138" y="-500" type="line"/>
      <point x="138" y="-396" type="line"/>
      <point x="-417" y="-396" type="line"/>
      <point x="-452" y="-500" type="line"/>
    </contour>
    <contour>
      <point x="-632" y="-427.109" type="line"/>
      <point x="-790" y="-454.724" type="line"/>
      <point x="-790" y="-457" type="line" smooth="yes"/>
      <point x="-790" y="-675"/>
      <point x="-672" y="-788"/>
      <point x="-459" y="-788" type="curve" smooth="yes"/>
      <point x="-310" y="-788"/>
      <point x="-226" y="-738.417"/>
      <point x="-206" y="-648" type="curve"/>
      <point x="-201" y="-648" type="line"/>
      <point x="-181" y="-738.417"/>
      <point x="-95" y="-788"/>
      <point x="54" y="-788" type="curve" smooth="yes"/>
      <point x="265.064" y="-788"/>
      <point x="381" y="-674"/>
      <point x="381" y="-456" type="curve" smooth="yes"/>
      <point x="381" y="-452" type="line" smooth="yes"/>
      <point x="381" y="-247"/>
      <point x="273.065" y="-134"/>
      <point x="77" y="-134" type="curve" smooth="yes"/>
      <point x="-77.5872" y="-134"/>
      <point x="-162" y="-190.713"/>
      <point x="-162" y="-293" type="curve" smooth="yes"/>
      <point x="-162" y="-296" type="line" smooth="yes"/>
      <point x="-162" y="-349.889"/>
      <point x="-129.485" y="-380.222"/>
      <point x="-71" y="-391" type="curve"/>
      <point x="-71" y="-422" type="line"/>
      <point x="113" y="-427" type="line"/>
      <point x="108" y="-396" type="line"/>
      <point x="32" y="-396"/>
      <point x="-6" y="-378.514"/>
      <point x="-6" y="-336" type="curve"/>
      <point x="-6" y="-335" type="line"/>
      <point x="-6" y="-289.306"/>
      <point x="26.2292" y="-265"/>
      <point x="85" y="-265" type="curve" smooth="yes"/>
      <point x="177" y="-265"/>
      <point x="223" y="-327.284"/>
      <point x="223" y="-439" type="curve" smooth="yes"/>
      <point x="223" y="-445" type="line" smooth="yes"/>
      <point x="223" y="-582"/>
      <point x="160.021" y="-648"/>
      <point x="38" y="-648" type="curve" smooth="yes"/>
      <point x="-63.3462" y="-648"/>
      <point x="-107.955" y="-609.362"/>
      <point x="-117" y="-537" type="curve" smooth="yes"/>
      <point x="-118" y="-529" type="line"/>
      <point x="-287" y="-529" type="line"/>
      <point x="-288" y="-537" type="line" smooth="yes"/>
      <point x="-296.938" y="-608.501"/>
      <point x="-342.65" y="-648"/>
      <point x="-444" y="-648" type="curve" smooth="yes"/>
      <point x="-568" y="-648"/>
      <point x="-632" y="-581.676"/>
      <point x="-632" y="-443" type="curve" smooth="yes"/>
    </contour>
  </outline>
</glyph>
<glyph name="SsamatraAu.kn" format="2">
  <advance width="3009"/>
  <outline>
    <component base="matraAu.kn" xOffset="1166"/>
    <contour>
      <point x="493" y="724" type="curve" smooth="yes"/>
      <point x="250" y="724"/>
      <point x="113" y="591"/>
      <point x="113" y="360" type="curve" smooth="yes"/>
      <point x="113" y="352" type="line" smooth="yes"/>
      <point x="113" y="101"/>
      <point x="275.691" y="-34"/>
      <point x="584" y="-34" type="curve" smooth="yes"/>
      <point x="863.729" y="-34"/>
      <point x="999.095" y="80.5205"/>
      <point x="1024" y="270" type="curve"/>
      <point x="1031" y="270" type="line"/>
      <point x="1053.23" y="80.5206"/>
      <point x="1178.9" y="-34"/>
      <point x="1437" y="-34" type="curve" smooth="yes"/>
      <point x="1655.85" y="-34"/>
      <point x="1786.16" y="58.101"/>
      <point x="1816" y="233" type="curve"/>
      <point x="1823" y="232" type="line"/>
      <point x="1821" y="-143" type="line"/>
      <point x="2059" y="-143" type="line"/>
      <point x="1965" y="295"/>
      <point x="1898" y="567"/>
      <point x="1801" y="796" type="curve"/>
      <point x="1595" y="796" type="line"/>
      <point x="1642.11" y="685.85"/>
      <point x="1696" y="517.055"/>
      <point x="1696" y="413" type="curve" smooth="yes"/>
      <point x="1696" y="244.87"/>
      <point x="1604.68" y="152"/>
      <point x="1427" y="152" type="curve" smooth="yes"/>
      <point x="1241.35" y="152"/>
      <point x="1155.72" y="246.643"/>
      <point x="1141" y="438" type="curve" smooth="yes"/>
      <point x="1138" y="477" type="line"/>
      <point x="917" y="477" type="line"/>
      <point x="914" y="441" type="line" smooth="yes"/>
      <point x="897.752" y="246.019"/>
      <point x="801.649" y="149"/>
      <point x="594" y="149" type="curve" smooth="yes"/>
      <point x="414.681" y="149"/>
      <point x="322" y="218.976"/>
      <point x="322" y="354" type="curve" smooth="yes"/>
      <point x="322" y="359" type="line" smooth="yes"/>
      <point x="322" y="481.382"/>
      <point x="395.712" y="546"/>
      <point x="529" y="546" type="curve" smooth="yes"/>
      <point x="604" y="546"/>
      <point x="670" y="526"/>
      <point x="715" y="498" type="curve"/>
      <point x="702" y="678" type="line"/>
      <point x="648" y="708"/>
      <point x="583" y="724"/>
    </contour>
    <contour>
      <point x="1490" y="974" type="line"/>
      <point x="1490" y="1148" type="line"/>
      <point x="177" y="1148" type="line"/>
      <point x="177" y="974" type="line"/>
    </contour>
    <contour>
      <point x="1028" y="923" type="curve" smooth="yes"/>
      <point x="947" y="923"/>
      <point x="909" y="878"/>
      <point x="909" y="761" type="curve" smooth="yes"/>
      <point x="909" y="749" type="line" smooth="yes"/>
      <point x="909" y="632"/>
      <point x="947" y="587"/>
      <point x="1028" y="587" type="curve" smooth="yes"/>
      <point x="1110" y="587"/>
      <point x="1147" y="632"/>
      <point x="1147" y="749" type="curve" smooth="yes"/>
      <point x="1147" y="761" type="line" smooth="yes"/>
      <point x="1147" y="878"/>
      <point x="1110" y="923"/>
    </contour>
  </outline>
  <guideline angle="0" x="0" y="1516"/>
  <guideline angle="90" x="438" y="0"/>
</glyph>
<glyph name="TaYasmall.kn" format="2">
  <advance width="478"/>
  <outline>
    <contour>
      <point x="-43.6667" y="-599" type="line"/>
      <point x="-191.762" y="-650.411"/>
      <point x="-265.333" y="-690.046"/>
      <point x="-265.333" y="-791" type="curve" smooth="yes"/>
      <point x="-265.333" y="-919.078"/>
      <point x="-134.583" y="-989.75"/>
      <point x="99.9167" y="-989.75" type="curve" smooth="yes"/>
      <point x="380.479" y="-989.75"/>
      <point x="524.75" y="-870.583"/>
      <point x="524.75" y="-639.5" type="curve"/>
      <point x="524.75" y="-638.083" type="line"/>
      <point x="524.75" y="-342.5"/>
      <point x="281.583" y="-203.583"/>
      <point x="281.583" y="-33.8333" type="curve"/>
      <point x="281.583" y="-32.4166" type="line"/>
      <point x="281.583" y="32.5001"/>
      <point x="317.833" y="66.1667"/>
      <point x="391" y="66.1667" type="curve" smooth="yes"/>
      <point x="430.417" y="66.1667"/>
      <point x="466.667" y="55.4167"/>
      <point x="495.667" y="39.0834" type="curve"/>
      <point x="469.833" y="185.833" type="line"/>
      <point x="434.5" y="200.75"/>
      <point x="393.833" y="208.25"/>
      <point x="347.583" y="208.25" type="curve" smooth="yes"/>
      <point x="198.333" y="208.25"/>
      <point x="113.583" y="125.167"/>
      <point x="113.583" y="-16.6666" type="curve"/>
      <point x="113.583" y="-18.0833" type="line"/>
      <point x="113.583" y="-264.667"/>
      <point x="355.167" y="-380"/>
      <point x="355.167" y="-633.417" type="curve"/>
      <point x="355.167" y="-635.417" type="line"/>
      <point x="355.167" y="-777.083"/>
      <point x="272.02" y="-845.333"/>
      <point x="101.333" y="-845.333" type="curve" smooth="yes"/>
      <point x="-33.5793" y="-845.333"/>
      <point x="-98.4167" y="-813.997"/>
      <point x="-98.4167" y="-750.917" type="curve" smooth="yes"/>
      <point x="-98.4167" y="-714.59"/>
      <point x="-80.7262" y="-690.087"/>
      <point x="-2.75" y="-625.167" type="curve"/>
    </contour>
    <contour>
      <point x="-298.417" y="-708.75" type="line" smooth="yes"/>
      <point x="-56.0579" y="-708.75"/>
      <point x="80.5833" y="-612.955"/>
      <point x="80.5833" y="-424.667" type="curve" smooth="yes"/>
      <point x="80.5833" y="-419.5" type="line" smooth="yes"/>
      <point x="80.5833" y="-232.837"/>
      <point x="-49.6378" y="-132.5"/>
      <point x="-279.75" y="-132.5" type="curve" smooth="yes"/>
      <point x="-504.032" y="-132.5"/>
      <point x="-631.333" y="-224.107"/>
      <point x="-631.333" y="-390.75" type="curve" smooth="yes"/>
      <point x="-631.333" y="-393" type="line" smooth="yes"/>
      <point x="-631.333" y="-472.613"/>
      <point x="-590.152" y="-531.514"/>
      <point x="-517.583" y="-550.5" type="curve"/>
      <point x="-517.583" y="-555" type="line"/>
      <point x="-1209.08" y="-555" type="line"/>
      <point x="-1183.25" y="-708.75" type="line"/>
    </contour>
    <contour>
      <point x="-277.417" y="-286.667" type="curve" smooth="yes"/>
      <point x="-164.206" y="-286.667"/>
      <point x="-104.75" y="-333.509"/>
      <point x="-104.75" y="-420.833" type="curve" smooth="yes"/>
      <point x="-104.75" y="-425.833" type="line" smooth="yes"/>
      <point x="-104.75" y="-513.565"/>
      <point x="-164.206" y="-560.417"/>
      <point x="-277.417" y="-560.417" type="curve" smooth="yes"/>
      <point x="-390.627" y="-560.417"/>
      <point x="-450.083" y="-513.565"/>
      <point x="-450.083" y="-425.833" type="curve" smooth="yes"/>
      <point x="-450.083" y="-420.833" type="line" smooth="yes"/>
      <point x="-450.083" y="-333.509"/>
      <point x="-390.627" y="-286.667"/>
    </contour>
  </outline>
  <guideline angle="0" x="0" y="-407"/>
  <guideline angle="0" x="0" y="-407"/>
</glyph>
<glyph name="TamatraAu.kn" format="2">
  <advance width="2402"/>
  <outline>
    <component base="matraAu.kn" xOffset="559"/>
    <contour>
      <point x="748" y="147" type="curve" smooth="yes"/>
      <point x="484.605" y="147"/>
      <point x="261.27" y="213.113"/>
      <point x="81" y="296" type="curve"/>
      <point x="94" y="100" type="line"/>
      <point x="250.762" y="25.1335"/>
      <point x="479.415" y="-38"/>
      <point x="753" y="-38" type="curve" smooth="yes"/>
      <point x="1153" y="-38"/>
      <point x="1347" y="85"/>
      <point x="1347" y="321" type="curve" smooth="yes"/>
      <point x="1347" y="327" type="line" smooth="yes"/>
      <point x="1347" y="499.42"/>
      <point x="1246.8" y="592.744"/>
      <point x="1068" y="611" type="curve"/>
      <point x="1068" y="618" type="line"/>
      <point x="1184.77" y="631.842"/>
      <point x="1249" y="692.153"/>
      <point x="1249" y="793" type="curve"/>
      <point x="1249" y="794" type="line"/>
      <point x="1249" y="886.101"/>
      <point x="1196.88" y="949.674"/>
      <point x="1087" y="967" type="curve"/>
      <point x="1087" y="1020" type="line"/>
      <point x="773" y="1020" type="line"/>
      <point x="758" y="974" type="line"/>
      <point x="949.372" y="974"/>
      <point x="1037" y="925.074"/>
      <point x="1037" y="826" type="curve"/>
      <point x="1037" y="825" type="line"/>
      <point x="1037" y="729.691"/>
      <point x="967.401" y="690.577"/>
      <point x="803" y="689" type="curve" smooth="yes"/>
      <point x="386" y="685" type="line"/>
      <point x="386" y="509" type="line"/>
      <point x="853" y="507" type="line" smooth="yes"/>
      <point x="1044.02" y="506.182"/>
      <point x="1135" y="466.145"/>
      <point x="1135" y="347" type="curve" smooth="yes"/>
      <point x="1135" y="342" type="line" smooth="yes"/>
      <point x="1135" y="212"/>
      <point x="1006.67" y="147"/>
    </contour>
    <contour>
      <point x="972" y="974" type="line"/>
      <point x="972" y="1148" type="line"/>
      <point x="117" y="1148" type="line"/>
      <point x="117" y="974" type="line"/>
    </contour>
  </outline>
</glyph>
